<?xml version="1.0" encoding="UTF-8" standalone="no"?>
<svg 
   width="552pt"
   height="484.07999pt"
   viewBox="0 0 552 484.07999"
   version="1.1"
   id="svg4"
   xmlns="http://www.w3.org/2000/svg"
   xmlns:svg="http://www.w3.org/2000/svg" content="%3Cmxfile%20host%3D%22app.diagrams.net%22%20modified%3D%222023-09-23T16%3A45%3A15.653Z%22%20agent%3D%22Mozilla%2F5.0%20(Windows%20NT%2010.0%3B%20Win64%3B%20x64)%20AppleWebKit%2F537.36%20(KHTML%2C%20like%20Gecko)%20Chrome%2F116.0.0.0%20Safari%2F537.36%22%20etag%3D%22gucdcCb4iyE0_TJXw1mg%22%20version%3D%2221.8.1%22%20type%3D%22device%22%3E%20%20%20%3Cdiagram%20name%3D%22Page-1%22%20id%3D%22IYJP8yPILb7BMYbv4xPp%22%3E%20%20%20%20%20%3CmxGraphModel%20dx%3D%22700%22%20dy%3D%22377%22%20grid%3D%221%22%20gridSize%3D%2210%22%20guides%3D%221%22%20tooltips%3D%221%22%20connect%3D%221%22%20arrows%3D%221%22%20fold%3D%221%22%20page%3D%220%22%20pageScale%3D%221%22%20pageWidth%3D%22850%22%20pageHeight%3D%221100%22%20math%3D%220%22%20shadow%3D%220%22%3E%20%20%20%20%20%20%20%3Croot%3E%20%20%20%20%20%20%20%20%20%3CmxCell%20id%3D%220%22%20%2F%3E%20%20%20%20%20%20%20%20%20%3CmxCell%20id%3D%221%22%20parent%3D%220%22%20%2F%3E%20%20%20%20%20%20%20%20%20%3CmxCell%20id%3D%22iJnl52I3nTki2smfQTvO-27%22%20value%3D%22%22%20style%3D%22points%3D%5B%5B0.59%2C0%2C0%5D%2C%5B0.87%2C0.015%2C0%5D%2C%5B0.88%2C0.3%2C0%5D%2C%5B0.99%2C0.99%2C0%5D%2C%5B0.5%2C1%2C0%5D%2C%5B0.01%2C0.99%2C0%5D%2C%5B0.075%2C0.5%2C0%5D%2C%5B0.17%2C0.115%2C0%5D%5D%3BverticalLabelPosition%3Dbottom%3Bsketch%3D0%3Bhtml%3D1%3BverticalAlign%3Dtop%3Baspect%3Dfixed%3Balign%3Dcenter%3BpointerEvents%3D1%3Bshape%3Dmxgraph.cisco19.ip_phone%3BfillColor%3D%23005073%3BstrokeColor%3Dnone%3B%22%20vertex%3D%221%22%20parent%3D%221%22%3E%20%20%20%20%20%20%20%20%20%20%20%3CmxGeometry%20x%3D%22170%22%20y%3D%22203.91%22%20width%3D%22367.5%22%20height%3D%22319.57%22%20as%3D%22geometry%22%20%2F%3E%20%20%20%20%20%20%20%20%20%3C%2FmxCell%3E%20%20%20%20%20%20%20%3C%2Froot%3E%20%20%20%20%20%3C%2FmxGraphModel%3E%20%20%20%3C%2Fdiagram%3E%20%3C%2Fmxfile%3E%20">
  <defs
     id="defs8" />
  <path
     fill-rule="nonzero"
     fill="rgb(0%, 31.369019%, 45.098877%)"
     fill-opacity="1"
     d="M 182.191406 1.363281 C 169.394531 1.363281 158.953125 11.496094 158.953125 23.917969 L 158.953125 224.789063 C 158.953125 237.210938 169.394531 247.34375 182.191406 247.34375 L 462.046875 247.34375 C 474.847656 247.34375 485.28125 237.210938 485.28125 224.789063 L 485.28125 23.917969 C 485.28125 11.496094 474.847656 1.363281 462.046875 1.363281 Z M 182.191406 10.148438 L 462.046875 10.148438 C 469.988281 10.148438 476.234375 16.207031 476.234375 23.917969 L 476.234375 224.789063 C 476.234375 232.492188 469.988281 238.566406 462.046875 238.566406 L 182.191406 238.566406 C 174.253906 238.566406 168 232.492188 168 224.789063 L 168 23.917969 C 168 16.207031 174.253906 10.148438 182.191406 10.148438 Z M 321.351563 22.253906 C 317.917969 22.253906 314.617188 23.574219 312.1875 25.933594 C 309.757813 28.289063 308.390625 31.492188 308.390625 34.828125 C 308.390625 38.160156 309.757813 41.363281 312.1875 43.71875 C 314.617188 46.078125 317.917969 47.398438 321.351563 47.398438 C 328.507813 47.398438 334.3125 41.773438 334.3125 34.828125 C 334.3125 31.492188 332.949219 28.289063 330.515625 25.933594 C 328.085938 23.574219 324.789063 22.253906 321.351563 22.253906 Z M 216.359375 56.601563 C 205.628906 56.601563 196.996094 64.980469 196.996094 75.390625 L 196.996094 197.445313 C 196.996094 207.863281 205.628906 216.238281 216.359375 216.238281 L 427.882813 216.238281 C 438.613281 216.238281 447.246094 207.863281 447.246094 197.445313 L 447.246094 75.390625 C 447.246094 64.980469 438.613281 56.601563 427.882813 56.601563 Z M 94.394531 57.023438 C 65.28125 57.023438 41.835938 79.777344 41.835938 108.03125 L 41.835938 284.59375 C 35.625 293.566406 30.75 305.078125 27.472656 319.65625 C 27.464844 319.703125 27.449219 319.738281 27.441406 319.785156 L 10.914063 405.71875 C 8.707031 416.601563 7.867188 427.589844 11.722656 436.710938 C 15.5625 445.816406 24.976563 452.160156 39.234375 452.160156 L 510.652344 452.160156 C 518.804688 452.160156 525.277344 451.539063 530.617188 449.820313 C 535.949219 448.109375 540.21875 445.042969 542.714844 440.761719 C 547.710938 432.203125 546.285156 420.890625 543.421875 404.78125 L 543.414063 404.765625 L 530.511719 328.679688 L 530.503906 328.628906 C 526.589844 304.019531 517.648438 285.480469 503.519531 273.1875 C 489.398438 260.902344 470.363281 255.195313 447.457031 255.324219 L 146.960938 255.324219 L 146.960938 108.03125 C 146.960938 79.777344 123.515625 57.023438 94.394531 57.023438 Z M 146.960938 264.105469 L 447.457031 264.105469 C 447.472656 264.105469 447.480469 264.105469 447.496094 264.105469 C 468.855469 263.976563 485.300781 269.128906 497.484375 279.734375 C 509.671875 290.332031 517.875 306.710938 521.574219 330.015625 C 521.578125 330.03125 521.578125 330.046875 521.578125 330.058594 L 534.496094 406.214844 C 534.496094 406.222656 534.496094 406.238281 534.496094 406.246094 C 537.308594 422.011719 537.515625 431.835938 534.839844 436.433594 C 533.496094 438.726563 531.59375 440.265625 527.765625 441.496094 C 523.957031 442.71875 518.296875 443.386719 510.652344 443.386719 L 39.234375 443.386719 C 27.375 443.386719 22.726563 439.621094 20.09375 433.371094 C 17.460938 427.140625 17.738281 417.515625 19.785156 407.421875 C 19.785156 407.40625 19.792969 407.390625 19.792969 407.371094 L 36.324219 321.480469 C 37.851563 314.671875 39.703125 308.683594 41.835938 303.441406 L 41.835938 338.167969 C 41.835938 366.433594 65.28125 389.183594 94.394531 389.183594 C 123.515625 389.183594 146.960938 366.433594 146.960938 338.167969 Z M 228.039063 292.164063 C 222.683594 292.164063 218.347656 296.378906 218.347656 301.566406 C 218.347656 306.765625 222.683594 310.980469 228.039063 310.980469 L 422.820313 310.980469 C 428.167969 310.980469 432.511719 306.765625 432.511719 301.566406 C 432.511719 296.378906 428.167969 292.164063 422.820313 292.164063 Z M 255.261719 332.167969 C 249.90625 332.167969 245.566406 336.382813 245.566406 341.574219 C 245.566406 346.769531 249.90625 350.984375 255.261719 350.984375 L 274.980469 350.984375 C 280.335938 350.984375 284.671875 346.769531 284.671875 341.574219 C 284.671875 336.382813 280.335938 332.167969 274.980469 332.167969 Z M 314.332031 332.167969 C 308.976563 332.167969 304.636719 336.382813 304.636719 341.574219 C 304.636719 346.769531 308.976563 350.984375 314.332031 350.984375 L 334.050781 350.984375 C 339.40625 350.984375 343.738281 346.769531 343.738281 341.574219 C 343.738281 336.382813 339.40625 332.167969 334.050781 332.167969 Z M 373.191406 332.167969 C 367.84375 332.167969 363.503906 336.382813 363.503906 341.574219 C 363.503906 346.769531 367.84375 350.984375 373.191406 350.984375 L 392.917969 350.984375 C 398.273438 350.984375 402.609375 346.769531 402.609375 341.574219 C 402.609375 336.382813 398.273438 332.167969 392.917969 332.167969 Z M 248.699219 367.613281 C 243.351563 367.613281 239.011719 371.828125 239.011719 377.015625 C 239.011719 382.214844 243.351563 386.421875 248.699219 386.421875 L 268.425781 386.421875 C 273.773438 386.421875 278.109375 382.214844 278.109375 377.015625 C 278.109375 371.828125 273.773438 367.613281 268.425781 367.613281 Z M 314.332031 367.613281 C 308.976563 367.613281 304.640625 371.828125 304.640625 377.015625 C 304.640625 382.214844 308.976563 386.421875 314.332031 386.421875 L 334.050781 386.421875 C 339.398438 386.421875 343.738281 382.214844 343.738281 377.015625 C 343.738281 371.828125 339.398438 367.613281 334.050781 367.613281 Z M 380.476563 367.613281 C 375.128906 367.613281 370.792969 371.828125 370.792969 377.015625 C 370.792969 382.214844 375.128906 386.421875 380.476563 386.421875 L 400.199219 386.421875 C 405.546875 386.421875 409.890625 382.214844 409.890625 377.015625 C 409.890625 371.828125 405.546875 367.613281 400.199219 367.613281 Z M 241.417969 402.988281 C 236.070313 402.988281 231.726563 407.203125 231.726563 412.402344 C 231.726563 417.59375 236.070313 421.808594 241.417969 421.808594 L 261.140625 421.808594 C 266.488281 421.808594 270.832031 417.59375 270.832031 412.402344 C 270.832031 407.203125 266.488281 402.988281 261.140625 402.988281 Z M 314.453125 402.988281 C 309.097656 402.988281 304.761719 407.203125 304.761719 412.402344 C 304.761719 417.59375 309.097656 421.808594 314.453125 421.808594 L 334.175781 421.808594 C 339.53125 421.808594 343.875 417.59375 343.875 412.402344 C 343.875 407.203125 339.53125 402.988281 334.175781 402.988281 Z M 387.621094 402.988281 C 382.265625 402.988281 377.933594 407.203125 377.933594 412.402344 C 377.933594 417.59375 382.265625 421.808594 387.621094 421.808594 L 407.339844 421.808594 C 412.695313 421.808594 417.039063 417.59375 417.039063 412.402344 C 417.039063 407.203125 412.695313 402.988281 407.339844 402.988281 Z M 0 442.074219 L 0 462.226563 C 0 473.84375 10.125 480.601563 29.683594 480.601563 L 537.578125 480.71875 C 545.40625 478.679688 551.25 471.816406 551.25 463.261719 L 551.101563 443.761719 C 548.609375 451.214844 534.871094 462.113281 527.601563 462.113281 L 35.191406 463.46875 C 17.765625 463.46875 6.164063 453.871094 0 442.074219 Z M 0 442.074219 "
     id="path2" />
</svg>
