<?xml version="1.0" encoding="UTF-8" standalone="no"?>
<svg 
   width="293.04001pt"
   height="280.07999pt"
   viewBox="0 0 293.04001 280.07999"
   version="1.1"
   id="svg29"
   xmlns="http://www.w3.org/2000/svg"
   xmlns:svg="http://www.w3.org/2000/svg" content="%3Cmxfile%20host%3D%22app.diagrams.net%22%20modified%3D%222023-09-23T16%3A05%3A16.735Z%22%20agent%3D%22Mozilla%2F5.0%20(Windows%20NT%2010.0%3B%20Win64%3B%20x64)%20AppleWebKit%2F537.36%20(KHTML%2C%20like%20Gecko)%20Chrome%2F116.0.0.0%20Safari%2F537.36%22%20etag%3D%22arC26RcTK6CyLKys_IWg%22%20version%3D%2221.8.1%22%20type%3D%22device%22%3E%20%20%20%3Cdiagram%20name%3D%22Page-1%22%20id%3D%22IYJP8yPILb7BMYbv4xPp%22%3E%20%20%20%20%20%3CmxGraphModel%20dx%3D%221050%22%20dy%3D%22566%22%20grid%3D%221%22%20gridSize%3D%2210%22%20guides%3D%221%22%20tooltips%3D%221%22%20connect%3D%221%22%20arrows%3D%221%22%20fold%3D%221%22%20page%3D%220%22%20pageScale%3D%221%22%20pageWidth%3D%22850%22%20pageHeight%3D%221100%22%20math%3D%220%22%20shadow%3D%220%22%3E%20%20%20%20%20%20%20%3Croot%3E%20%20%20%20%20%20%20%20%20%3CmxCell%20id%3D%220%22%20%2F%3E%20%20%20%20%20%20%20%20%20%3CmxCell%20id%3D%221%22%20parent%3D%220%22%20%2F%3E%20%20%20%20%20%20%20%20%20%3CmxCell%20id%3D%22iJnl52I3nTki2smfQTvO-3%22%20value%3D%22%22%20style%3D%22image%3Bpoints%3D%5B%5D%3Baspect%3Dfixed%3Bhtml%3D1%3Balign%3Dcenter%3Bshadow%3D0%3Bdashed%3D0%3Bimage%3Dimg%2Flib%2Fallied_telesis%2Fsecurity%2FSurveillance_Camera_Ceiling.svg%3B%22%20vertex%3D%221%22%20parent%3D%221%22%3E%20%20%20%20%20%20%20%20%20%20%20%3CmxGeometry%20x%3D%22220%22%20y%3D%22100%22%20width%3D%22390%22%20height%3D%22370%22%20as%3D%22geometry%22%20%2F%3E%20%20%20%20%20%20%20%20%20%3C%2FmxCell%3E%20%20%20%20%20%20%20%3C%2Froot%3E%20%20%20%20%20%3C%2FmxGraphModel%3E%20%20%20%3C%2Fdiagram%3E%20%3C%2Fmxfile%3E%20">
  <defs
     id="defs5">
    <clipPath
       id="clip-0">
      <path
         clip-rule="nonzero"
         d="M 11 89 L 281 89 L 281 277.261719 L 11 277.261719 Z M 11 89 "
         id="path2" />
    </clipPath>
  </defs>
  <g
     clip-path="url(#clip-0)"
     id="g9">
    <path
       fill="none"
       stroke-width="2.481"
       stroke-linecap="butt"
       stroke-linejoin="round"
       stroke="#626366"
       stroke-opacity="1"
       stroke-miterlimit="4"
       d="m 58.006187,34.329813 c 0,12.087067 -12.850043,23.037927 -27.737168,23.037927 -14.887124,0 -26.630687,-10.872415 -26.630687,-24.602689 0,-3.02218 0.342679,-6.343274 1.749727,-8.100432 4.330139,-5.436621 50.220202,-7.371311 52.255632,1.65807 0.424426,1.887623 0.360019,5.962612 0.360019,8.018685 z m 0,0"
       transform="matrix(4.73065,0,0,4.73065,0.319572,0)"
       id="path7" />
  </g>
  <path
     fill="none"
     stroke-width="2.481"
     stroke-linecap="butt"
     stroke-linejoin="round"
     stroke="rgb(38.42926%, 38.819885%, 39.99939%)"
     stroke-opacity="1"
     stroke-miterlimit="4"
     d="M 60.403287 29.999674 C 60.403287 29.999674 54.783355 21.890159 31.435779 21.706846 C 6.770334 21.511973 1.240406 29.999674 1.240406 29.999674 L 1.240406 10.372021 C 1.240406 10.372021 8.335922 1.617609 30.819782 1.250158 C 51.383815 0.911608 60.399985 10.372021 60.399985 10.372021 Z M 60.403287 29.999674 "
     transform="matrix(4.73065, 0, 0, 4.73065, 0.319572, 0)"
     id="path11" />
  <path
     fill-rule="nonzero"
     fill="rgb(53.729248%, 54.508972%, 55.688477%)"
     fill-opacity="1"
     d="M 274.726563 162.402344 C 274.726563 219.582031 213.9375 271.386719 143.511719 271.386719 C 73.085938 271.386719 17.53125 219.953125 17.53125 155 C 17.53125 140.703125 19.152344 124.992188 25.808594 116.679688 C 46.292969 90.960938 263.382813 81.808594 273.011719 124.523438 C 275.019531 133.453125 274.714844 152.730469 274.714844 162.457031 "
     id="path13" />
  <path
     fill-rule="nonzero"
     fill="rgb(89.7995%, 90.19928%, 90.589905%)"
     fill-opacity="1"
     d="M 88.148438 210.363281 C 93.019531 214.894531 66.800781 226.132813 65.125 224.910156 C 23.792969 194.699219 27.917969 153.617188 31.046875 149.332031 C 39.324219 137.996094 59.816406 131.023438 59.816406 131.023438 C 59.273438 161.101563 77.4375 200.40625 88.199219 210.359375 M 236.019531 131.179688 C 233.652344 125.03125 263.054688 145.542969 263.457031 147.578125 C 270.824219 184.878906 236.710938 220.59375 231.632813 222.121094 C 218.191406 226.167969 204.480469 209.8125 206.785156 208.613281 C 222.5625 200.398438 239.972656 141.34375 236.019531 131.179688 M 145.722656 261.429688 C 109.449219 261.429688 103.542969 237.53125 104.203125 218.734375 C 104.773438 202.523438 111.867188 172.148438 145.761719 170.875 C 169.605469 169.929688 187.089844 187.082031 187.261719 218.085938 C 187.378906 239.257813 178.191406 261.433594 145.726563 261.433594 "
     id="path15" />
  <path
     fill-rule="nonzero"
     fill="rgb(34.509277%, 34.509277%, 35.688782%)"
     fill-opacity="1"
     d="M 177.515625 221.261719 C 177.515625 236.1875 163.265625 248.289063 145.6875 248.289063 C 128.109375 248.289063 113.871094 236.1875 113.871094 221.261719 C 113.871094 206.335938 128.117188 194.234375 145.6875 194.234375 C 163.257813 194.234375 177.515625 206.335938 177.515625 221.261719 "
     id="path17" />
  <path
     fill-rule="nonzero"
     fill="rgb(99.609375%, 99.609375%, 99.609375%)"
     fill-opacity="1"
     d="M 163.128906 227.484375 C 163.128906 228.066406 163.101563 228.652344 163.042969 229.234375 C 162.984375 229.816406 162.898438 230.394531 162.785156 230.96875 C 162.671875 231.542969 162.527344 232.109375 162.359375 232.667969 C 162.1875 233.230469 161.992188 233.78125 161.765625 234.320313 C 161.542969 234.863281 161.292969 235.390625 161.015625 235.90625 C 160.742188 236.421875 160.441406 236.921875 160.113281 237.410156 C 159.789063 237.898438 159.441406 238.367188 159.070313 238.820313 C 158.699219 239.269531 158.304688 239.703125 157.890625 240.117188 C 157.476563 240.53125 157.046875 240.925781 156.59375 241.296875 C 156.140625 241.667969 155.671875 242.015625 155.183594 242.339844 C 154.699219 242.664063 154.195313 242.964844 153.679688 243.242188 C 153.164063 243.519531 152.636719 243.769531 152.09375 243.992188 C 151.554688 244.214844 151.003906 244.414063 150.445313 244.582031 C 149.882813 244.753906 149.316406 244.894531 148.742188 245.011719 C 148.167969 245.125 147.589844 245.210938 147.007813 245.269531 C 146.425781 245.324219 145.84375 245.355469 145.257813 245.355469 C 144.671875 245.355469 144.089844 245.328125 143.503906 245.269531 C 142.921875 245.210938 142.34375 245.125 141.769531 245.011719 C 141.195313 244.898438 140.628906 244.753906 140.070313 244.585938 C 139.507813 244.414063 138.957031 244.21875 138.417969 243.992188 C 137.878906 243.769531 137.347656 243.519531 136.832031 243.242188 C 136.316406 242.96875 135.816406 242.667969 135.328125 242.34375 C 134.839844 242.015625 134.371094 241.667969 133.917969 241.296875 C 133.464844 240.925781 133.035156 240.535156 132.621094 240.121094 C 132.207031 239.707031 131.8125 239.273438 131.441406 238.820313 C 131.070313 238.367188 130.722656 237.898438 130.394531 237.410156 C 130.070313 236.925781 129.769531 236.421875 129.492188 235.90625 C 129.21875 235.390625 128.96875 234.863281 128.742188 234.320313 C 128.519531 233.78125 128.320313 233.230469 128.152344 232.671875 C 127.980469 232.109375 127.839844 231.542969 127.726563 230.96875 C 127.609375 230.394531 127.523438 229.816406 127.46875 229.234375 C 127.410156 228.652344 127.378906 228.066406 127.378906 227.484375 C 127.378906 226.898438 127.410156 226.3125 127.46875 225.730469 C 127.523438 225.148438 127.609375 224.570313 127.726563 223.996094 C 127.839844 223.421875 127.980469 222.855469 128.152344 222.296875 C 128.320313 221.734375 128.519531 221.183594 128.742188 220.644531 C 128.96875 220.101563 129.21875 219.574219 129.492188 219.058594 C 129.769531 218.542969 130.070313 218.039063 130.394531 217.554688 C 130.722656 217.066406 131.070313 216.597656 131.441406 216.144531 C 131.8125 215.691406 132.207031 215.261719 132.621094 214.847656 C 133.035156 214.433594 133.464844 214.039063 133.917969 213.667969 C 134.371094 213.296875 134.839844 212.949219 135.328125 212.625 C 135.816406 212.296875 136.316406 211.996094 136.832031 211.722656 C 137.347656 211.445313 137.878906 211.195313 138.417969 210.972656 C 138.957031 210.746094 139.507813 210.550781 140.070313 210.382813 C 140.628906 210.210938 141.195313 210.070313 141.769531 209.953125 C 142.34375 209.839844 142.921875 209.753906 143.503906 209.695313 C 144.089844 209.640625 144.671875 209.609375 145.257813 209.609375 C 145.84375 209.609375 146.425781 209.640625 147.007813 209.699219 C 147.589844 209.753906 148.167969 209.839844 148.742188 209.957031 C 149.316406 210.070313 149.882813 210.210938 150.445313 210.382813 C 151.003906 210.550781 151.554688 210.75 152.09375 210.972656 C 152.636719 211.199219 153.164063 211.449219 153.679688 211.722656 C 154.195313 212 154.699219 212.300781 155.183594 212.625 C 155.671875 212.949219 156.140625 213.296875 156.59375 213.671875 C 157.046875 214.042969 157.476563 214.433594 157.890625 214.847656 C 158.304688 215.261719 158.699219 215.695313 159.070313 216.148438 C 159.441406 216.597656 159.789063 217.070313 160.113281 217.554688 C 160.441406 218.042969 160.742188 218.542969 161.015625 219.058594 C 161.292969 219.574219 161.542969 220.105469 161.765625 220.644531 C 161.992188 221.183594 162.1875 221.734375 162.359375 222.296875 C 162.527344 222.855469 162.671875 223.421875 162.785156 223.996094 C 162.898438 224.570313 162.984375 225.148438 163.042969 225.730469 C 163.101563 226.3125 163.128906 226.898438 163.128906 227.484375 "
     id="path19" />
  <path
     fill-rule="nonzero"
     fill="rgb(70.199585%, 70.979309%, 71.759033%)"
     fill-opacity="1"
     d="M 286.066406 141.917969 C 286.066406 141.917969 259.480469 103.554688 149.03125 102.6875 C 32.347656 101.765625 6.1875 141.917969 6.1875 141.917969 L 6.1875 49.066406 C 6.1875 49.066406 39.753906 7.652344 146.117188 5.914063 C 243.398438 4.3125 286.050781 49.066406 286.050781 49.066406 Z M 286.066406 141.917969 "
     id="path21" />
  <path
     fill-rule="nonzero"
     fill="rgb(50.19989%, 50.588989%, 51.759338%)"
     fill-opacity="1"
     d="M 56.160156 19.964844 L 56.160156 113.558594 C 17.085938 125.179688 6.1875 141.941406 6.1875 141.941406 L 6.1875 49.128906 C 6.1875 49.128906 19.574219 32.585938 56.160156 19.964844 M 286.070313 49.089844 L 286.070313 141.917969 C 286.070313 141.917969 276.097656 127.511719 242.941406 116.15625 L 242.941406 22.625 C 272.425781 34.773438 286.070313 49.089844 286.070313 49.089844 "
     id="path23" />
  <path
     fill="none"
     stroke-width="1.24"
     stroke-linecap="round"
     stroke-linejoin="round"
     stroke="rgb(34.509277%, 34.509277%, 35.688782%)"
     stroke-opacity="1"
     stroke-miterlimit="4"
     d="M 59.485073 29.099626 C 57.23165 26.984926 49.867771 21.849698 31.343297 21.702718 C 11.731333 21.548306 4.21717 26.883361 1.962922 29.07568 "
     transform="matrix(4.73065, 0, 0, 4.73065, 0.319572, 0)"
     id="path25" />
  <path
     fill="none"
     stroke-width="1.24"
     stroke-linecap="round"
     stroke-linejoin="round"
     stroke="rgb(94.119263%, 94.119263%, 94.509888%)"
     stroke-opacity="1"
     stroke-miterlimit="4"
     d="M 57.32661 29.099626 C 55.074838 26.984926 47.45333 22.894249 30.92465 22.892598 C 15.002058 22.891772 5.890929 27.093097 3.636681 29.295325 "
     transform="matrix(4.73065, 0, 0, 4.73065, 0.319572, 0)"
     id="path27" />
</svg>
