<?xml version="1.0" standalone="no"?>
<!DOCTYPE svg PUBLIC "-//W3C//DTD SVG 20010904//EN"
 "http://www.w3.org/TR/2001/REC-SVG-20010904/DTD/svg10.dtd">
<svg version="1.0" xmlns="http://www.w3.org/2000/svg"
 width="194.000000pt" height="207.000000pt" viewBox="0 0 194.000000 207.000000"
 preserveAspectRatio="xMidYMid meet">
<metadata>
Created by potrace 1.16, written by Peter Selinger 2001-2019
</metadata>
<g transform="translate(0.000000,207.000000) scale(0.100000,-0.100000)"
fill="#000000" stroke="none">
<path d="M1479 1951 c-30 -16 -250 -143 -489 -282 l-435 -252 -95 -1 c-87 -1
-100 -4 -150 -32 -30 -17 -70 -50 -87 -73 -61 -79 -63 -98 -63 -583 0 -435 0
-438 -20 -438 -12 0 -32 -12 -45 -26 -21 -23 -25 -37 -25 -90 l0 -64 375 0
375 0 0 53 c0 67 -16 98 -63 120 l-37 19 0 391 1 392 484 279 c267 154 495
291 509 305 37 40 49 71 49 126 0 57 -18 97 -60 137 -60 57 -141 64 -224 19z
m132 -244 c-5 -5 -31 -22 -57 -37 l-48 -27 -81 34 c-44 19 -93 40 -110 47
l-30 12 64 36 63 36 104 -46 c67 -29 101 -49 95 -55z m-408 -137 c54 -24 96
-44 95 -45 -12 -11 -111 -65 -119 -65 -15 0 -209 84 -209 90 0 9 115 70 125
66 6 -2 54 -23 108 -46z m-334 -183 c51 -23 93 -46 93 -51 0 -5 -25 -22 -54
-39 l-54 -30 -84 38 c-47 20 -96 41 -110 47 -23 9 -22 10 35 43 33 19 65 34
70 34 6 0 52 -19 104 -42z m-363 -123 c97 -46 99 -200 3 -250 -48 -24 -122
-15 -159 21 -119 114 8 299 156 229z"/>
</g>
</svg>
