<?xml version="1.0" standalone="no"?>
<!DOCTYPE svg PUBLIC "-//W3C//DTD SVG 20010904//EN"
 "http://www.w3.org/TR/2001/REC-SVG-20010904/DTD/svg10.dtd">
<svg version="1.0" xmlns="http://www.w3.org/2000/svg"
 width="100.000000pt" height="100.000000pt" viewBox="0 0 36.000000 36.000000"
 preserveAspectRatio="xMidYMid meet">
<metadata>
Created by potrace 1.16, written by Peter Selinger 2001-2019
</metadata>
<g transform="translate(0.000000,36.000000) scale(0.016000,-0.016000)"
fill="#0aa93b" stroke="none">
<path d="M122 1688 c-9 -9 -12 -143 -12 -539 l0 -528 -46 -3 c-54 -3 -77 -26
-55 -52 12 -14 59 -16 397 -16 357 0 384 1 393 18 17 31 -5 52 -54 52 l-45 0
0 340 0 340 729 0 728 0 34 23 c43 29 63 69 55 112 -9 47 -41 83 -84 95 -24 6
-292 10 -749 10 l-713 0 0 68 c0 40 -5 73 -12 80 -17 17 -549 17 -566 0z m508
-103 l0 -45 -49 0 c-32 0 -53 5 -62 16 -41 50 -145 62 -216 26 -82 -43 -118
-161 -76 -249 22 -47 84 -90 139 -99 51 -7 120 14 149 46 13 15 31 20 67 20
l48 0 0 -340 0 -340 -225 0 -225 0 0 505 0 505 225 0 225 0 0 -45z m-179 -68
c58 -39 75 -102 42 -158 -19 -32 -68 -59 -106 -59 -40 0 -90 41 -106 86 -13
37 -12 44 5 80 20 40 70 74 110 74 12 0 36 -10 55 -23z m379 -51 c0 -3 -21
-25 -47 -50 l-48 -46 -77 0 -78 0 0 50 0 50 125 0 c69 0 125 -2 125 -4z m510
-4 c0 -4 -19 -27 -43 -50 l-43 -42 -102 0 c-56 0 -102 3 -102 7 0 4 19 27 42
50 l42 43 103 0 c57 0 103 -4 103 -8z m510 1 c0 -4 -19 -27 -42 -50 l-42 -43
-105 0 -105 0 49 50 49 50 98 0 c54 0 98 -3 98 -7z"/>
<path d="M279 1164 c-9 -11 -10 -20 -2 -32 15 -26 232 -30 250 -6 9 12 9 22 2
35 -9 17 -23 19 -123 19 -91 0 -116 -3 -127 -16z"/>
</g>
</svg>
