<?xml version="1.0" encoding="UTF-8" standalone="no"?>
<svg 
   width="365.03998pt"
   height="319.91998pt"
   viewBox="0 0 365.03998 319.91998"
   version="1.1"
   id="svg303"
   xmlns:xlink="http://www.w3.org/1999/xlink"
   xmlns="http://www.w3.org/2000/svg"
   xmlns:svg="http://www.w3.org/2000/svg" content="%3Cmxfile%20host%3D%22app.diagrams.net%22%20modified%3D%222023-09-23T19%3A16%3A45.863Z%22%20agent%3D%22Mozilla%2F5.0%20(Windows%20NT%2010.0%3B%20Win64%3B%20x64)%20AppleWebKit%2F537.36%20(KHTML%2C%20like%20Gecko)%20Chrome%2F116.0.0.0%20Safari%2F537.36%22%20etag%3D%221ToiTO392pDvt5MXcP8V%22%20version%3D%2221.8.1%22%3E%20%20%20%3Cdiagram%20name%3D%22Page-1%22%20id%3D%22IYJP8yPILb7BMYbv4xPp%22%3E%20%20%20%20%20%3CmxGraphModel%20dx%3D%221050%22%20dy%3D%22566%22%20grid%3D%221%22%20gridSize%3D%2210%22%20guides%3D%221%22%20tooltips%3D%221%22%20connect%3D%221%22%20arrows%3D%221%22%20fold%3D%221%22%20page%3D%220%22%20pageScale%3D%221%22%20pageWidth%3D%22850%22%20pageHeight%3D%221100%22%20math%3D%220%22%20shadow%3D%220%22%3E%20%20%20%20%20%20%20%3Croot%3E%20%20%20%20%20%20%20%20%20%3CmxCell%20id%3D%220%22%20%2F%3E%20%20%20%20%20%20%20%20%20%3CmxCell%20id%3D%221%22%20parent%3D%220%22%20%2F%3E%20%20%20%20%20%20%20%20%20%3CmxCell%20id%3D%22iJnl52I3nTki2smfQTvO-27%22%20value%3D%22%22%20style%3D%22points%3D%5B%5B0.59%2C0%2C0%5D%2C%5B0.87%2C0.015%2C0%5D%2C%5B0.88%2C0.3%2C0%5D%2C%5B0.99%2C0.99%2C0%5D%2C%5B0.5%2C1%2C0%5D%2C%5B0.01%2C0.99%2C0%5D%2C%5B0.075%2C0.5%2C0%5D%2C%5B0.17%2C0.115%2C0%5D%5D%3BverticalLabelPosition%3Dbottom%3Bhtml%3D1%3BverticalAlign%3Dtop%3Baspect%3Dfixed%3Balign%3Dcenter%3BpointerEvents%3D1%3Bshape%3Dmxgraph.cisco19.ip_phone%3BfillColor%3D%2300CC66%3BstrokeColor%3Dnone%3BgradientColor%3D%23006633%3Bshadow%3D1%3BstrokeWidth%3D0%3B%22%20parent%3D%221%22%20vertex%3D%221%22%3E%20%20%20%20%20%20%20%20%20%20%20%3CmxGeometry%20x%3D%22130%22%20y%3D%2250%22%20width%3D%22482.99%22%20height%3D%22420%22%20as%3D%22geometry%22%20%2F%3E%20%20%20%20%20%20%20%20%20%3C%2FmxCell%3E%20%20%20%20%20%20%20%3C%2Froot%3E%20%20%20%20%20%3C%2FmxGraphModel%3E%20%20%20%3C%2Fdiagram%3E%20%3C%2Fmxfile%3E%20">
  <defs
     id="defs289">
    <filter
       id="filter-remove-color"
       x="0"
       y="0"
       width="1"
       height="1">
      <feColorMatrix
         color-interpolation-filters="sRGB"
         values="0 0 0 0 1 0 0 0 0 1 0 0 0 0 1 0 0 0 1 0"
         id="feColorMatrix2" />
    </filter>
    <clipPath
       id="clip-0">
      <path
         clip-rule="nonzero"
         d="M 1 2 L 365 2 L 365 318.4375 L 1 318.4375 Z M 1 2 "
         id="path5" />
    </clipPath>
    <mask
       id="mask-0">
      <g
         filter="url(#filter-remove-color)"
         id="g10">
        <rect
           x="-36.503998"
           y="-31.991998"
           width="438.047976"
           height="383.903976"
           fill="rgb(0%, 0%, 0%)"
           fill-opacity="0.25"
           id="rect8" />
      </g>
    </mask>
    <clipPath
       id="clip-1">
      <path
         clip-rule="nonzero"
         d="M 0.679688 0.398438 L 363.800781 0.398438 L 363.800781 316.238281 L 0.679688 316.238281 Z M 0.679688 0.398438 "
         id="path13" />
    </clipPath>
    <clipPath
       id="clip-2">
      <rect
         x="0"
         y="0"
         width="364"
         height="317"
         id="rect16" />
    </clipPath>
    <g
       id="source-5"
       clip-path="url(#clip-2)">
      <g
         clip-path="url(#clip-1)"
         id="g21">
        <path
           fill-rule="nonzero"
           fill="rgb(0%, 0%, 0%)"
           fill-opacity="1"
           d="M 120.765625 0.628906 C 112.34375 0.628906 105.472656 7.296875 105.472656 15.46875 L 105.472656 147.648438 C 105.472656 155.820313 112.34375 162.492188 120.765625 162.492188 L 304.917969 162.492188 C 313.34375 162.492188 320.207031 155.820313 320.207031 147.648438 L 320.207031 15.46875 C 320.207031 7.296875 313.34375 0.628906 304.917969 0.628906 Z M 120.765625 6.402344 L 304.917969 6.402344 C 310.144531 6.402344 314.25 10.398438 314.25 15.46875 L 314.25 147.648438 C 314.25 152.71875 310.144531 156.714844 304.917969 156.714844 L 120.765625 156.714844 C 115.542969 156.714844 111.429688 152.71875 111.429688 147.648438 L 111.429688 15.46875 C 111.429688 10.398438 115.542969 6.402344 120.765625 6.402344 Z M 212.335938 14.371094 C 207.628906 14.371094 203.8125 18.074219 203.8125 22.648438 C 203.8125 27.214844 207.628906 30.925781 212.335938 30.925781 C 217.046875 30.925781 220.863281 27.214844 220.863281 22.648438 C 220.863281 18.074219 217.046875 14.371094 212.335938 14.371094 Z M 143.25 36.976563 C 136.191406 36.976563 130.503906 42.492188 130.503906 49.339844 L 130.503906 129.65625 C 130.503906 136.511719 136.191406 142.023438 143.25 142.023438 L 282.4375 142.023438 C 289.496094 142.023438 295.183594 136.511719 295.183594 129.65625 L 295.183594 49.339844 C 295.183594 42.492188 289.496094 36.976563 282.4375 36.976563 Z M 62.996094 37.25 C 43.835938 37.25 28.402344 52.222656 28.402344 70.820313 L 28.402344 187.003906 C 24.316406 192.90625 21.109375 200.484375 18.953125 210.074219 C 18.949219 210.105469 18.941406 210.136719 18.933594 210.15625 L 8.058594 266.710938 C 6.609375 273.867188 6.058594 281.101563 8.589844 287.101563 C 11.121094 293.09375 17.308594 297.269531 26.699219 297.269531 L 336.902344 297.269531 C 342.265625 297.269531 346.53125 296.855469 350.039063 295.730469 C 353.546875 294.605469 356.355469 292.582031 358 289.765625 C 361.289063 284.132813 360.351563 276.691406 358.464844 266.09375 L 358.457031 266.078125 L 349.972656 216.007813 L 349.964844 215.980469 C 347.386719 199.785156 341.507813 187.589844 332.207031 179.5 C 322.917969 171.414063 310.390625 167.65625 295.320313 167.738281 L 97.578125 167.738281 L 97.578125 70.820313 C 97.578125 52.222656 82.152344 37.25 62.996094 37.25 Z M 97.578125 173.523438 L 295.320313 173.523438 C 295.324219 173.523438 295.332031 173.523438 295.339844 173.523438 C 309.398438 173.441406 320.222656 176.828125 328.234375 183.804688 C 336.257813 190.78125 341.65625 201.558594 344.089844 216.886719 C 344.089844 216.902344 344.089844 216.910156 344.089844 216.917969 L 352.59375 267.035156 C 352.59375 267.042969 352.59375 267.046875 352.59375 267.054688 C 354.4375 277.429688 354.582031 283.894531 352.816406 286.921875 C 351.9375 288.429688 350.683594 289.4375 348.167969 290.246094 C 345.652344 291.050781 341.925781 291.496094 336.902344 291.496094 L 26.699219 291.496094 C 18.894531 291.496094 15.832031 289.015625 14.09375 284.90625 C 12.367188 280.800781 12.546875 274.46875 13.894531 267.828125 C 13.902344 267.816406 13.902344 267.808594 13.902344 267.800781 L 24.773438 211.277344 C 25.789063 206.792969 27.007813 202.859375 28.402344 199.402344 L 28.402344 222.257813 C 28.402344 240.851563 43.835938 255.828125 62.996094 255.828125 C 82.152344 255.828125 97.578125 240.851563 97.578125 222.257813 Z M 150.933594 191.984375 C 147.410156 191.984375 144.558594 194.753906 144.558594 198.171875 C 144.558594 201.597656 147.410156 204.367188 150.933594 204.367188 L 279.105469 204.367188 C 282.625 204.367188 285.480469 201.597656 285.480469 198.171875 C 285.480469 194.753906 282.625 191.984375 279.105469 191.984375 Z M 168.84375 218.308594 C 165.324219 218.308594 162.46875 221.078125 162.46875 224.496094 C 162.46875 227.921875 165.324219 230.691406 168.84375 230.691406 L 181.824219 230.691406 C 185.34375 230.691406 188.199219 227.921875 188.199219 224.496094 C 188.199219 221.078125 185.34375 218.308594 181.824219 218.308594 Z M 207.71875 218.308594 C 204.195313 218.308594 201.335938 221.078125 201.335938 224.496094 C 201.335938 227.921875 204.195313 230.691406 207.71875 230.691406 L 220.695313 230.691406 C 224.21875 230.691406 227.074219 227.921875 227.074219 224.496094 C 227.074219 221.078125 224.21875 218.308594 220.695313 218.308594 Z M 246.449219 218.308594 C 242.925781 218.308594 240.074219 221.078125 240.074219 224.496094 C 240.074219 227.921875 242.925781 230.691406 246.449219 230.691406 L 259.425781 230.691406 C 262.949219 230.691406 265.804688 227.921875 265.804688 224.496094 C 265.804688 221.078125 262.949219 218.308594 259.425781 218.308594 Z M 164.535156 241.632813 C 161.011719 241.632813 158.15625 244.40625 158.15625 247.820313 C 158.15625 251.238281 161.011719 254.011719 164.535156 254.011719 L 177.503906 254.011719 C 181.027344 254.011719 183.878906 251.238281 183.878906 247.820313 C 183.878906 244.40625 181.027344 241.632813 177.503906 241.632813 Z M 207.71875 241.632813 C 204.195313 241.632813 201.34375 244.40625 201.34375 247.820313 C 201.34375 251.238281 204.195313 254.011719 207.71875 254.011719 L 220.695313 254.011719 C 224.210938 254.011719 227.066406 251.238281 227.066406 247.820313 C 227.066406 244.40625 224.210938 241.632813 220.695313 241.632813 Z M 251.242188 241.632813 C 247.726563 241.632813 244.871094 244.40625 244.871094 247.820313 C 244.871094 251.238281 247.726563 254.011719 251.242188 254.011719 L 264.21875 254.011719 C 267.742188 254.011719 270.59375 251.238281 270.59375 247.820313 C 270.59375 244.40625 267.742188 241.632813 264.21875 241.632813 Z M 159.734375 264.914063 C 156.210938 264.914063 153.359375 267.6875 153.359375 271.105469 C 153.359375 274.519531 156.210938 277.292969 159.734375 277.292969 L 172.714844 277.292969 C 176.234375 277.292969 179.097656 274.519531 179.097656 271.105469 C 179.097656 267.6875 176.234375 264.914063 172.714844 264.914063 Z M 207.800781 264.914063 C 204.269531 264.914063 201.417969 267.6875 201.417969 271.105469 C 201.417969 274.519531 204.269531 277.292969 207.800781 277.292969 L 220.777344 277.292969 C 224.300781 277.292969 227.15625 274.519531 227.15625 271.105469 C 227.15625 267.6875 224.300781 264.914063 220.777344 264.914063 Z M 255.941406 264.914063 C 252.417969 264.914063 249.566406 267.6875 249.566406 271.105469 C 249.566406 274.519531 252.417969 277.292969 255.941406 277.292969 L 268.917969 277.292969 C 272.441406 277.292969 275.304688 274.519531 275.304688 271.105469 C 275.304688 267.6875 272.441406 264.914063 268.917969 264.914063 Z M 0.878906 290.625 L 0.878906 303.886719 C 0.878906 311.539063 7.539063 315.984375 20.410156 315.984375 L 354.621094 316.0625 C 359.773438 314.714844 363.617188 310.203125 363.617188 304.570313 L 363.519531 291.742188 C 361.882813 296.648438 352.839844 303.820313 348.054688 303.820313 L 24.039063 304.710938 C 12.570313 304.710938 4.933594 298.390625 0.878906 290.625 Z M 0.878906 290.625 "
           id="path19" />
      </g>
    </g>
    <clipPath
       id="clip-3">
      <path
         clip-rule="nonzero"
         d="M 0 0 L 364 0 L 364 316 L 0 316 Z M 0 0 "
         id="path24" />
    </clipPath>
    <clipPath
       id="clip-4">
      <path
         clip-rule="nonzero"
         d="M 120.261719 0.375 C 111.84375 0.375 104.972656 7.042969 104.972656 15.214844 L 104.972656 147.398438 C 104.972656 155.566406 111.84375 162.238281 120.261719 162.238281 L 304.414063 162.238281 C 312.839844 162.238281 319.707031 155.566406 319.707031 147.398438 L 319.707031 15.214844 C 319.707031 7.042969 312.839844 0.375 304.414063 0.375 Z M 120.261719 6.152344 L 304.414063 6.152344 C 309.640625 6.152344 313.75 10.144531 313.75 15.214844 L 313.75 147.398438 C 313.75 152.464844 309.640625 156.460938 304.414063 156.460938 L 120.261719 156.460938 C 115.042969 156.460938 110.925781 152.464844 110.925781 147.398438 L 110.925781 15.214844 C 110.925781 10.144531 115.042969 6.152344 120.261719 6.152344 Z M 211.835938 14.121094 C 207.125 14.121094 203.3125 17.820313 203.3125 22.394531 C 203.3125 26.960938 207.125 30.671875 211.835938 30.671875 C 216.542969 30.671875 220.359375 26.960938 220.359375 22.394531 C 220.359375 17.820313 216.542969 14.121094 211.835938 14.121094 Z M 142.75 36.726563 C 135.6875 36.726563 130.003906 42.238281 130.003906 49.085938 L 130.003906 129.402344 C 130.003906 136.257813 135.6875 141.773438 142.75 141.773438 L 281.9375 141.773438 C 288.996094 141.773438 294.679688 136.257813 294.679688 129.402344 L 294.679688 49.085938 C 294.679688 42.238281 288.996094 36.726563 281.9375 36.726563 Z M 62.492188 36.996094 C 43.335938 36.996094 27.902344 51.972656 27.902344 70.566406 L 27.902344 186.75 C 23.816406 192.652344 20.609375 200.230469 18.453125 209.824219 C 18.445313 209.851563 18.4375 209.882813 18.429688 209.90625 L 7.554688 266.457031 C 6.105469 273.613281 5.558594 280.847656 8.089844 286.847656 C 10.621094 292.839844 16.808594 297.015625 26.195313 297.015625 L 336.402344 297.015625 C 341.761719 297.015625 346.027344 296.605469 349.535156 295.476563 C 353.042969 294.351563 355.851563 292.332031 357.496094 289.515625 C 360.785156 283.882813 359.847656 276.4375 357.960938 265.839844 L 357.957031 265.828125 L 349.46875 215.753906 L 349.460938 215.726563 C 346.886719 199.535156 341.003906 187.335938 331.707031 179.246094 C 322.417969 171.160156 309.890625 167.40625 294.816406 167.488281 L 97.078125 167.488281 L 97.078125 70.566406 C 97.078125 51.972656 81.652344 36.996094 62.492188 36.996094 Z M 97.078125 173.269531 L 294.816406 173.269531 C 294.824219 173.269531 294.832031 173.269531 294.839844 173.269531 C 308.898438 173.1875 319.71875 176.574219 327.734375 183.550781 C 335.753906 190.527344 341.15625 201.304688 343.589844 216.632813 C 343.589844 216.648438 343.589844 216.65625 343.589844 216.664063 L 352.089844 266.78125 C 352.089844 266.789063 352.089844 266.796875 352.089844 266.804688 C 353.9375 277.175781 354.078125 283.640625 352.316406 286.667969 C 351.4375 288.175781 350.183594 289.183594 347.667969 289.996094 C 345.148438 290.796875 341.425781 291.242188 336.402344 291.242188 L 26.195313 291.242188 C 18.394531 291.242188 15.328125 288.761719 13.59375 284.65625 C 11.867188 280.546875 12.046875 274.214844 13.390625 267.578125 C 13.398438 267.5625 13.398438 267.554688 13.398438 267.546875 L 24.273438 211.023438 C 25.289063 206.539063 26.503906 202.605469 27.902344 199.148438 L 27.902344 222.003906 C 27.902344 240.597656 43.335938 255.574219 62.492188 255.574219 C 81.652344 255.574219 97.078125 240.597656 97.078125 222.003906 Z M 150.429688 191.730469 C 146.910156 191.730469 144.054688 194.5 144.054688 197.917969 C 144.054688 201.34375 146.910156 204.113281 150.429688 204.113281 L 278.601563 204.113281 C 282.125 204.113281 284.976563 201.34375 284.976563 197.917969 C 284.976563 194.5 282.125 191.730469 278.601563 191.730469 Z M 168.34375 218.054688 C 164.820313 218.054688 161.96875 220.824219 161.96875 224.242188 C 161.96875 227.667969 164.820313 230.4375 168.34375 230.4375 L 181.320313 230.4375 C 184.84375 230.4375 187.695313 227.667969 187.695313 224.242188 C 187.695313 220.824219 184.84375 218.054688 181.320313 218.054688 Z M 207.214844 218.054688 C 203.695313 218.054688 200.832031 220.824219 200.832031 224.242188 C 200.832031 227.667969 203.695313 230.4375 207.214844 230.4375 L 220.195313 230.4375 C 223.714844 230.4375 226.570313 227.667969 226.570313 224.242188 C 226.570313 220.824219 223.714844 218.054688 220.195313 218.054688 Z M 245.945313 218.054688 C 242.425781 218.054688 239.570313 220.824219 239.570313 224.242188 C 239.570313 227.667969 242.425781 230.4375 245.945313 230.4375 L 258.925781 230.4375 C 262.445313 230.4375 265.300781 227.667969 265.300781 224.242188 C 265.300781 220.824219 262.445313 218.054688 258.925781 218.054688 Z M 164.03125 241.378906 C 160.511719 241.378906 157.65625 244.152344 157.65625 247.570313 C 157.65625 250.984375 160.511719 253.757813 164.03125 253.757813 L 177.003906 253.757813 C 180.523438 253.757813 183.378906 250.984375 183.378906 247.570313 C 183.378906 244.152344 180.523438 241.378906 177.003906 241.378906 Z M 207.214844 241.378906 C 203.695313 241.378906 200.839844 244.152344 200.839844 247.570313 C 200.839844 250.984375 203.695313 253.757813 207.214844 253.757813 L 220.195313 253.757813 C 223.707031 253.757813 226.5625 250.984375 226.5625 247.570313 C 226.5625 244.152344 223.707031 241.378906 220.195313 241.378906 Z M 250.738281 241.378906 C 247.222656 241.378906 244.371094 244.152344 244.371094 247.570313 C 244.371094 250.984375 247.222656 253.757813 250.738281 253.757813 L 263.714844 253.757813 C 267.238281 253.757813 270.09375 250.984375 270.09375 247.570313 C 270.09375 244.152344 267.238281 241.378906 263.714844 241.378906 Z M 159.234375 264.664063 C 155.710938 264.664063 152.855469 267.433594 152.855469 270.851563 C 152.855469 274.269531 155.710938 277.039063 159.234375 277.039063 L 172.210938 277.039063 C 175.734375 277.039063 178.59375 274.269531 178.59375 270.851563 C 178.59375 267.433594 175.734375 264.664063 172.210938 264.664063 Z M 207.300781 264.664063 C 203.769531 264.664063 200.914063 267.433594 200.914063 270.851563 C 200.914063 274.269531 203.769531 277.039063 207.300781 277.039063 L 220.277344 277.039063 C 223.800781 277.039063 226.652344 274.269531 226.652344 270.851563 C 226.652344 267.433594 223.800781 264.664063 220.277344 264.664063 Z M 255.441406 264.664063 C 251.917969 264.664063 249.0625 267.433594 249.0625 270.851563 C 249.0625 274.269531 251.917969 277.039063 255.441406 277.039063 L 268.417969 277.039063 C 271.941406 277.039063 274.800781 274.269531 274.800781 270.851563 C 274.800781 267.433594 271.941406 264.664063 268.417969 264.664063 Z M 0.375 290.371094 L 0.375 303.632813 C 0.375 311.285156 7.039063 315.734375 19.910156 315.734375 L 354.117188 315.808594 C 359.269531 314.464844 363.113281 309.949219 363.113281 304.316406 L 363.015625 291.488281 C 361.378906 296.394531 352.335938 303.566406 347.554688 303.566406 L 23.539063 304.460938 C 12.070313 304.460938 4.429688 298.136719 0.375 290.371094 Z M 0.375 290.371094 "
         id="path27" />
    </clipPath>
    <linearGradient
       id="linear-pattern-0"
       gradientUnits="userSpaceOnUse"
       x1="0"
       y1="-0.0000000177675"
       x2="0"
       y2="1"
       gradientTransform="matrix(362.73941, 0, 0, 315.4321, 0.375514, 0.37552)">
      <stop
         offset="0"
         stop-color="rgb(0%, 79.998779%, 39.99939%)"
         stop-opacity="1"
         id="stop30" />
      <stop
         offset="0.0078125"
         stop-color="rgb(0%, 79.84314%, 39.92157%)"
         stop-opacity="1"
         id="stop32" />
      <stop
         offset="0.015625"
         stop-color="rgb(0%, 79.530334%, 39.764404%)"
         stop-opacity="1"
         id="stop34" />
      <stop
         offset="0.0234375"
         stop-color="rgb(0%, 79.217529%, 39.608765%)"
         stop-opacity="1"
         id="stop36" />
      <stop
         offset="0.03125"
         stop-color="rgb(0%, 78.904724%, 39.451599%)"
         stop-opacity="1"
         id="stop38" />
      <stop
         offset="0.0390625"
         stop-color="rgb(0%, 78.591919%, 39.295959%)"
         stop-opacity="1"
         id="stop40" />
      <stop
         offset="0.046875"
         stop-color="rgb(0%, 78.28064%, 39.14032%)"
         stop-opacity="1"
         id="stop42" />
      <stop
         offset="0.0546875"
         stop-color="rgb(0%, 77.967834%, 38.983154%)"
         stop-opacity="1"
         id="stop44" />
      <stop
         offset="0.0625"
         stop-color="rgb(0%, 77.655029%, 38.827515%)"
         stop-opacity="1"
         id="stop46" />
      <stop
         offset="0.0703125"
         stop-color="rgb(0%, 77.342224%, 38.670349%)"
         stop-opacity="1"
         id="stop48" />
      <stop
         offset="0.078125"
         stop-color="rgb(0%, 77.029419%, 38.514709%)"
         stop-opacity="1"
         id="stop50" />
      <stop
         offset="0.0859375"
         stop-color="rgb(0%, 76.71814%, 38.35907%)"
         stop-opacity="1"
         id="stop52" />
      <stop
         offset="0.09375"
         stop-color="rgb(0%, 76.405334%, 38.201904%)"
         stop-opacity="1"
         id="stop54" />
      <stop
         offset="0.101563"
         stop-color="rgb(0%, 76.092529%, 38.046265%)"
         stop-opacity="1"
         id="stop56" />
      <stop
         offset="0.109375"
         stop-color="rgb(0%, 75.779724%, 37.889099%)"
         stop-opacity="1"
         id="stop58" />
      <stop
         offset="0.117188"
         stop-color="rgb(0%, 75.466919%, 37.733459%)"
         stop-opacity="1"
         id="stop60" />
      <stop
         offset="0.125"
         stop-color="rgb(0%, 75.15564%, 37.57782%)"
         stop-opacity="1"
         id="stop62" />
      <stop
         offset="0.132813"
         stop-color="rgb(0%, 74.842834%, 37.420654%)"
         stop-opacity="1"
         id="stop64" />
      <stop
         offset="0.140625"
         stop-color="rgb(0%, 74.530029%, 37.265015%)"
         stop-opacity="1"
         id="stop66" />
      <stop
         offset="0.148438"
         stop-color="rgb(0%, 74.217224%, 37.107849%)"
         stop-opacity="1"
         id="stop68" />
      <stop
         offset="0.15625"
         stop-color="rgb(0%, 73.904419%, 36.952209%)"
         stop-opacity="1"
         id="stop70" />
      <stop
         offset="0.164063"
         stop-color="rgb(0%, 73.59314%, 36.79657%)"
         stop-opacity="1"
         id="stop72" />
      <stop
         offset="0.171875"
         stop-color="rgb(0%, 73.280334%, 36.639404%)"
         stop-opacity="1"
         id="stop74" />
      <stop
         offset="0.179688"
         stop-color="rgb(0%, 72.967529%, 36.483765%)"
         stop-opacity="1"
         id="stop76" />
      <stop
         offset="0.1875"
         stop-color="rgb(0%, 72.654724%, 36.326599%)"
         stop-opacity="1"
         id="stop78" />
      <stop
         offset="0.195313"
         stop-color="rgb(0%, 72.341919%, 36.170959%)"
         stop-opacity="1"
         id="stop80" />
      <stop
         offset="0.203125"
         stop-color="rgb(0%, 72.03064%, 36.01532%)"
         stop-opacity="1"
         id="stop82" />
      <stop
         offset="0.210938"
         stop-color="rgb(0%, 71.717834%, 35.858154%)"
         stop-opacity="1"
         id="stop84" />
      <stop
         offset="0.21875"
         stop-color="rgb(0%, 71.405029%, 35.702515%)"
         stop-opacity="1"
         id="stop86" />
      <stop
         offset="0.226563"
         stop-color="rgb(0%, 71.092224%, 35.545349%)"
         stop-opacity="1"
         id="stop88" />
      <stop
         offset="0.234375"
         stop-color="rgb(0%, 70.779419%, 35.389709%)"
         stop-opacity="1"
         id="stop90" />
      <stop
         offset="0.242188"
         stop-color="rgb(0%, 70.46814%, 35.23407%)"
         stop-opacity="1"
         id="stop92" />
      <stop
         offset="0.25"
         stop-color="rgb(0%, 70.155334%, 35.076904%)"
         stop-opacity="1"
         id="stop94" />
      <stop
         offset="0.257813"
         stop-color="rgb(0%, 69.842529%, 34.921265%)"
         stop-opacity="1"
         id="stop96" />
      <stop
         offset="0.265625"
         stop-color="rgb(0%, 69.529724%, 34.764099%)"
         stop-opacity="1"
         id="stop98" />
      <stop
         offset="0.273438"
         stop-color="rgb(0%, 69.216919%, 34.608459%)"
         stop-opacity="1"
         id="stop100" />
      <stop
         offset="0.28125"
         stop-color="rgb(0%, 68.90564%, 34.45282%)"
         stop-opacity="1"
         id="stop102" />
      <stop
         offset="0.289063"
         stop-color="rgb(0%, 68.592834%, 34.295654%)"
         stop-opacity="1"
         id="stop104" />
      <stop
         offset="0.296875"
         stop-color="rgb(0%, 68.280029%, 34.140015%)"
         stop-opacity="1"
         id="stop106" />
      <stop
         offset="0.304688"
         stop-color="rgb(0%, 67.967224%, 33.982849%)"
         stop-opacity="1"
         id="stop108" />
      <stop
         offset="0.3125"
         stop-color="rgb(0%, 67.654419%, 33.827209%)"
         stop-opacity="1"
         id="stop110" />
      <stop
         offset="0.320313"
         stop-color="rgb(0%, 67.34314%, 33.67157%)"
         stop-opacity="1"
         id="stop112" />
      <stop
         offset="0.328125"
         stop-color="rgb(0%, 67.030334%, 33.514404%)"
         stop-opacity="1"
         id="stop114" />
      <stop
         offset="0.335938"
         stop-color="rgb(0%, 66.717529%, 33.358765%)"
         stop-opacity="1"
         id="stop116" />
      <stop
         offset="0.34375"
         stop-color="rgb(0%, 66.404724%, 33.201599%)"
         stop-opacity="1"
         id="stop118" />
      <stop
         offset="0.351563"
         stop-color="rgb(0%, 66.091919%, 33.045959%)"
         stop-opacity="1"
         id="stop120" />
      <stop
         offset="0.359375"
         stop-color="rgb(0%, 65.78064%, 32.89032%)"
         stop-opacity="1"
         id="stop122" />
      <stop
         offset="0.367188"
         stop-color="rgb(0%, 65.467834%, 32.733154%)"
         stop-opacity="1"
         id="stop124" />
      <stop
         offset="0.375"
         stop-color="rgb(0%, 65.155029%, 32.577515%)"
         stop-opacity="1"
         id="stop126" />
      <stop
         offset="0.382813"
         stop-color="rgb(0%, 64.842224%, 32.420349%)"
         stop-opacity="1"
         id="stop128" />
      <stop
         offset="0.390625"
         stop-color="rgb(0%, 64.529419%, 32.264709%)"
         stop-opacity="1"
         id="stop130" />
      <stop
         offset="0.398438"
         stop-color="rgb(0%, 64.21814%, 32.10907%)"
         stop-opacity="1"
         id="stop132" />
      <stop
         offset="0.40625"
         stop-color="rgb(0%, 63.905334%, 31.951904%)"
         stop-opacity="1"
         id="stop134" />
      <stop
         offset="0.414063"
         stop-color="rgb(0%, 63.592529%, 31.796265%)"
         stop-opacity="1"
         id="stop136" />
      <stop
         offset="0.421875"
         stop-color="rgb(0%, 63.279724%, 31.639099%)"
         stop-opacity="1"
         id="stop138" />
      <stop
         offset="0.429688"
         stop-color="rgb(0%, 62.966919%, 31.483459%)"
         stop-opacity="1"
         id="stop140" />
      <stop
         offset="0.4375"
         stop-color="rgb(0%, 62.65564%, 31.32782%)"
         stop-opacity="1"
         id="stop142" />
      <stop
         offset="0.445313"
         stop-color="rgb(0%, 62.342834%, 31.170654%)"
         stop-opacity="1"
         id="stop144" />
      <stop
         offset="0.453125"
         stop-color="rgb(0%, 62.030029%, 31.015015%)"
         stop-opacity="1"
         id="stop146" />
      <stop
         offset="0.460938"
         stop-color="rgb(0%, 61.717224%, 30.857849%)"
         stop-opacity="1"
         id="stop148" />
      <stop
         offset="0.46875"
         stop-color="rgb(0%, 61.404419%, 30.702209%)"
         stop-opacity="1"
         id="stop150" />
      <stop
         offset="0.476563"
         stop-color="rgb(0%, 61.09314%, 30.54657%)"
         stop-opacity="1"
         id="stop152" />
      <stop
         offset="0.484375"
         stop-color="rgb(0%, 60.780334%, 30.389404%)"
         stop-opacity="1"
         id="stop154" />
      <stop
         offset="0.492188"
         stop-color="rgb(0%, 60.467529%, 30.233765%)"
         stop-opacity="1"
         id="stop156" />
      <stop
         offset="0.5"
         stop-color="rgb(0%, 60.154724%, 30.076599%)"
         stop-opacity="1"
         id="stop158" />
      <stop
         offset="0.507813"
         stop-color="rgb(0%, 59.841919%, 29.920959%)"
         stop-opacity="1"
         id="stop160" />
      <stop
         offset="0.515625"
         stop-color="rgb(0%, 59.53064%, 29.76532%)"
         stop-opacity="1"
         id="stop162" />
      <stop
         offset="0.523438"
         stop-color="rgb(0%, 59.217834%, 29.608154%)"
         stop-opacity="1"
         id="stop164" />
      <stop
         offset="0.53125"
         stop-color="rgb(0%, 58.905029%, 29.452515%)"
         stop-opacity="1"
         id="stop166" />
      <stop
         offset="0.539063"
         stop-color="rgb(0%, 58.592224%, 29.295349%)"
         stop-opacity="1"
         id="stop168" />
      <stop
         offset="0.546875"
         stop-color="rgb(0%, 58.279419%, 29.139709%)"
         stop-opacity="1"
         id="stop170" />
      <stop
         offset="0.554688"
         stop-color="rgb(0%, 57.96814%, 28.98407%)"
         stop-opacity="1"
         id="stop172" />
      <stop
         offset="0.5625"
         stop-color="rgb(0%, 57.655334%, 28.826904%)"
         stop-opacity="1"
         id="stop174" />
      <stop
         offset="0.570313"
         stop-color="rgb(0%, 57.342529%, 28.671265%)"
         stop-opacity="1"
         id="stop176" />
      <stop
         offset="0.578125"
         stop-color="rgb(0%, 57.029724%, 28.514099%)"
         stop-opacity="1"
         id="stop178" />
      <stop
         offset="0.585938"
         stop-color="rgb(0%, 56.716919%, 28.358459%)"
         stop-opacity="1"
         id="stop180" />
      <stop
         offset="0.59375"
         stop-color="rgb(0%, 56.40564%, 28.20282%)"
         stop-opacity="1"
         id="stop182" />
      <stop
         offset="0.601563"
         stop-color="rgb(0%, 56.092834%, 28.045654%)"
         stop-opacity="1"
         id="stop184" />
      <stop
         offset="0.609375"
         stop-color="rgb(0%, 55.780029%, 27.890015%)"
         stop-opacity="1"
         id="stop186" />
      <stop
         offset="0.617188"
         stop-color="rgb(0%, 55.467224%, 27.732849%)"
         stop-opacity="1"
         id="stop188" />
      <stop
         offset="0.625"
         stop-color="rgb(0%, 55.154419%, 27.577209%)"
         stop-opacity="1"
         id="stop190" />
      <stop
         offset="0.632813"
         stop-color="rgb(0%, 54.84314%, 27.42157%)"
         stop-opacity="1"
         id="stop192" />
      <stop
         offset="0.640625"
         stop-color="rgb(0%, 54.530334%, 27.264404%)"
         stop-opacity="1"
         id="stop194" />
      <stop
         offset="0.648438"
         stop-color="rgb(0%, 54.217529%, 27.108765%)"
         stop-opacity="1"
         id="stop196" />
      <stop
         offset="0.65625"
         stop-color="rgb(0%, 53.904724%, 26.951599%)"
         stop-opacity="1"
         id="stop198" />
      <stop
         offset="0.664063"
         stop-color="rgb(0%, 53.591919%, 26.795959%)"
         stop-opacity="1"
         id="stop200" />
      <stop
         offset="0.671875"
         stop-color="rgb(0%, 53.28064%, 26.64032%)"
         stop-opacity="1"
         id="stop202" />
      <stop
         offset="0.679688"
         stop-color="rgb(0%, 52.967834%, 26.483154%)"
         stop-opacity="1"
         id="stop204" />
      <stop
         offset="0.6875"
         stop-color="rgb(0%, 52.655029%, 26.327515%)"
         stop-opacity="1"
         id="stop206" />
      <stop
         offset="0.695313"
         stop-color="rgb(0%, 52.342224%, 26.170349%)"
         stop-opacity="1"
         id="stop208" />
      <stop
         offset="0.703125"
         stop-color="rgb(0%, 52.029419%, 26.014709%)"
         stop-opacity="1"
         id="stop210" />
      <stop
         offset="0.710938"
         stop-color="rgb(0%, 51.71814%, 25.85907%)"
         stop-opacity="1"
         id="stop212" />
      <stop
         offset="0.71875"
         stop-color="rgb(0%, 51.405334%, 25.701904%)"
         stop-opacity="1"
         id="stop214" />
      <stop
         offset="0.726563"
         stop-color="rgb(0%, 51.092529%, 25.546265%)"
         stop-opacity="1"
         id="stop216" />
      <stop
         offset="0.734375"
         stop-color="rgb(0%, 50.779724%, 25.389099%)"
         stop-opacity="1"
         id="stop218" />
      <stop
         offset="0.742188"
         stop-color="rgb(0%, 50.466919%, 25.233459%)"
         stop-opacity="1"
         id="stop220" />
      <stop
         offset="0.75"
         stop-color="rgb(0%, 50.15564%, 25.07782%)"
         stop-opacity="1"
         id="stop222" />
      <stop
         offset="0.757813"
         stop-color="rgb(0%, 49.842834%, 24.920654%)"
         stop-opacity="1"
         id="stop224" />
      <stop
         offset="0.765625"
         stop-color="rgb(0%, 49.530029%, 24.765015%)"
         stop-opacity="1"
         id="stop226" />
      <stop
         offset="0.773438"
         stop-color="rgb(0%, 49.217224%, 24.607849%)"
         stop-opacity="1"
         id="stop228" />
      <stop
         offset="0.78125"
         stop-color="rgb(0%, 48.904419%, 24.452209%)"
         stop-opacity="1"
         id="stop230" />
      <stop
         offset="0.789063"
         stop-color="rgb(0%, 48.59314%, 24.29657%)"
         stop-opacity="1"
         id="stop232" />
      <stop
         offset="0.796875"
         stop-color="rgb(0%, 48.280334%, 24.139404%)"
         stop-opacity="1"
         id="stop234" />
      <stop
         offset="0.804688"
         stop-color="rgb(0%, 47.967529%, 23.983765%)"
         stop-opacity="1"
         id="stop236" />
      <stop
         offset="0.8125"
         stop-color="rgb(0%, 47.654724%, 23.826599%)"
         stop-opacity="1"
         id="stop238" />
      <stop
         offset="0.820313"
         stop-color="rgb(0%, 47.341919%, 23.670959%)"
         stop-opacity="1"
         id="stop240" />
      <stop
         offset="0.828125"
         stop-color="rgb(0%, 47.03064%, 23.51532%)"
         stop-opacity="1"
         id="stop242" />
      <stop
         offset="0.835938"
         stop-color="rgb(0%, 46.717834%, 23.358154%)"
         stop-opacity="1"
         id="stop244" />
      <stop
         offset="0.84375"
         stop-color="rgb(0%, 46.405029%, 23.202515%)"
         stop-opacity="1"
         id="stop246" />
      <stop
         offset="0.851563"
         stop-color="rgb(0%, 46.092224%, 23.045349%)"
         stop-opacity="1"
         id="stop248" />
      <stop
         offset="0.859375"
         stop-color="rgb(0%, 45.779419%, 22.889709%)"
         stop-opacity="1"
         id="stop250" />
      <stop
         offset="0.867188"
         stop-color="rgb(0%, 45.46814%, 22.73407%)"
         stop-opacity="1"
         id="stop252" />
      <stop
         offset="0.875"
         stop-color="rgb(0%, 45.155334%, 22.576904%)"
         stop-opacity="1"
         id="stop254" />
      <stop
         offset="0.882813"
         stop-color="rgb(0%, 44.842529%, 22.421265%)"
         stop-opacity="1"
         id="stop256" />
      <stop
         offset="0.890625"
         stop-color="rgb(0%, 44.529724%, 22.264099%)"
         stop-opacity="1"
         id="stop258" />
      <stop
         offset="0.898438"
         stop-color="rgb(0%, 44.216919%, 22.108459%)"
         stop-opacity="1"
         id="stop260" />
      <stop
         offset="0.90625"
         stop-color="rgb(0%, 43.90564%, 21.95282%)"
         stop-opacity="1"
         id="stop262" />
      <stop
         offset="0.914063"
         stop-color="rgb(0%, 43.592834%, 21.795654%)"
         stop-opacity="1"
         id="stop264" />
      <stop
         offset="0.921875"
         stop-color="rgb(0%, 43.280029%, 21.640015%)"
         stop-opacity="1"
         id="stop266" />
      <stop
         offset="0.929688"
         stop-color="rgb(0%, 42.967224%, 21.482849%)"
         stop-opacity="1"
         id="stop268" />
      <stop
         offset="0.9375"
         stop-color="rgb(0%, 42.654419%, 21.327209%)"
         stop-opacity="1"
         id="stop270" />
      <stop
         offset="0.945313"
         stop-color="rgb(0%, 42.34314%, 21.17157%)"
         stop-opacity="1"
         id="stop272" />
      <stop
         offset="0.953125"
         stop-color="rgb(0%, 42.030334%, 21.014404%)"
         stop-opacity="1"
         id="stop274" />
      <stop
         offset="0.960938"
         stop-color="rgb(0%, 41.717529%, 20.858765%)"
         stop-opacity="1"
         id="stop276" />
      <stop
         offset="0.96875"
         stop-color="rgb(0%, 41.404724%, 20.701599%)"
         stop-opacity="1"
         id="stop278" />
      <stop
         offset="0.976563"
         stop-color="rgb(0%, 41.091919%, 20.545959%)"
         stop-opacity="1"
         id="stop280" />
      <stop
         offset="0.984375"
         stop-color="rgb(0%, 40.78064%, 20.39032%)"
         stop-opacity="1"
         id="stop282" />
      <stop
         offset="0.992188"
         stop-color="rgb(0%, 40.467834%, 20.233154%)"
         stop-opacity="1"
         id="stop284" />
      <stop
         offset="1"
         stop-color="rgb(0%, 40.155029%, 20.077515%)"
         stop-opacity="1"
         id="stop286" />
    </linearGradient>
  </defs>
  <g
     clip-path="url(#clip-0)"
     id="g295">
    <g
       mask="url(#mask-0)"
       id="g293">
      <use
         xlink:href="#source-5"
         transform="translate(1,2)"
         id="use291" />
    </g>
  </g>
  <g
     clip-path="url(#clip-3)"
     id="g301">
    <g
       clip-path="url(#clip-4)"
       id="g299">
      <path
         fill-rule="nonzero"
         fill="url(#linear-pattern-0)"
         d="M 0.375,0.375 V 315.80859 H 363.11328 V 0.375 Z m 0,0"
         id="path297" />
    </g>
  </g>
</svg>
