<?xml version="1.0" encoding="UTF-8" standalone="no"?>
<svg 
   width="844.07996pt"
   height="679.91998pt"
   viewBox="0 0 844.07996 679.91998"
   version="1.1"
   id="svg13"
   xmlns="http://www.w3.org/2000/svg"
   xmlns:svg="http://www.w3.org/2000/svg" content="%3Cmxfile%20host%3D%22app.diagrams.net%22%20modified%3D%222023-09-23T16%3A34%3A19.456Z%22%20agent%3D%22Mozilla%2F5.0%20(Windows%20NT%2010.0%3B%20Win64%3B%20x64)%20AppleWebKit%2F537.36%20(KHTML%2C%20like%20Gecko)%20Chrome%2F116.0.0.0%20Safari%2F537.36%22%20etag%3D%22So1kDPjv_puZ5yJQj6cL%22%20version%3D%2221.8.1%22%20type%3D%22device%22%3E%20%20%20%3Cdiagram%20name%3D%22Page-1%22%20id%3D%22IYJP8yPILb7BMYbv4xPp%22%3E%20%20%20%20%20%3CmxGraphModel%20dx%3D%22700%22%20dy%3D%22377%22%20grid%3D%221%22%20gridSize%3D%2210%22%20guides%3D%221%22%20tooltips%3D%221%22%20connect%3D%221%22%20arrows%3D%221%22%20fold%3D%221%22%20page%3D%220%22%20pageScale%3D%221%22%20pageWidth%3D%22850%22%20pageHeight%3D%221100%22%20math%3D%220%22%20shadow%3D%220%22%3E%20%20%20%20%20%20%20%3Croot%3E%20%20%20%20%20%20%20%20%20%3CmxCell%20id%3D%220%22%20%2F%3E%20%20%20%20%20%20%20%20%20%3CmxCell%20id%3D%221%22%20parent%3D%220%22%20%2F%3E%20%20%20%20%20%20%20%20%20%3CmxCell%20id%3D%22iJnl52I3nTki2smfQTvO-19%22%20value%3D%22%22%20style%3D%22fontColor%3D%230066CC%3BverticalAlign%3Dtop%3BverticalLabelPosition%3Dbottom%3BlabelPosition%3Dcenter%3Balign%3Dcenter%3Bhtml%3D1%3BoutlineConnect%3D0%3BfillColor%3D%23CCCCCC%3BstrokeColor%3D%236881B3%3BgradientColor%3Dnone%3BgradientDirection%3Dnorth%3BstrokeWidth%3D2%3Bshape%3Dmxgraph.networks.security_camera%3B%22%20vertex%3D%221%22%20parent%3D%221%22%3E%20%20%20%20%20%20%20%20%20%20%20%3CmxGeometry%20x%3D%22150%22%20y%3D%22310%22%20width%3D%22560%22%20height%3D%22450%22%20as%3D%22geometry%22%20%2F%3E%20%20%20%20%20%20%20%20%20%3C%2FmxCell%3E%20%20%20%20%20%20%20%3C%2Froot%3E%20%20%20%20%20%3C%2FmxGraphModel%3E%20%20%20%3C%2Fdiagram%3E%20%3C%2Fmxfile%3E%20">
  <defs
     id="defs5">
    <clipPath
       id="clip-0">
      <path
         clip-rule="nonzero"
         d="M 0 0 L 844 0 L 844 678.949219 L 0 678.949219 Z M 0 0 "
         id="path2" />
    </clipPath>
  </defs>
  <path
     fill-rule="nonzero"
     fill="rgb(79.998779%, 79.998779%, 79.998779%)"
     fill-opacity="1"
     d="M 1.5 337.496094 L 1.5 676.699219 L 45.035156 676.699219 C 69.082031 676.699219 88.570313 655.613281 88.570313 629.585938 L 88.570313 535.367188 L 306.253906 535.367188 L 393.328125 394.03125 L 654.546875 582.480469 L 713.753906 488.253906 L 637.125 525.941406 L 175.640625 193.339844 L 156.488281 222.546875 L 351.53125 363.878906 L 280.132813 478.828125 L 88.570313 478.828125 L 88.570313 384.609375 C 88.570313 358.589844 69.082031 337.496094 45.035156 337.496094 Z M 164.328125 128.324219 L 639.746094 475.0625 L 811.273438 394.03125 L 288.84375 17.140625 C 269.605469 1.53125 242.3125 5.746094 227.886719 26.566406 Z M 789.503906 450.570313 L 705.914063 590.011719 L 757.289063 626.765625 L 841.75 488.253906 Z M 789.503906 450.570313 "
     id="path7" />
  <g
     clip-path="url(#clip-0)"
     id="g11">
    <path
       fill="none"
       stroke-width="23.21"
       stroke-linecap="butt"
       stroke-linejoin="miter"
       stroke="#6881b3"
       stroke-opacity="1"
       stroke-miterlimit="10"
       d="m 1.999408,449.86154 v 452.1369 h 58.029686 c 32.053005,0 58.029686,-28.10626 58.029686,-62.79911 V 713.61153 H 408.21762 L 524.2822,525.21942 872.47073,776.41064 951.39006,650.81243 849.24844,701.04755 234.11815,257.71012 208.58925,296.6413 468.56954,485.0282 373.39981,638.24844 H 118.05878 v -125.5878 c 0,-34.68243 -25.976681,-62.7991 -58.029686,-62.7991 z M 219.03928,171.04829 852.7422,633.2291 1081.3776,525.21942 385.01095,22.847399 C 359.36751,2.041062 322.98766,7.65919 303.75898,35.411386 Z m 833.32092,429.53423 -111.42017,185.86681 68.47967,48.9907 112.5813,-184.6276 z m 0,0"
       transform="scale(0.750222)"
       id="path9" />
  </g>
</svg>
