<?xml version="1.0" standalone="no"?>
<!DOCTYPE svg PUBLIC "-//W3C//DTD SVG 20010904//EN"
 "http://www.w3.org/TR/2001/REC-SVG-20010904/DTD/svg10.dtd">
<svg version="1.0" xmlns="http://www.w3.org/2000/svg"
 width="225.000000pt" height="225.000000pt" viewBox="0 0 225.000000 225.000000"
 preserveAspectRatio="xMidYMid meet">
<metadata>
Created by potrace 1.16, written by Peter Selinger 2001-2019
</metadata>
<g transform="translate(0.000000,225.000000) scale(0.100000,-0.100000)"
fill="#000000" stroke="none">
<path d="M338 2083 c-9 -10 -26 -50 -38 -89 -25 -76 -22 -117 8 -133 9 -5 323
-106 697 -225 374 -119 728 -233 787 -252 l108 -35 2 -579 c3 -552 4 -579 22
-599 18 -19 30 -21 152 -21 132 0 133 0 153 27 21 26 21 29 19 699 -3 628 -4
674 -21 691 -13 14 -41 19 -130 24 l-112 6 -786 251 c-432 139 -800 252 -816
252 -16 0 -37 -8 -45 -17z"/>
<path d="M363 1445 c-62 -31 -74 -48 -133 -190 -51 -122 -41 -114 -141 -100
-42 7 -48 5 -67 -20 -50 -64 -14 -184 56 -185 27 0 26 6 2 -64 -32 -93 -42
-208 -38 -442 4 -279 7 -284 154 -284 122 0 154 30 154 146 l0 54 515 0 515 0
0 -71 c0 -65 2 -73 30 -101 30 -30 31 -30 126 -26 91 3 97 4 121 32 l24 29 -3
286 c-4 230 -8 297 -21 341 -32 105 -31 100 -9 100 12 0 33 11 49 24 24 21 27
31 28 84 0 46 -5 65 -20 82 -20 22 -50 23 -136 4 -24 -5 -27 0 -78 120 -57
136 -89 176 -158 195 -24 7 -202 11 -479 11 l-440 0 -51 -25z m922 -61 c44
-21 49 -29 133 -237 59 -144 71 -181 62 -197 -11 -20 -21 -20 -617 -18 -561 3
-607 4 -617 20 -8 14 5 55 63 200 41 101 81 191 90 202 37 43 57 45 464 46
335 0 394 -2 422 -16z m-754 -654 c16 -9 19 -22 19 -95 0 -73 -3 -86 -19 -95
-26 -13 -266 -13 -292 0 -16 9 -19 22 -19 95 0 69 3 86 18 94 23 14 268 14
293 1z m957 -6 c19 -13 22 -24 22 -89 0 -104 -6 -108 -185 -103 -107 2 -138 6
-145 18 -17 26 -12 156 6 174 23 23 269 23 302 0z"/>
</g>
</svg>
