<?xml version="1.0" standalone="no"?>
<!DOCTYPE svg PUBLIC "-//W3C//DTD SVG 20010904//EN"
 "http://www.w3.org/TR/2001/REC-SVG-20010904/DTD/svg10.dtd">
<svg version="1.0" xmlns="http://www.w3.org/2000/svg"
 width="512.000000pt" height="512.000000pt" viewBox="0 0 512.000000 512.000000"
 preserveAspectRatio="xMidYMid meet">
<metadata>
Created by potrace 1.16, written by Peter Selinger 2001-2019
</metadata>
<g transform="translate(0.000000,512.000000) scale(0.100000,-0.100000)"
fill="#000000" stroke="none">
<path d="M203 4958 c-174 -172 -196 -198 -191 -231 3 -19 32 5 192 163 103
102 192 193 197 203 8 14 5 17 -17 17 -21 0 -60 -33 -181 -152z"/>
<path d="M303 4858 c-140 -139 -264 -265 -275 -281 -10 -15 -18 -37 -16 -50 3
-18 49 23 292 263 158 157 292 293 297 303 8 14 5 17 -17 17 -22 0 -75 -47
-281 -252z"/>
<path d="M402 4758 c-194 -194 -362 -365 -373 -381 -11 -15 -19 -37 -17 -50 4
-18 67 40 392 363 213 212 392 393 397 403 8 14 5 17 -18 17 -22 0 -89 -62
-381 -352z"/>
<path d="M502 4658 c-249 -249 -462 -465 -473 -481 -11 -15 -19 -37 -17 -50 4
-18 84 57 492 463 268 267 492 493 497 503 8 14 5 17 -18 17 -22 0 -104 -76
-481 -452z"/>
<path d="M602 4558 c-304 -304 -562 -565 -573 -581 -11 -15 -19 -37 -17 -50 4
-18 101 75 592 563 323 322 592 593 597 603 8 14 5 17 -18 17 -23 0 -118 -91
-581 -552z"/>
<path d="M702 4458 c-359 -359 -662 -665 -673 -681 -11 -15 -19 -37 -17 -50 4
-18 118 92 692 663 378 377 692 693 697 703 8 14 5 17 -18 17 -23 0 -133 -106
-681 -652z"/>
<path d="M1136 4691 c-365 -363 -428 -421 -470 -437 -58 -21 -177 -97 -235
-149 -60 -54 -135 -161 -177 -251 -31 -65 -56 -98 -141 -186 -76 -79 -103
-113 -103 -132 0 -14 3 -26 6 -26 4 0 45 37 91 83 78 75 85 79 80 52 -3 -16
-9 -50 -13 -75 -5 -39 -18 -57 -85 -127 -56 -59 -79 -90 -79 -108 0 -14 3 -25
6 -25 3 0 39 32 80 72 l74 71 0 -63 0 -63 -80 -83 c-57 -59 -80 -91 -80 -109
0 -14 3 -25 6 -25 3 0 39 32 80 72 l74 71 0 -63 0 -63 -80 -83 c-57 -59 -80
-91 -80 -109 0 -14 3 -25 6 -25 3 0 39 32 80 72 l74 71 0 -63 0 -63 -80 -83
c-57 -59 -80 -91 -80 -109 0 -14 3 -25 6 -25 3 0 39 32 80 72 l74 71 0 -63 0
-63 -80 -83 c-57 -59 -80 -91 -80 -109 0 -14 3 -25 6 -25 3 0 39 32 80 72 l74
71 0 -63 0 -63 -80 -83 c-57 -59 -80 -91 -80 -109 0 -14 3 -25 6 -25 3 0 39
32 80 72 l74 71 0 -63 0 -63 -80 -83 c-57 -59 -80 -91 -80 -109 0 -14 3 -25 6
-25 3 0 39 32 80 72 l74 71 0 -63 0 -63 -80 -83 c-57 -59 -80 -91 -80 -109 0
-14 3 -25 6 -25 3 0 39 32 80 72 l74 71 0 -63 0 -63 -80 -83 c-57 -59 -80 -91
-80 -109 0 -14 3 -25 6 -25 3 0 39 32 80 72 l74 71 0 -63 0 -63 -80 -83 c-57
-59 -80 -91 -80 -109 0 -14 3 -25 6 -25 3 0 39 32 80 72 l74 71 0 -63 0 -63
-80 -83 c-57 -59 -80 -91 -80 -109 0 -14 3 -25 6 -25 3 0 39 32 80 72 l74 71
0 -63 0 -63 -80 -83 c-57 -59 -80 -91 -80 -109 0 -14 3 -25 6 -25 3 0 39 32
80 72 l74 71 0 -63 0 -63 -80 -83 c-57 -59 -80 -91 -80 -109 0 -14 3 -25 6
-25 3 0 39 32 80 72 l74 71 0 -63 0 -63 -80 -83 c-57 -59 -80 -91 -80 -109 0
-14 3 -25 6 -25 4 0 41 34 84 76 71 68 79 74 85 54 4 -13 18 -23 36 -27 30 -6
29 -6 -91 -128 -92 -94 -120 -129 -120 -149 0 -39 15 -28 175 133 l140 141 64
0 65 0 -222 -223 c-179 -181 -222 -229 -222 -251 0 -22 3 -25 18 -17 9 5 125
118 257 250 l240 241 65 0 64 0 -322 -323 c-265 -266 -322 -328 -322 -351 0
-22 3 -25 18 -17 9 5 170 163 357 350 l340 341 65 0 65 0 -398 -398 c-218
-219 -397 -401 -397 -405 0 -4 12 -7 27 -7 22 0 99 72 433 405 l406 405 64 0
65 0 -398 -398 c-218 -219 -397 -401 -397 -405 0 -4 12 -7 27 -7 22 0 99 72
433 405 l406 405 64 0 65 0 -398 -398 c-218 -219 -397 -401 -397 -405 0 -4 12
-7 27 -7 22 0 99 72 433 405 l406 405 64 0 65 0 -398 -398 c-218 -219 -397
-401 -397 -405 0 -4 12 -7 27 -7 22 0 99 72 433 405 l406 405 64 0 65 0 -398
-398 c-218 -219 -397 -401 -397 -405 0 -4 12 -7 27 -7 23 0 276 248 1598 1570
l1570 1570 65 0 65 0 -1563 -1563 c-859 -859 -1562 -1565 -1562 -1570 0 -4 12
-7 27 -7 23 0 276 248 1598 1570 l1570 1570 65 0 65 0 -1563 -1563 c-859 -859
-1562 -1565 -1562 -1570 0 -4 12 -7 27 -7 23 0 276 248 1598 1570 l1570 1570
65 0 65 0 -1563 -1563 c-859 -859 -1562 -1565 -1562 -1570 0 -4 12 -7 27 -7
23 0 277 249 1603 1574 1379 1377 1581 1575 1622 1590 93 34 180 122 214 218
9 27 44 72 104 134 65 68 90 100 90 119 0 14 -3 25 -6 25 -4 0 -41 -34 -84
-75 l-77 -76 -11 53 -10 53 94 97 c69 71 94 104 94 122 0 15 -3 26 -6 26 -4 0
-51 -44 -105 -97 -54 -53 -100 -95 -101 -92 -2 2 -14 19 -26 37 l-24 34 131
133 c100 102 131 139 131 159 0 14 -3 26 -7 26 -3 0 -70 -63 -149 -141 l-142
-141 -33 23 c-19 13 -36 25 -38 27 -3 1 79 87 182 191 149 150 187 194 187
215 0 22 -3 25 -17 17 -10 -5 -105 -97 -212 -205 -182 -182 -197 -194 -225
-190 -87 14 -101 -7 187 283 218 218 267 273 267 295 0 22 -3 25 -17 17 -10
-5 -146 -138 -303 -295 l-285 -286 -65 0 -64 0 367 368 c303 304 367 373 367
395 0 23 -3 26 -17 18 -10 -5 -191 -183 -403 -395 l-385 -386 -65 0 -65 0 468
468 c389 389 467 473 467 495 0 23 -3 26 -17 18 -10 -5 -236 -228 -503 -495
l-485 -486 -65 0 -65 0 568 568 c474 475 567 572 567 595 0 23 -3 26 -17 18
-10 -5 -281 -273 -603 -595 l-585 -586 -65 0 -65 0 613 613 c336 337 612 616
612 620 0 4 -12 7 -27 7 -23 0 -132 -105 -648 -620 l-620 -620 -65 0 -65 0
613 613 c336 337 612 616 612 620 0 4 -12 7 -27 7 -23 0 -132 -105 -648 -620
l-620 -620 -65 0 -65 0 613 613 c336 337 612 616 612 620 0 4 -12 7 -27 7 -23
0 -132 -105 -648 -620 l-620 -620 -65 0 -65 0 613 613 c336 337 612 616 612
620 0 4 -12 7 -27 7 -23 0 -132 -105 -648 -620 l-620 -620 -65 0 -65 0 613
613 c336 337 612 616 612 620 0 4 -12 7 -27 7 -23 0 -132 -105 -648 -620
l-620 -620 -65 0 -65 0 613 613 c336 337 612 616 612 620 0 4 -12 7 -27 7 -23
0 -132 -105 -648 -620 l-620 -620 -65 0 -65 0 613 613 c336 337 612 616 612
620 0 4 -12 7 -27 7 -23 0 -132 -105 -648 -620 l-620 -620 -65 0 -65 0 613
613 c336 337 612 616 612 620 0 4 -12 7 -27 7 -23 0 -132 -105 -648 -620
l-620 -620 -65 0 -65 0 613 613 c336 337 612 616 612 620 0 4 -12 7 -27 7 -23
0 -132 -105 -648 -620 l-620 -620 -65 0 -65 0 613 613 c336 337 612 616 612
620 0 4 -12 7 -27 7 -23 0 -132 -105 -648 -620 l-620 -620 -65 0 -65 0 613
613 c336 337 612 616 612 620 0 4 -12 7 -27 7 -23 0 -132 -105 -648 -620 -445
-445 -627 -620 -642 -620 -15 0 -28 10 -37 28 l-15 28 575 575 c317 316 580
582 585 592 8 14 5 17 -18 17 -23 0 -121 -94 -599 -571 l-571 -571 -28 37 -28
36 526 527 c290 290 527 531 527 535 0 4 -12 7 -27 7 -23 0 -116 -89 -545
-517 l-518 -518 -32 33 -33 32 478 478 c262 263 477 481 477 485 0 4 -12 7
-27 7 -22 0 -109 -82 -499 -471 l-472 -472 -34 23 c-18 13 -35 25 -38 27 -2 2
193 201 433 441 240 241 437 441 437 445 0 4 -12 7 -27 7 -22 0 -104 -77 -463
-434 l-435 -434 -44 19 -45 20 407 407 c224 224 407 411 407 415 0 4 -12 7
-27 7 -22 0 -99 -72 -434 -406 l-406 -406 -58 7 -57 8 391 391 c215 215 391
395 391 399 0 4 -12 7 -27 7 -22 0 -99 -71 -427 -399 l-401 -399 -69 -5 -69
-5 397 397 c218 218 396 400 396 404 0 4 -12 7 -27 7 -22 0 -102 -74 -447
-419z m-466 -866 c-305 -306 -335 -333 -338 -308 -2 15 -1 45 2 68 6 37 28 62
269 302 144 144 271 263 282 266 11 3 42 5 70 6 l50 1 -335 -335z m472 308
c30 -6 29 -7 -103 -139 -74 -74 -138 -134 -144 -134 -29 0 -126 -57 -169 -98
-42 -41 -106 -147 -106 -177 0 -6 -65 -75 -145 -155 l-145 -145 0 65 0 65 368
368 c319 320 370 367 391 362 13 -3 37 -9 53 -12z m-572 -208 c-107 -107 -196
-192 -198 -190 -10 10 79 154 132 212 74 81 205 171 251 173 5 0 -78 -88 -185
-195z m699 154 l34 -21 -94 -94 -94 -94 -65 0 -65 0 115 115 c63 63 119 115
125 115 5 0 25 -9 44 -21z m94 -161 c-47 -48 -48 -48 -112 -48 l-66 0 80 80
79 80 33 -32 33 -32 -47 -48z m72 -328 c-66 -66 -120 -120 -120 -120 0 0 -1
28 -3 62 l-3 61 58 59 57 58 66 0 65 0 -120 -120z m115 -85 c-202 -203 -205
-205 -247 -205 -24 0 -43 2 -43 5 0 27 57 95 198 238 l167 167 65 0 65 0 -205
-205z m200 0 l-205 -205 -65 0 -65 0 205 205 205 205 65 0 65 0 -205 -205z
m665 65 c-77 -77 -142 -140 -146 -140 -3 0 -14 18 -24 41 l-19 40 100 100 99
99 65 0 65 0 -140 -140z m254 104 l13 -37 -168 -168 c-93 -93 -172 -169 -176
-169 -4 0 -16 17 -27 38 l-20 37 167 168 c92 92 174 167 182 167 9 0 22 -16
29 -36z m376 -74 l-110 -110 -22 43 -22 42 67 68 66 67 66 0 65 0 -110 -110z
m135 -65 c-96 -96 -178 -175 -181 -175 -3 0 -13 19 -23 42 l-16 43 132 132
133 133 65 0 65 0 -175 -175z m630 30 l-145 -145 -17 33 c-9 17 -17 39 -18 47
0 8 44 59 97 112 l98 98 65 0 65 0 -145 -145z m255 108 l16 -37 -168 -168
c-92 -92 -173 -168 -179 -168 -5 0 -18 17 -28 37 l-17 36 168 169 c92 92 173
168 180 168 7 0 20 -17 28 -37z m485 34 c0 -1 -49 -51 -109 -111 l-109 -109
-22 43 -22 43 68 68 68 69 63 0 c35 0 63 -1 63 -3z m133 -19 c15 -6 27 -13 27
-17 0 -3 -71 -77 -158 -164 l-159 -158 -18 46 -18 47 133 133 c90 90 138 132
149 128 9 -3 28 -9 44 -15z m-3614 -9 l34 -21 -143 -143 c-79 -79 -148 -141
-153 -138 -5 3 -16 21 -24 41 l-15 35 124 124 c67 67 127 123 133 123 5 0 25
-9 44 -21z m931 -61 l19 -43 -137 -137 -137 -138 -65 0 -65 0 180 180 c99 99
181 180 183 180 2 0 12 -19 22 -42z m1410 -38 c0 -8 -60 -74 -132 -147 l-133
-133 -65 0 -65 0 180 180 180 180 17 -33 c9 -17 17 -39 18 -47z m1365 8 l16
-41 -123 -124 -123 -123 -65 0 -65 0 165 165 c91 91 168 165 171 165 4 0 14
-19 24 -42z m-3625 -24 l13 -46 -109 -109 c-60 -60 -115 -109 -122 -109 -7 0
-29 7 -49 15 l-37 16 139 139 c77 77 143 140 146 140 4 0 12 -21 19 -46z
m1581 -15 l21 -42 -103 -103 -104 -104 -65 0 -65 0 145 145 c80 80 146 145
147 145 2 0 12 -19 24 -41z m1316 -146 l-102 -103 -65 0 -65 0 145 145 145
145 22 -43 22 -42 -102 -102z m-1982 77 l18 -41 -68 -69 -69 -70 -66 0 -65 0
110 110 c60 61 112 110 116 110 3 0 14 -18 24 -40z m1396 -1 l21 -42 -68 -68
-68 -69 -66 0 -65 0 110 110 c60 61 111 110 112 110 1 0 12 -19 24 -41z
m-2980 -243 l-151 -151 0 65 0 65 137 137 138 138 13 -52 13 -52 -150 -150z
m200 58 l22 -36 -187 -186 -186 -187 0 65 0 65 157 157 c87 87 161 158 165
158 3 0 16 -16 29 -36z m101 -97 l37 -23 -244 -244 -245 -245 0 65 0 65 202
202 c112 112 205 203 208 203 3 0 22 -11 42 -23z m195 -61 c1 -1 -144 -148
-322 -326 l-325 -325 0 65 0 65 268 268 267 268 55 -7 c30 -4 56 -7 57 -8z
m-217 -421 l-425 -425 -3 62 -3 62 363 363 363 363 65 0 65 0 -425 -425z m100
-100 l-525 -525 -3 62 -3 62 463 463 463 463 65 0 65 0 -525 -525z m100 -100
l-625 -625 -3 62 -3 62 563 563 563 563 65 0 65 0 -625 -625z m915 515 l-110
-110 -3 61 c-3 62 -3 62 45 111 47 48 48 48 112 48 l66 0 -110 -110z m100
-100 l-210 -210 -3 62 -3 62 148 148 148 148 65 0 65 0 -210 -210z m100 -100
l-310 -310 -3 62 -3 62 248 248 248 248 65 0 65 0 -310 -310z m100 -100 l-410
-410 -3 62 -3 62 348 348 348 348 65 0 65 0 -410 -410z m100 -100 l-510 -510
-3 62 -3 62 448 448 448 448 65 0 65 0 -510 -510z m100 -100 l-610 -610 -3 62
-3 62 548 548 548 548 65 0 65 0 -610 -610z m100 -100 l-710 -710 -3 62 -3 62
648 648 648 648 65 0 65 0 -710 -710z m100 -100 l-810 -810 -3 62 -3 62 748
748 748 748 65 0 65 0 -810 -810z m100 -100 l-910 -910 -3 62 -3 62 848 848
848 848 65 0 65 0 -910 -910z m100 -100 l-1010 -1010 -3 62 -3 62 948 948 948
948 65 0 65 0 -1010 -1010z m100 -100 l-1110 -1110 -3 62 -3 62 1048 1048
1048 1048 65 0 65 0 -1110 -1110z m-1907 293 l-633 -633 -3 62 -3 62 633 633
633 633 3 -62 3 -62 -633 -633z m0 -200 l-633 -633 -3 62 -3 62 633 633 633
633 3 -62 3 -62 -633 -633z m0 -200 l-633 -633 -3 62 -3 62 633 633 633 633 3
-62 3 -62 -633 -633z m0 -200 l-633 -633 -3 62 -3 62 633 633 633 633 3 -62 3
-62 -633 -633z m35 -165 c-578 -578 -599 -598 -635 -598 -35 0 -38 2 -38 27 0
23 103 131 633 661 l632 632 3 -62 3 -62 -598 -598z m100 -100 l-498 -498 -65
0 -65 0 560 560 560 560 3 -62 3 -62 -498 -498z m100 -100 l-398 -398 -65 0
-65 0 460 460 460 460 3 -62 3 -62 -398 -398z m100 -100 l-298 -298 -65 0 -65
0 360 360 360 360 3 -62 3 -62 -298 -298z m100 -100 l-198 -198 -65 0 -65 0
260 260 260 260 3 -62 3 -62 -198 -198z m100 -100 l-98 -98 -65 0 -65 0 160
160 160 160 3 -62 3 -62 -98 -98z"/>
<path d="M3396 1750 c-944 -943 -1722 -1723 -1727 -1732 -8 -15 -5 -18 18 -18
24 0 283 255 1711 1683 926 925 1692 1694 1703 1710 11 15 19 37 17 50 -4 18
-296 -270 -1722 -1693z"/>
<path d="M3496 1650 c-889 -888 -1622 -1623 -1627 -1632 -8 -15 -5 -18 18 -18
24 0 269 241 1611 1583 871 870 1592 1594 1603 1610 11 15 19 37 17 50 -4 18
-279 -252 -1622 -1593z"/>
<path d="M3596 1550 c-834 -833 -1522 -1523 -1527 -1532 -8 -15 -5 -18 18 -18
23 0 254 226 1511 1483 816 815 1492 1494 1503 1510 11 15 19 37 17 50 -4 18
-262 -235 -1522 -1493z"/>
<path d="M3696 1450 c-779 -778 -1422 -1423 -1427 -1432 -8 -15 -5 -18 18 -18
23 0 239 212 1411 1383 761 760 1392 1394 1403 1410 11 15 19 37 17 50 -4 18
-245 -218 -1422 -1393z"/>
<path d="M3796 1350 c-724 -723 -1322 -1323 -1327 -1332 -8 -15 -5 -18 18 -18
23 0 225 197 1311 1283 706 705 1292 1294 1303 1310 11 15 19 37 17 50 -4 18
-227 -201 -1322 -1293z"/>
<path d="M3896 1250 c-669 -668 -1222 -1223 -1227 -1232 -8 -15 -5 -18 18 -18
23 0 210 183 1211 1182 651 651 1192 1195 1203 1211 11 15 19 37 17 50 -4 18
-210 -183 -1222 -1193z"/>
<path d="M3996 1150 c-614 -613 -1122 -1123 -1127 -1132 -8 -15 -5 -18 18 -18
23 0 196 168 1111 1082 596 596 1092 1095 1103 1111 11 15 19 37 17 50 -4 18
-193 -166 -1122 -1093z"/>
<path d="M4096 1050 c-559 -558 -1022 -1023 -1027 -1033 -8 -14 -5 -17 18 -17
23 0 181 153 1011 983 541 540 992 994 1003 1010 11 15 19 37 17 50 -4 18
-175 -149 -1022 -993z"/>
<path d="M4196 950 c-504 -503 -922 -923 -927 -932 -8 -15 -5 -18 18 -18 23 0
167 139 911 882 486 486 892 895 903 911 11 15 19 37 17 50 -4 18 -158 -132
-922 -893z"/>
<path d="M4296 850 c-449 -448 -822 -823 -827 -832 -8 -15 -5 -18 18 -18 23 0
152 124 811 783 431 430 792 794 803 810 11 15 19 37 17 50 -4 18 -141 -114
-822 -793z"/>
<path d="M4396 750 c-394 -393 -722 -723 -727 -732 -8 -15 -5 -18 18 -18 23 0
137 110 711 683 376 375 692 694 703 710 11 15 19 37 17 50 -4 18 -124 -97
-722 -693z"/>
<path d="M4496 650 c-339 -338 -622 -623 -627 -632 -8 -15 -5 -18 18 -18 23 0
123 95 611 583 321 320 592 594 603 610 11 15 19 37 17 50 -4 18 -106 -80
-622 -593z"/>
<path d="M4596 550 c-284 -283 -522 -523 -527 -533 -8 -14 -5 -17 18 -17 23 0
108 81 511 483 266 265 492 494 503 510 11 15 19 37 17 50 -4 18 -89 -62 -522
-493z"/>
<path d="M4696 450 c-229 -228 -422 -423 -427 -432 -8 -15 -5 -18 18 -18 22 0
93 66 411 383 211 210 392 394 403 410 11 15 19 37 17 50 -4 18 -72 -45 -422
-393z"/>
<path d="M4796 350 c-174 -173 -322 -323 -327 -332 -8 -15 -5 -18 17 -18 23 0
80 52 312 282 156 156 293 295 303 311 11 15 19 37 17 50 -4 18 -54 -28 -322
-293z"/>
<path d="M4896 250 c-119 -118 -222 -223 -227 -232 -8 -15 -5 -18 17 -18 21 0
65 37 211 183 205 202 226 227 221 260 -3 19 -37 -11 -222 -193z"/>
<path d="M4996 150 c-136 -133 -149 -150 -111 -150 18 0 49 23 111 82 102 98
127 130 122 161 -3 19 -19 7 -122 -93z"/>
</g>
</svg>
