<?xml version="1.0" standalone="no"?>
<!DOCTYPE svg PUBLIC "-//W3C//DTD SVG 20010904//EN"
 "http://www.w3.org/TR/2001/REC-SVG-20010904/DTD/svg10.dtd">
<svg version="1.0" xmlns="http://www.w3.org/2000/svg"
 width="242.000000pt" height="208.000000pt" viewBox="0 0 242.000000 208.000000"
 preserveAspectRatio="xMidYMid meet">
<metadata>
Created by potrace 1.16, written by Peter Selinger 2001-2019
</metadata>
<g transform="translate(0.000000,208.000000) scale(0.100000,-0.100000)"
fill="#000000" stroke="none">
<path d="M1377 1924 c32 -30 65 -61 74 -67 9 -7 43 -43 75 -82 32 -38 65 -74
72 -78 7 -5 9 -13 6 -19 -4 -6 -3 -8 3 -5 11 7 46 -39 46 -60 0 -6 5 -11 10
-10 14 3 148 -195 142 -210 -2 -7 1 -12 7 -10 11 2 46 -49 47 -70 1 -17 -85
-57 -100 -47 -7 4 -9 3 -6 -3 4 -6 -40 -32 -101 -61 -170 -80 -439 -206 -531
-248 -46 -22 -114 -53 -150 -70 -42 -20 -68 -27 -70 -20 -10 27 -146 245 -191
306 -228 308 -339 430 -395 430 -26 0 -83 -67 -96 -113 -5 -18 -9 -102 -10
-188 0 -136 3 -164 22 -213 22 -60 23 -62 465 -572 100 -115 199 -230 220
-255 57 -68 111 -102 153 -95 41 6 281 123 281 136 0 10 -90 159 -113 188 -7
9 -13 9 -23 1 -11 -9 -14 -8 -14 4 0 8 5 17 11 19 6 2 -1 23 -16 50 -26 46
-26 68 -2 68 7 0 50 -61 96 -135 45 -74 85 -135 88 -135 3 0 -3 12 -12 27 -12
18 -14 28 -7 31 21 7 13 30 -48 132 -47 77 -59 105 -54 125 4 16 13 25 26 25
10 0 16 -4 13 -10 -12 -19 17 -9 130 45 118 56 135 69 116 88 -20 20 -12 38
27 55 45 20 112 80 112 99 0 26 30 -2 80 -76 28 -41 50 -78 50 -82 0 -5 -11
-4 -24 1 -29 10 -57 -13 -39 -31 8 -8 13 -7 17 0 4 6 11 11 17 11 5 0 0 -9
-11 -20 -12 -12 -26 -18 -32 -14 -7 5 -8 3 -3 -6 5 -8 4 -11 -3 -6 -6 4 -9 13
-6 21 3 7 2 21 -3 30 -9 15 -11 15 -23 0 -11 -13 -10 -15 3 -9 12 4 14 1 11
-13 -8 -28 19 -47 45 -34 24 13 34 14 26 2 -3 -5 -1 -12 5 -16 6 -4 8 -11 5
-16 -4 -5 -2 -9 4 -9 5 0 13 5 16 10 3 6 12 10 18 10 7 0 4 -5 -5 -11 -9 -5
-15 -16 -12 -24 5 -11 10 -12 24 -3 10 6 16 17 13 23 -2 7 3 15 11 18 11 5 24
-6 42 -33 15 -22 31 -37 37 -33 5 3 7 1 4 -4 -9 -14 29 -47 42 -38 17 10 13
-12 -5 -29 -8 -9 -12 -22 -9 -28 4 -7 -1 -4 -9 6 -9 11 -16 16 -16 10 0 -5 15
-25 34 -45 18 -20 36 -44 39 -53 7 -19 43 -21 50 -3 3 7 6 5 6 -5 1 -12 -7
-18 -21 -19 -19 -1 -19 -2 -5 -6 10 -3 27 3 38 13 18 16 18 19 3 43 -9 14 -24
33 -33 41 -23 21 -62 86 -55 93 3 3 -6 4 -20 3 -21 -3 -24 -1 -15 10 6 8 16
11 22 7 6 -3 7 -1 3 6 -4 6 -12 8 -18 5 -7 -5 -9 -1 -5 9 4 10 2 16 -6 14 -7
-1 -11 5 -9 13 2 8 1 12 -3 8 -4 -4 -14 0 -22 8 -9 8 -13 17 -10 20 3 3 -6 16
-20 30 -13 13 -22 28 -18 33 3 5 0 13 -6 17 -8 5 -10 2 -5 -7 12 -23 -30 32
-49 63 -16 27 -16 28 7 37 17 6 25 5 29 -8 8 -20 49 -58 49 -45 0 6 -5 15 -11
21 -9 9 -7 10 9 6 12 -3 19 -9 16 -14 -3 -5 2 -6 10 -3 23 9 20 -13 -3 -28
-18 -11 -15 -17 47 -102 36 -50 67 -92 68 -94 7 -11 75 45 88 72 35 74 20 131
-93 363 -83 169 -130 252 -224 393 -158 237 -414 500 -487 500 -7 0 14 -25 47
-56z m514 -727 c16 -32 27 -63 23 -69 -4 -7 -3 -8 4 -4 7 4 12 1 12 -8 0 -8 6
-16 13 -19 9 -3 9 -7 0 -17 -6 -7 -9 -19 -6 -26 8 -20 -3 -17 -27 8 -22 24
-27 13 -6 -14 7 -10 16 -14 21 -10 7 7 -3 -39 -11 -47 -5 -6 -2 -12 -67 119
-60 120 -67 143 -42 134 8 -4 15 -2 15 3 0 5 9 9 21 9 15 0 29 -15 50 -59z
m-225 -144 c22 -30 16 -57 -22 -90 -32 -27 -40 -30 -60 -21 -20 9 -30 6 -64
-17 -40 -28 -41 -28 -62 -9 -21 19 -21 19 -16 -3 7 -25 -20 -41 -35 -21 -6 9
-7 7 -3 -6 5 -15 2 -17 -15 -13 -17 5 -20 2 -16 -14 7 -25 -26 -26 -52 0 -10
10 -24 20 -31 23 -18 6 37 56 86 79 24 10 46 24 49 30 4 6 14 8 22 5 11 -5 13
-2 9 9 -7 20 14 9 32 -17 18 -25 62 -24 62 2 0 18 -12 24 -47 23 -22 -1 -14 6
30 25 83 38 113 41 133 15z m-641 -213 c8 -16 14 -32 13 -34 -2 -2 4 -12 13
-22 28 -32 59 -107 53 -128 -4 -16 -3 -18 5 -6 8 12 12 9 21 -14 6 -16 8 -31
5 -34 -3 -3 -5 1 -5 8 0 16 -14 4 -16 -13 0 -7 -2 -19 -2 -29 -3 -24 -31 -16
-46 13 -7 14 -41 78 -75 143 -35 64 -61 119 -59 121 6 7 52 24 65 24 7 1 19
-12 28 -29z"/>
<path d="M1211 1789 c-24 -11 -53 -17 -65 -14 -17 5 -18 4 -6 -4 10 -7 11 -11
3 -11 -24 0 -28 -1 -43 -14 -25 -22 -220 -97 -232 -90 -6 4 -8 2 -5 -3 4 -6 0
-14 -9 -17 -23 -9 -31 -7 -15 3 10 7 7 9 -12 8 -17 -2 -22 -5 -16 -13 12 -14
-44 -40 -62 -28 -7 4 -10 3 -6 -3 6 -10 -79 -50 -96 -45 -5 1 -5 -3 -1 -10 8
-15 66 -90 74 -98 25 -24 59 -74 54 -81 -3 -5 -1 -8 4 -7 5 2 28 -20 51 -49
47 -58 45 -58 156 -8 33 15 83 38 110 50 216 98 236 106 248 98 7 -3 9 -3 5 2
-9 9 37 36 68 39 27 3 84 44 84 60 0 7 -10 21 -21 32 -12 10 -60 65 -107 122
-47 56 -92 102 -101 101 -9 0 -36 -9 -60 -20z m108 -146 c33 -36 61 -70 61
-74 0 -7 -59 -37 -131 -66 l-41 -16 -36 38 c-21 21 -29 33 -19 25 9 -7 21 -10
24 -6 4 4 2 11 -6 15 -10 7 -10 9 2 14 9 3 18 -1 21 -9 5 -14 8 -14 22 0 8 9
21 13 27 9 7 -4 6 1 -2 11 -8 9 -20 15 -27 12 -8 -3 -13 0 -11 6 1 6 -4 13
-10 15 -7 3 -13 -1 -13 -9 0 -21 -70 -15 -87 8 -11 16 -11 19 4 28 10 6 20 11
23 12 3 0 30 13 60 27 30 15 60 27 66 27 6 0 39 -30 73 -67z"/>
<path d="M1742 1399 c-6 -10 -9 -26 -5 -36 4 -10 -5 -5 -20 12 -16 17 -27 24
-26 15 1 -8 -1 -23 -6 -33 -6 -14 -10 -15 -22 -5 -11 9 -16 9 -22 0 -4 -6 -23
-18 -43 -26 -45 -19 -54 -32 -31 -45 10 -6 13 -11 6 -11 -6 0 -14 4 -17 9 -9
13 -113 11 -132 -4 -21 -15 -11 -51 16 -60 24 -8 73 23 66 41 -3 8 -1 14 4 14
6 0 10 -7 10 -15 0 -18 20 -19 51 -2 49 25 51 28 38 43 -6 8 -9 17 -5 21 3 3
6 1 6 -6 0 -8 8 -10 23 -7 12 3 16 3 10 0 -7 -3 -13 -10 -13 -15 0 -6 10 -5
22 2 20 11 20 12 4 24 -9 7 -13 16 -8 19 6 3 12 -1 16 -9 3 -8 10 -15 16 -15
6 0 9 4 6 9 -4 5 3 7 14 4 11 -3 20 -13 19 -22 0 -9 -3 -11 -5 -4 -5 10 -57
-7 -103 -34 -1 -1 0 -6 3 -12 5 -7 13 -7 24 -2 39 21 138 66 144 66 4 0 13 6
20 13 9 9 9 12 0 12 -7 0 -12 7 -12 16 0 9 -8 26 -18 39 -18 22 -19 22 -30 4z"/>
<path d="M1433 660 c3 -11 -4 -15 -32 -15 -20 0 -42 -4 -48 -9 -8 -5 -13 -4
-13 3 0 6 -4 11 -10 11 -5 0 -10 -7 -10 -15 0 -8 -7 -15 -15 -15 -12 0 -11 -6
3 -37 36 -78 34 -77 73 -55 19 11 33 25 32 31 -2 6 4 11 12 11 9 0 18 7 22 16
3 8 12 13 19 10 12 -5 12 -1 -1 22 -8 15 -19 34 -26 42 -10 13 -10 13 -6 0z"/>
<path d="M1706 584 c-27 -7 -53 -19 -57 -26 -5 -7 -9 -9 -9 -3 0 5 -7 -1 -16
-13 -14 -21 -14 -25 3 -55 16 -27 27 -33 63 -37 39 -5 42 -7 22 -14 -13 -4
-22 -10 -19 -12 8 -8 92 33 107 51 14 18 14 18 -12 1 -29 -19 -39 -8 -13 14
20 16 19 33 -3 73 l-17 33 -49 -12z"/>
</g>
</svg>
