<?xml version="1.0" standalone="no"?>
<!DOCTYPE svg PUBLIC "-//W3C//DTD SVG 20010904//EN"
 "http://www.w3.org/TR/2001/REC-SVG-20010904/DTD/svg10.dtd">
<svg version="1.0" xmlns="http://www.w3.org/2000/svg"
 width="36px" height="36px" viewBox="0 0 512.000000 512.000000"
 preserveAspectRatio="xMidYMid meet">
<metadata>
Created by potrace 1.16, written by Peter Selinger 2001-2019
</metadata>
<g transform="translate(0.000000,512.000000) scale(0.100000,-0.100000)"
fill="#000000" stroke="none">
<path d="M2980 4378 c-286 -18 -505 -112 -688 -296 -204 -207 -321 -491 -379
-927 -24 -184 -24 -676 0 -860 58 -437 174 -720 379 -927 206 -207 453 -300
798 -299 332 0 660 86 998 261 559 290 929 720 1017 1183 19 102 19 309 0 419
-57 327 -271 654 -600 917 -455 364 -1022 561 -1525 529z m305 -382 c297 -47
580 -159 845 -337 450 -302 677 -706 605 -1074 -57 -290 -282 -581 -621 -805
-263 -174 -573 -293 -862 -331 -113 -15 -323 -6 -407 16 -156 42 -278 131
-369 268 -123 187 -187 437 -205 807 -24 503 42 910 187 1149 103 170 261 278
453 310 84 14 275 12 374 -3z"/>
<path d="M850 4158 c-60 -32 -89 -85 -96 -175 -9 -111 -30 -189 -109 -411 -41
-116 -82 -239 -90 -274 l-16 -64 -222 -110 c-224 -110 -276 -145 -303 -195
-17 -33 -19 -116 -3 -156 14 -38 57 -82 98 -99 69 -29 107 -20 281 66 89 45
163 80 164 78 1 -2 19 -38 41 -81 25 -51 63 -105 108 -153 l68 -73 -339 -170
c-186 -93 -353 -181 -371 -196 -17 -15 -38 -40 -46 -56 -18 -33 -20 -131 -4
-162 19 -37 62 -78 98 -93 77 -32 96 -26 452 151 l331 166 -6 -37 c-4 -20 -41
-133 -83 -251 l-76 -214 -317 -159 c-321 -160 -369 -190 -395 -241 -19 -36
-19 -132 -1 -167 19 -36 65 -78 99 -91 70 -27 104 -17 338 100 227 113 238
116 239 66 0 -10 12 -49 26 -85 59 -148 201 -312 286 -329 129 -26 231 54 231
182 0 63 -11 85 -78 155 -83 88 -124 190 -110 273 l7 38 307 154 c218 109 316
163 334 185 25 29 47 86 47 120 0 34 -22 91 -47 120 -36 44 -75 61 -140 61
-50 1 -71 -7 -201 -70 -103 -51 -142 -66 -137 -54 36 91 71 325 60 394 l-7 38
200 100 c212 106 243 130 262 203 37 136 -88 264 -223 227 -22 -6 -117 -49
-210 -96 l-170 -85 -89 89 c-82 82 -138 163 -138 203 0 10 123 77 381 205 406
202 428 217 449 296 37 136 -84 263 -217 229 -25 -6 -148 -63 -275 -126 -155
-77 -228 -110 -224 -98 98 256 137 507 92 597 -43 87 -166 123 -256 75z"/>
</g>
</svg>
