<?xml version="1.0" standalone="no"?>
<!DOCTYPE svg PUBLIC "-//W3C//DTD SVG 20010904//EN"
 "http://www.w3.org/TR/2001/REC-SVG-20010904/DTD/svg10.dtd">
<svg version="1.0" xmlns="http://www.w3.org/2000/svg"
 width="36px" height="36px" viewBox="0 0 170.000000 74.000000"
 preserveAspectRatio="xMidYMid meet">
<metadata>
Created by potrace 1.16, written by Peter Selinger 2001-2019
</metadata>
<g transform="translate(0.000000,74.000000) scale(0.100000,-0.100000)"
fill="#000000" stroke="none">
<path d="M765 540 c-3 -11 -17 -23 -31 -26 -33 -8 -74 -60 -74 -93 0 -29 26
-58 75 -84 17 -9 24 -16 17 -17 -7 0 -27 7 -44 16 -16 9 -27 11 -23 5 22 -36
119 -48 164 -20 12 7 7 8 -14 4 -30 -6 -30 -6 6 14 19 11 40 26 46 33 34 43
15 106 -37 128 -18 7 -36 24 -41 37 -10 28 -35 30 -44 3z"/>
<path d="M1154 545 c-4 -9 -26 -25 -49 -36 -76 -36 -81 -99 -13 -153 19 -15
27 -26 18 -26 -22 0 -57 31 -74 65 -13 25 -16 26 -16 9 0 -24 34 -66 67 -83
30 -16 83 -14 89 3 3 8 15 17 27 20 13 3 33 15 46 27 18 17 22 28 17 52 -7 32
-29 63 -58 78 -15 8 -17 6 -15 -12 1 -12 -4 -24 -10 -26 -9 -3 -13 9 -13 41 0
46 14 62 24 29 4 -14 4 -14 3 2 -3 25 -35 32 -43 10z"/>
<path d="M399 531 c17 -11 4 -34 -16 -27 -8 3 -11 1 -8 -5 4 -5 1 -16 -5 -24
-7 -8 -9 -15 -5 -15 4 0 14 8 21 18 9 11 13 13 14 4 0 -7 5 -10 11 -6 8 4 7 9
-2 15 -10 6 -11 9 -2 9 7 0 21 -7 32 -16 16 -14 17 -20 8 -35 -14 -23 -27 -25
-27 -4 0 25 -18 17 -28 -12 -10 -27 -10 -27 -11 -4 l-1 23 -20 -23 c-17 -21
-21 -22 -30 -9 -6 8 -8 26 -5 40 4 18 -1 14 -16 -14 -17 -31 -19 -44 -11 -57
6 -10 7 -19 2 -21 -19 -7 4 -60 36 -81 29 -19 33 -29 40 -82 4 -33 7 -63 6
-66 0 -3 13 -6 30 -7 27 -1 29 2 23 21 -13 39 -17 104 -6 87 8 -12 11 -11 17
5 4 11 30 46 57 77 45 54 48 61 42 97 -8 49 -35 78 -79 87 -19 3 -37 12 -40
20 -3 8 -13 14 -23 14 -14 0 -15 -2 -4 -9z"/>
</g>
</svg>
