<?xml version="1.0" standalone="no"?>
<!DOCTYPE svg PUBLIC "-//W3C//DTD SVG 20010904//EN"
 "http://www.w3.org/TR/2001/REC-SVG-20010904/DTD/svg10.dtd">
<svg version="1.0" xmlns="http://www.w3.org/2000/svg"
 width="36px" height="36px" viewBox="0 0 90.000000 75.000000"
 preserveAspectRatio="xMidYMid meet">
<metadata>
Created by potrace 1.16, written by Peter Selinger 2001-2019
</metadata>
<g transform="translate(0.000000,75.000000) scale(0.100000,-0.100000)"
fill="#097969" stroke="#454B1B">
<path d="M0 375 l0 -375 450 0 450 0 0 375 0 375 -450 0 -450 0 0 -375z m505
314 c78 -21 131 -52 178 -103 46 -49 86 -137 65 -144 -5 -2 -3 -10 3 -18 10
-12 8 -16 -9 -21 -19 -4 -22 -13 -22 -52 0 -25 -7 -58 -14 -74 -13 -23 -13
-27 -1 -27 23 0 27 -18 8 -37 -30 -30 -80 -63 -96 -63 -9 0 -17 -5 -19 -10 -2
-6 -19 -12 -39 -14 -20 -2 -40 -6 -46 -9 -11 -7 -121 -2 -154 7 -46 13 -111
50 -129 73 -10 13 -21 23 -25 23 -5 0 -25 17 -45 38 -39 39 -80 133 -80 183 0
110 108 229 228 249 70 12 152 11 197 -1z"/>
</g>
</svg>
