<?xml version="1.0" standalone="no"?>
<!DOCTYPE svg PUBLIC "-//W3C//DTD SVG 20010904//EN"
 "http://www.w3.org/TR/2001/REC-SVG-20010904/DTD/svg10.dtd">
<svg version="1.0" xmlns="http://www.w3.org/2000/svg"
 width="311.000000pt" height="877.000000pt" viewBox="0 0 311.000000 877.000000"
 preserveAspectRatio="xMidYMid meet">
<metadata>
Created by potrace 1.16, written by Peter Selinger 2001-2019
</metadata>
<g transform="translate(0.000000,877.000000) scale(0.100000,-0.100000)"
fill="#000000" stroke="none">
<path d="M239 8747 c-31 -13 -69 -33 -86 -45 -44 -31 -109 -105 -132 -151
l-21 -40 0 -4114 0 -4113 31 -50 c58 -93 126 -149 227 -187 l57 -22 1159 -3
c699 -1 1186 1 1228 7 80 11 178 54 233 102 45 40 94 114 121 184 19 49 19
142 22 4053 2 4396 7 4084 -57 4196 -40 69 -117 141 -189 174 l-57 27 -1240 2
-1240 3 -56 -23z m1396 -3227 c462 -53 841 -370 969 -812 174 -599 -188 -1230
-801 -1395 -89 -24 -115 -27 -278 -27 -164 0 -189 2 -280 27 -122 33 -295 117
-390 188 -440 332 -579 916 -333 1404 159 317 479 554 818 604 155 23 179 24
295 11z m76 -2835 c325 -57 609 -254 782 -542 117 -194 174 -451 149 -674 -30
-265 -138 -493 -322 -679 -343 -347 -845 -433 -1285 -221 -508 245 -759 844
-573 1370 100 284 296 508 560 642 210 106 462 144 689 104z"/>
</g>
</svg>
