<?xml version="1.0" standalone="no"?>
<!DOCTYPE svg PUBLIC "-//W3C//DTD SVG 20010904//EN"
 "http://www.w3.org/TR/2001/REC-SVG-20010904/DTD/svg10.dtd">
<svg version="1.0" xmlns="http://www.w3.org/2000/svg"
 width="612.000000pt" height="612.000000pt" viewBox="0 0 612.000000 612.000000"
 preserveAspectRatio="xMidYMid meet">
<metadata>
Created by potrace 1.16, written by Peter Selinger 2001-2019
</metadata>
<g transform="translate(0.000000,612.000000) scale(0.100000,-0.100000)"
fill="#FF5733" stroke="none">
<path d="M2844 4140 l-440 -5 -75 -37 c-89 -44 -158 -118 -195 -209 -26 -64
-27 -68 -99 -839 -41 -441 -83 -874 -91 -947 -4 -35 -10 -53 -19 -53 -7 0 -27
-12 -44 -26 -31 -26 -31 -26 -31 -130 l0 -104 -57 0 c-71 0 -127 -25 -170 -73
-46 -52 -53 -91 -53 -289 l0 -178 1490 0 1490 0 0 178 c0 198 -7 237 -53 289
-43 48 -99 73 -169 73 l-58 0 0 101 c0 86 -3 105 -20 126 -12 15 -20 20 -20
12 -1 -10 -4 -9 -14 4 -20 26 -41 20 -54 -17 -10 -28 -16 -32 -37 -28 -27 5
-35 22 -10 22 18 0 19 40 2 87 -14 37 -33 33 -41 -10 -3 -19 0 -30 10 -34 17
-6 19 -30 2 -36 -29 -10 -48 13 -48 58 0 38 -3 45 -20 45 -16 0 -20 -7 -20
-35 0 -19 5 -35 10 -35 6 0 10 -7 10 -16 0 -11 -8 -14 -27 -12 -28 3 -28 4
-31 86 -2 70 -1 82 14 82 9 0 18 -9 21 -20 7 -27 43 -27 43 0 0 29 29 25 40
-5 8 -20 14 -24 34 -19 20 5 25 1 31 -23 l8 -28 8 30 c8 28 3 108 -35 505 -44
463 -74 778 -91 965 -24 276 -43 332 -139 429 -102 102 -194 127 -451 124 -88
-1 -358 -5 -601 -8z m-544 -328 c22 -18 22 -22 15 -139 -8 -134 -21 -163 -73
-163 -63 1 -72 28 -57 173 9 95 15 120 31 132 26 20 57 19 84 -3z m-55 -478
c34 -13 34 -48 1 -399 -30 -322 -34 -350 -54 -365 -29 -24 -83 -13 -98 20 -9
19 -4 103 22 370 31 320 35 346 55 363 22 18 46 21 74 11z m556 -120 c50 -32
62 -43 105 -99 31 -40 50 -82 45 -99 -1 -5 2 -12 8 -15 12 -8 16 -90 7 -151
-22 -158 -223 -328 -306 -259 l-25 21 -3 272 c-4 315 0 353 31 359 43 10 95
-1 138 -29z m637 30 c18 -4 34 -15 41 -30 14 -32 16 -594 1 -594 -5 0 -10 -6
-10 -14 0 -8 -15 -19 -34 -26 -42 -14 -86 1 -82 27 2 10 1 12 -1 6 -8 -24 -30
-13 -89 45 -56 54 -83 95 -100 152 -22 73 -20 168 5 225 11 25 24 45 30 45 6
0 8 6 5 13 -7 20 68 96 128 128 58 31 62 32 106 23z m-343 -541 c4 -13 11 -23
15 -23 5 0 11 -9 15 -19 6 -19 44 -61 103 -114 18 -16 32 -35 32 -43 0 -8 5
-14 10 -14 6 0 10 -9 10 -20 0 -21 -4 -21 -217 -18 l-218 3 3 25 c2 15 30 52
68 90 75 75 106 119 124 175 19 61 23 63 36 20 6 -22 14 -50 19 -62z m743
-562 c2 -6 -1 -11 -8 -11 -6 0 -8 -4 -5 -10 10 -16 -13 -48 -37 -53 -21 -4
-20 -4 3 -6 33 -1 53 -24 44 -51 -5 -16 -15 -20 -51 -20 -47 0 -71 23 -43 41
8 5 9 9 3 9 -6 0 -11 22 -12 50 -1 37 3 52 16 59 22 12 85 7 90 -8z m-48 -206
c0 -12 4 -14 19 -5 12 6 22 6 25 1 3 -5 15 -7 26 -4 11 3 17 9 15 14 -3 4 7 2
22 -6 25 -13 29 -13 35 3 4 9 7 12 7 5 1 -14 97 -22 129 -11 15 5 22 4 23 -5
0 -9 2 -9 5 0 3 7 12 9 20 6 8 -3 14 0 14 6 0 6 21 10 58 8 l57 -2 0 -35 0
-35 -57 -3 c-62 -3 -72 6 -35 31 27 18 17 33 -12 17 -12 -6 -21 -19 -21 -30 0
-10 -4 -22 -10 -25 -5 -3 -10 -2 -10 3 0 5 -17 6 -40 2 -37 -7 -40 -6 -40 16
0 13 -4 24 -10 24 -5 0 -10 -9 -10 -20 0 -22 -28 -40 -60 -40 -14 0 -20 5 -17
13 3 9 -8 11 -42 10 -25 -1 -48 -2 -51 -3 -23 -7 -94 0 -100 10 -16 26 3 56
33 51 4 0 7 4 7 9 0 6 5 10 10 10 6 0 10 -7 10 -15z"/>
</g>
</svg>
