<?xml version="1.0" standalone="no"?>
<!DOCTYPE svg PUBLIC "-//W3C//DTD SVG 20010904//EN"
 "http://www.w3.org/TR/2001/REC-SVG-20010904/DTD/svg10.dtd">
<svg version="1.0" xmlns="http://www.w3.org/2000/svg"
 width="36px" height="36px" viewBox="0 0 226.000000 223.000000"
 preserveAspectRatio="xMidYMid meet">
<metadata>
Created by potrace 1.16, written by Peter Selinger 2001-2019
</metadata>
<g transform="translate(0.000000,223.000000) scale(0.100000,-0.100000)"
fill="#000000" stroke="none">
<path d="M1670 2193 c-130 -36 -239 -125 -300 -249 -31 -63 -35 -78 -38 -176
-3 -82 0 -118 13 -158 38 -116 109 -206 204 -260 l61 -35 0 -67 0 -68 65 0 65
0 0 -418 c0 -468 2 -455 -74 -517 l-38 -30 -154 -3 -154 -3 0 60 0 61 -650 0
-650 0 0 -155 0 -155 650 0 650 0 0 49 0 49 158 3 c150 4 159 5 203 31 56 33
94 76 123 138 20 43 21 63 24 468 l3 422 65 0 64 0 0 69 0 69 53 30 c103 58
188 176 217 301 17 73 8 201 -20 274 -42 111 -153 219 -265 258 -84 29 -194
34 -275 12z m191 -63 c248 -47 389 -327 279 -555 -55 -114 -189 -208 -315
-221 -156 -16 -317 76 -389 221 -91 187 -18 417 163 514 90 48 165 59 262 41z"/>
<path d="M1734 1834 c-41 -20 -66 -65 -63 -114 3 -38 -1 -45 -68 -113 -79 -81
-97 -117 -57 -117 17 0 49 22 99 70 72 68 76 70 113 64 70 -11 132 38 132 104
0 47 -24 87 -64 106 -42 20 -53 20 -92 0z"/>
<path d="M230 1577 c-47 -24 -50 -42 -50 -345 l0 -283 39 22 39 21 7 92 c8
106 25 148 70 176 30 19 49 20 314 20 312 0 322 -2 359 -62 14 -24 22 -60 27
-129 l7 -97 39 -21 39 -22 0 290 0 290 -24 28 -24 28 -409 3 c-315 1 -414 -1
-433 -11z"/>
<path d="M363 1228 c-28 -13 -53 -66 -53 -111 0 -19 -3 -61 -6 -93 l-6 -60
-59 -32 -59 -33 0 -154 0 -155 25 0 c23 0 25 -3 25 -52 0 -90 46 -141 106
-118 42 16 53 39 54 108 l0 62 260 0 260 0 0 -61 c0 -72 10 -93 50 -108 64
-22 100 12 108 104 4 60 6 65 28 65 l24 0 0 153 0 154 -60 34 c-40 23 -60 41
-60 54 -1 11 -5 60 -9 109 -7 83 -10 91 -40 118 l-31 28 -268 -1 c-166 0 -275
-4 -289 -11z m557 -46 c20 -16 23 -30 28 -115 l5 -97 -303 0 -303 0 6 97 c8
141 -9 133 297 133 224 0 250 -2 270 -18z m-60 -311 c5 -11 10 -56 10 -101 l0
-80 -217 2 -218 3 -3 77 c-5 124 -16 118 218 118 187 0 200 -1 210 -19z"/>
</g>
</svg>
