<svg id="SvgjsSvg1157" width="288" height="288" xmlns="http://www.w3.org/2000/svg" version="1.1" xmlns:xlink="http://www.w3.org/1999/xlink" xmlns:svgjs="http://svgjs.com/svgjs"><defs id="SvgjsDefs1158"></defs><g id="SvgjsG1159"><svg xmlns="http://www.w3.org/2000/svg" xmlns:xlink="http://www.w3.org/1999/xlink" viewBox="0 0 365.04 319.92" width="288" height="288"><defs><clipPath id="d"><path d="M 1 2 L 365 2 L 365 318.4375 L 1 318.4375 Z M 1 2 " fill="#000000" class="color000 svgShape"></path></clipPath><clipPath id="c"><path d="M 0.679688 0.398438 L 363.800781 0.398438 L 363.800781 316.238281 L 0.679688 316.238281 Z M 0.679688 0.398438 " fill="#000000" class="color000 svgShape"></path></clipPath><clipPath id="b"><rect width="364" height="317" fill="#000000" class="color000 svgShape"></rect></clipPath><clipPath id="g"><path d="M 0 0 L 364 0 L 364 316 L 0 316 Z M 0 0 " fill="#000000" class="color000 svgShape"></path></clipPath><clipPath id="h"><path d="M 120.261719 0.375 C 111.84375 0.375 104.972656 7.042969 104.972656 15.214844 L 104.972656 147.398438 C 104.972656 155.566406 111.84375 162.238281 120.261719 162.238281 L 304.414063 162.238281 C 312.839844 162.238281 319.707031 155.566406 319.707031 147.398438 L 319.707031 15.214844 C 319.707031 7.042969 312.839844 0.375 304.414063 0.375 Z M 120.261719 6.152344 L 304.414063 6.152344 C 309.640625 6.152344 313.75 10.144531 313.75 15.214844 L 313.75 147.398438 C 313.75 152.464844 309.640625 156.460938 304.414063 156.460938 L 120.261719 156.460938 C 115.042969 156.460938 110.925781 152.464844 110.925781 147.398438 L 110.925781 15.214844 C 110.925781 10.144531 115.042969 6.152344 120.261719 6.152344 Z M 211.835938 14.121094 C 207.125 14.121094 203.3125 17.820313 203.3125 22.394531 C 203.3125 26.960938 207.125 30.671875 211.835938 30.671875 C 216.542969 30.671875 220.359375 26.960938 220.359375 22.394531 C 220.359375 17.820313 216.542969 14.121094 211.835938 14.121094 Z M 142.75 36.726563 C 135.6875 36.726563 130.003906 42.238281 130.003906 49.085938 L 130.003906 129.402344 C 130.003906 136.257813 135.6875 141.773438 142.75 141.773438 L 281.9375 141.773438 C 288.996094 141.773438 294.679688 136.257813 294.679688 129.402344 L 294.679688 49.085938 C 294.679688 42.238281 288.996094 36.726563 281.9375 36.726563 Z M 62.492188 36.996094 C 43.335938 36.996094 27.902344 51.972656 27.902344 70.566406 L 27.902344 186.75 C 23.816406 192.652344 20.609375 200.230469 18.453125 209.824219 C 18.445313 209.851563 18.4375 209.882813 18.429688 209.90625 L 7.554688 266.457031 C 6.105469 273.613281 5.558594 280.847656 8.089844 286.847656 C 10.621094 292.839844 16.808594 297.015625 26.195313 297.015625 L 336.402344 297.015625 C 341.761719 297.015625 346.027344 296.605469 349.535156 295.476563 C 353.042969 294.351563 355.851563 292.332031 357.496094 289.515625 C 360.785156 283.882813 359.847656 276.4375 357.960938 265.839844 L 357.957031 265.828125 L 349.46875 215.753906 L 349.460938 215.726563 C 346.886719 199.535156 341.003906 187.335938 331.707031 179.246094 C 322.417969 171.160156 309.890625 167.40625 294.816406 167.488281 L 97.078125 167.488281 L 97.078125 70.566406 C 97.078125 51.972656 81.652344 36.996094 62.492188 36.996094 Z M 97.078125 173.269531 L 294.816406 173.269531 C 294.824219 173.269531 294.832031 173.269531 294.839844 173.269531 C 308.898438 173.1875 319.71875 176.574219 327.734375 183.550781 C 335.753906 190.527344 341.15625 201.304688 343.589844 216.632813 C 343.589844 216.648438 343.589844 216.65625 343.589844 216.664063 L 352.089844 266.78125 C 352.089844 266.789063 352.089844 266.796875 352.089844 266.804688 C 353.9375 277.175781 354.078125 283.640625 352.316406 286.667969 C 351.4375 288.175781 350.183594 289.183594 347.667969 289.996094 C 345.148438 290.796875 341.425781 291.242188 336.402344 291.242188 L 26.195313 291.242188 C 18.394531 291.242188 15.328125 288.761719 13.59375 284.65625 C 11.867188 280.546875 12.046875 274.214844 13.390625 267.578125 C 13.398438 267.5625 13.398438 267.554688 13.398438 267.546875 L 24.273438 211.023438 C 25.289063 206.539063 26.503906 202.605469 27.902344 199.148438 L 27.902344 222.003906 C 27.902344 240.597656 43.335938 255.574219 62.492188 255.574219 C 81.652344 255.574219 97.078125 240.597656 97.078125 222.003906 Z M 150.429688 191.730469 C 146.910156 191.730469 144.054688 194.5 144.054688 197.917969 C 144.054688 201.34375 146.910156 204.113281 150.429688 204.113281 L 278.601563 204.113281 C 282.125 204.113281 284.976563 201.34375 284.976563 197.917969 C 284.976563 194.5 282.125 191.730469 278.601563 191.730469 Z M 168.34375 218.054688 C 164.820313 218.054688 161.96875 220.824219 161.96875 224.242188 C 161.96875 227.667969 164.820313 230.4375 168.34375 230.4375 L 181.320313 230.4375 C 184.84375 230.4375 187.695313 227.667969 187.695313 224.242188 C 187.695313 220.824219 184.84375 218.054688 181.320313 218.054688 Z M 207.214844 218.054688 C 203.695313 218.054688 200.832031 220.824219 200.832031 224.242188 C 200.832031 227.667969 203.695313 230.4375 207.214844 230.4375 L 220.195313 230.4375 C 223.714844 230.4375 226.570313 227.667969 226.570313 224.242188 C 226.570313 220.824219 223.714844 218.054688 220.195313 218.054688 Z M 245.945313 218.054688 C 242.425781 218.054688 239.570313 220.824219 239.570313 224.242188 C 239.570313 227.667969 242.425781 230.4375 245.945313 230.4375 L 258.925781 230.4375 C 262.445313 230.4375 265.300781 227.667969 265.300781 224.242188 C 265.300781 220.824219 262.445313 218.054688 258.925781 218.054688 Z M 164.03125 241.378906 C 160.511719 241.378906 157.65625 244.152344 157.65625 247.570313 C 157.65625 250.984375 160.511719 253.757813 164.03125 253.757813 L 177.003906 253.757813 C 180.523438 253.757813 183.378906 250.984375 183.378906 247.570313 C 183.378906 244.152344 180.523438 241.378906 177.003906 241.378906 Z M 207.214844 241.378906 C 203.695313 241.378906 200.839844 244.152344 200.839844 247.570313 C 200.839844 250.984375 203.695313 253.757813 207.214844 253.757813 L 220.195313 253.757813 C 223.707031 253.757813 226.5625 250.984375 226.5625 247.570313 C 226.5625 244.152344 223.707031 241.378906 220.195313 241.378906 Z M 250.738281 241.378906 C 247.222656 241.378906 244.371094 244.152344 244.371094 247.570313 C 244.371094 250.984375 247.222656 253.757813 250.738281 253.757813 L 263.714844 253.757813 C 267.238281 253.757813 270.09375 250.984375 270.09375 247.570313 C 270.09375 244.152344 267.238281 241.378906 263.714844 241.378906 Z M 159.234375 264.664063 C 155.710938 264.664063 152.855469 267.433594 152.855469 270.851563 C 152.855469 274.269531 155.710938 277.039063 159.234375 277.039063 L 172.210938 277.039063 C 175.734375 277.039063 178.59375 274.269531 178.59375 270.851563 C 178.59375 267.433594 175.734375 264.664063 172.210938 264.664063 Z M 207.300781 264.664063 C 203.769531 264.664063 200.914063 267.433594 200.914063 270.851563 C 200.914063 274.269531 203.769531 277.039063 207.300781 277.039063 L 220.277344 277.039063 C 223.800781 277.039063 226.652344 274.269531 226.652344 270.851563 C 226.652344 267.433594 223.800781 264.664063 220.277344 264.664063 Z M 255.441406 264.664063 C 251.917969 264.664063 249.0625 267.433594 249.0625 270.851563 C 249.0625 274.269531 251.917969 277.039063 255.441406 277.039063 L 268.417969 277.039063 C 271.941406 277.039063 274.800781 274.269531 274.800781 270.851563 C 274.800781 267.433594 271.941406 264.664063 268.417969 264.664063 Z M 0.375 290.371094 L 0.375 303.632813 C 0.375 311.285156 7.039063 315.734375 19.910156 315.734375 L 354.117188 315.808594 C 359.269531 314.464844 363.113281 309.949219 363.113281 304.316406 L 363.015625 291.488281 C 361.378906 296.394531 352.335938 303.566406 347.554688 303.566406 L 23.539063 304.460938 C 12.070313 304.460938 4.429688 298.136719 0.375 290.371094 Z M 0.375 290.371094 " fill="#000000" class="color000 svgShape"></path></clipPath><linearGradient id="i" x1="0" x2="0" y1="0" y2="1" gradientTransform="matrix(362.73941 0 0 315.4321 .376 .376)" gradientUnits="userSpaceOnUse"><stop offset="0" stop-color="#5c6970" class="stopColor0C6 svgShape"></stop><stop offset=".008" stop-color="#5c6970" class="stopColor0C6 svgShape"></stop><stop offset=".016" stop-color="#5b6970" class="stopColor00CB65 svgShape"></stop><stop offset=".023" stop-color="#5b686f" class="stopColor00CA65 svgShape"></stop><stop offset=".031" stop-color="#5a686f" class="stopColor00C965 svgShape"></stop><stop offset=".039" stop-color="#5a676e" class="stopColor00C864 svgShape"></stop><stop offset=".047" stop-color="#5a676e" class="stopColor00C864 svgShape"></stop><stop offset=".055" stop-color="#5a676d" class="stopColor00C763 svgShape"></stop><stop offset=".063" stop-color="#59666d" class="stopColor00C663 svgShape"></stop><stop offset=".07" stop-color="#59666c" class="stopColor00C563 svgShape"></stop><stop offset=".078" stop-color="#58656c" class="stopColor00C462 svgShape"></stop><stop offset=".086" stop-color="#58656c" class="stopColor00C462 svgShape"></stop><stop offset=".094" stop-color="#58656b" class="stopColor00C361 svgShape"></stop><stop offset=".102" stop-color="#57646b" class="stopColor00C261 svgShape"></stop><stop offset=".109" stop-color="#57646a" class="stopColor00C161 svgShape"></stop><stop offset=".117" stop-color="#56636a" class="stopColor00C060 svgShape"></stop><stop offset=".125" stop-color="#56636a" class="stopColor00C060 svgShape"></stop><stop offset=".133" stop-color="#566369" class="stopColor00BF5F svgShape"></stop><stop offset=".141" stop-color="#556268" class="stopColor00BE5F svgShape"></stop><stop offset=".148" stop-color="#556268" class="stopColor00BD5F svgShape"></stop><stop offset=".156" stop-color="#556167" class="stopColor00BC5E svgShape"></stop><stop offset=".164" stop-color="#556167" class="stopColor00BC5E svgShape"></stop><stop offset=".172" stop-color="#546167" class="stopColor00BB5D svgShape"></stop><stop offset=".18" stop-color="#546066" class="stopColor00BA5D svgShape"></stop><stop offset=".188" stop-color="#536066" class="stopColor00B95D svgShape"></stop><stop offset=".195" stop-color="#535f65" class="stopColor00B85C svgShape"></stop><stop offset=".203" stop-color="#535f65" class="stopColor00B85C svgShape"></stop><stop offset=".211" stop-color="#525f65" class="stopColor00B75B svgShape"></stop><stop offset=".219" stop-color="#525e64" class="stopColor00B65B svgShape"></stop><stop offset=".227" stop-color="#515e64" class="stopColor00B55B svgShape"></stop><stop offset=".234" stop-color="#515d63" class="stopColor00B45A svgShape"></stop><stop offset=".242" stop-color="#515d63" class="stopColor00B45A svgShape"></stop><stop offset=".25" stop-color="#515c62" class="stopColor00B359 svgShape"></stop><stop offset=".258" stop-color="#505c62" class="stopColor00B259 svgShape"></stop><stop offset=".266" stop-color="#505b61" class="stopColor00B159 svgShape"></stop><stop offset=".273" stop-color="#505b61" class="stopColor00B158 svgShape"></stop><stop offset=".281" stop-color="#4f5b61" class="stopColor00B058 svgShape"></stop><stop offset=".289" stop-color="#4f5a60" class="stopColor00AF57 svgShape"></stop><stop offset=".297" stop-color="#4e5a60" class="stopColor00AE57 svgShape"></stop><stop offset=".305" stop-color="#4e595f" class="stopColor00AD57 svgShape"></stop><stop offset=".313" stop-color="#4e595f" class="stopColor00AD56 svgShape"></stop><stop offset=".32" stop-color="#4d595f" class="stopColor00AC56 svgShape"></stop><stop offset=".328" stop-color="#4d585e" class="stopColor00AB55 svgShape"></stop><stop offset=".336" stop-color="#4c585d" class="stopColor0A5 svgShape"></stop><stop offset=".344" stop-color="#4c575d" class="stopColor00A955 svgShape"></stop><stop offset=".352" stop-color="#4c575d" class="stopColor00A954 svgShape"></stop><stop offset=".359" stop-color="#4c575c" class="stopColor00A854 svgShape"></stop><stop offset=".367" stop-color="#4b565c" class="stopColor00A753 svgShape"></stop><stop offset=".375" stop-color="#4b565b" class="stopColor00A653 svgShape"></stop><stop offset=".383" stop-color="#4a555b" class="stopColor00A553 svgShape"></stop><stop offset=".391" stop-color="#4a555b" class="stopColor00A552 svgShape"></stop><stop offset=".398" stop-color="#4a555a" class="stopColor00A452 svgShape"></stop><stop offset=".406" stop-color="#49545a" class="stopColor00A351 svgShape"></stop><stop offset=".414" stop-color="#495459" class="stopColor00A251 svgShape"></stop><stop offset=".422" stop-color="#485359" class="stopColor00A151 svgShape"></stop><stop offset=".43" stop-color="#485359" class="stopColor00A150 svgShape"></stop><stop offset=".438" stop-color="#485358" class="stopColor00A050 svgShape"></stop><stop offset=".445" stop-color="#485257" class="stopColor009F4F svgShape"></stop><stop offset=".453" stop-color="#475257" class="stopColor009E4F svgShape"></stop><stop offset=".461" stop-color="#475156" class="stopColor009D4F svgShape"></stop><stop offset=".469" stop-color="#475156" class="stopColor009D4E svgShape"></stop><stop offset=".477" stop-color="#465156" class="stopColor009C4E svgShape"></stop><stop offset=".484" stop-color="#465055" class="stopColor009B4D svgShape"></stop><stop offset=".492" stop-color="#455055" class="stopColor009A4D svgShape"></stop><stop offset=".5" stop-color="#454f54" class="stopColor00994D svgShape"></stop><stop offset=".508" stop-color="#454f54" class="stopColor00994C svgShape"></stop><stop offset=".516" stop-color="#444f54" class="stopColor00984C svgShape"></stop><stop offset=".523" stop-color="#444e53" class="stopColor00974C svgShape"></stop><stop offset=".531" stop-color="#434d52" class="stopColor00964B svgShape"></stop><stop offset=".539" stop-color="#434d52" class="stopColor00954B svgShape"></stop><stop offset=".547" stop-color="#434d52" class="stopColor00954A svgShape"></stop><stop offset=".555" stop-color="#434c51" class="stopColor00944A svgShape"></stop><stop offset=".563" stop-color="#424c51" class="stopColor00934A svgShape"></stop><stop offset=".57" stop-color="#424b50" class="stopColor009249 svgShape"></stop><stop offset=".578" stop-color="#414b50" class="stopColor009149 svgShape"></stop><stop offset=".586" stop-color="#414b50" class="stopColor009148 svgShape"></stop><stop offset=".594" stop-color="#414a4f" class="stopColor009048 svgShape"></stop><stop offset=".602" stop-color="#404a4f" class="stopColor008F48 svgShape"></stop><stop offset=".609" stop-color="#40494e" class="stopColor008E47 svgShape"></stop><stop offset=".617" stop-color="#3f494e" class="stopColor008D47 svgShape"></stop><stop offset=".625" stop-color="#3f494e" class="stopColor008D46 svgShape"></stop><stop offset=".633" stop-color="#3f484d" class="stopColor008C46 svgShape"></stop><stop offset=".641" stop-color="#3f484c" class="stopColor008B46 svgShape"></stop><stop offset=".648" stop-color="#3e474c" class="stopColor008A45 svgShape"></stop><stop offset=".656" stop-color="#3e474b" class="stopColor008945 svgShape"></stop><stop offset=".664" stop-color="#3e474b" class="stopColor008944 svgShape"></stop><stop offset=".672" stop-color="#3d464b" class="stopColor084 svgShape"></stop><stop offset=".68" stop-color="#3d464a" class="stopColor008744 svgShape"></stop><stop offset=".688" stop-color="#3c454a" class="stopColor008643 svgShape"></stop><stop offset=".695" stop-color="#3c4549" class="stopColor008543 svgShape"></stop><stop offset=".703" stop-color="#3c4549" class="stopColor008542 svgShape"></stop><stop offset=".711" stop-color="#3b4449" class="stopColor008442 svgShape"></stop><stop offset=".719" stop-color="#3b4448" class="stopColor008342 svgShape"></stop><stop offset=".727" stop-color="#3a4347" class="stopColor008241 svgShape"></stop><stop offset=".734" stop-color="#3a4347" class="stopColor008141 svgShape"></stop><stop offset=".742" stop-color="#3a4347" class="stopColor008140 svgShape"></stop><stop offset=".75" stop-color="#3a4246" class="stopColor008040 svgShape"></stop><stop offset=".758" stop-color="#394246" class="stopColor007F40 svgShape"></stop><stop offset=".766" stop-color="#394145" class="stopColor007E3F svgShape"></stop><stop offset=".773" stop-color="#394145" class="stopColor007E3F svgShape"></stop><stop offset=".781" stop-color="#384145" class="stopColor007D3E svgShape"></stop><stop offset=".789" stop-color="#384044" class="stopColor007C3E svgShape"></stop><stop offset=".797" stop-color="#374044" class="stopColor007B3E svgShape"></stop><stop offset=".805" stop-color="#373f43" class="stopColor007A3D svgShape"></stop><stop offset=".813" stop-color="#373f43" class="stopColor007A3D svgShape"></stop><stop offset=".82" stop-color="#363f43" class="stopColor00793C svgShape"></stop><stop offset=".828" stop-color="#363e42" class="stopColor00783C svgShape"></stop><stop offset=".836" stop-color="#363d41" class="stopColor00773C svgShape"></stop><stop offset=".844" stop-color="#353d41" class="stopColor00763B svgShape"></stop><stop offset=".852" stop-color="#353d41" class="stopColor00763B svgShape"></stop><stop offset=".859" stop-color="#353c40" class="stopColor00753A svgShape"></stop><stop offset=".867" stop-color="#343c40" class="stopColor00743A svgShape"></stop><stop offset=".875" stop-color="#343b3f" class="stopColor00733A svgShape"></stop><stop offset=".883" stop-color="#333b3f" class="stopColor007239 svgShape"></stop><stop offset=".891" stop-color="#333b3f" class="stopColor007239 svgShape"></stop><stop offset=".898" stop-color="#333a3e" class="stopColor007138 svgShape"></stop><stop offset=".906" stop-color="#323a3e" class="stopColor007038 svgShape"></stop><stop offset=".914" stop-color="#32393d" class="stopColor006F38 svgShape"></stop><stop offset=".922" stop-color="#31393c" class="stopColor006E37 svgShape"></stop><stop offset=".93" stop-color="#31393c" class="stopColor006E37 svgShape"></stop><stop offset=".938" stop-color="#31383c" class="stopColor006D36 svgShape"></stop><stop offset=".945" stop-color="#31383b" class="stopColor006C36 svgShape"></stop><stop offset=".953" stop-color="#30373b" class="stopColor006B36 svgShape"></stop><stop offset=".961" stop-color="#30373a" class="stopColor006A35 svgShape"></stop><stop offset=".969" stop-color="#30373a" class="stopColor006A35 svgShape"></stop><stop offset=".977" stop-color="#2f363a" class="stopColor006934 svgShape"></stop><stop offset=".984" stop-color="#2f3639" class="stopColor006834 svgShape"></stop><stop offset=".992" stop-color="#2e3539" class="stopColor006734 svgShape"></stop><stop offset="1" stop-color="#2e3538" class="stopColor063 svgShape"></stop></linearGradient><filter id="a" width="1" height="1" x="0" y="0"><feColorMatrix color-interpolation-filters="sRGB" values="0 0 0 0 1 0 0 0 0 1 0 0 0 0 1 0 0 0 1 0"></feColorMatrix></filter><mask id="e"><g filter="url(#a)" fill="#000000" class="color000 svgShape"><rect width="438.048" height="383.904" x="-36.504" y="-31.992" fill-opacity=".25" fill="#000000" class="color000 svgShape"></rect></g></mask><g clip-path="url(#b)" fill="#000000" class="color000 svgShape"><g id="f" clip-path="url(#c)" fill="#000000" class="color000 svgShape"><path d="M 120.765625 0.628906 C 112.34375 0.628906 105.472656 7.296875 105.472656 15.46875 L 105.472656 147.648438 C 105.472656 155.820313 112.34375 162.492188 120.765625 162.492188 L 304.917969 162.492188 C 313.34375 162.492188 320.207031 155.820313 320.207031 147.648438 L 320.207031 15.46875 C 320.207031 7.296875 313.34375 0.628906 304.917969 0.628906 Z M 120.765625 6.402344 L 304.917969 6.402344 C 310.144531 6.402344 314.25 10.398438 314.25 15.46875 L 314.25 147.648438 C 314.25 152.71875 310.144531 156.714844 304.917969 156.714844 L 120.765625 156.714844 C 115.542969 156.714844 111.429688 152.71875 111.429688 147.648438 L 111.429688 15.46875 C 111.429688 10.398438 115.542969 6.402344 120.765625 6.402344 Z M 212.335938 14.371094 C 207.628906 14.371094 203.8125 18.074219 203.8125 22.648438 C 203.8125 27.214844 207.628906 30.925781 212.335938 30.925781 C 217.046875 30.925781 220.863281 27.214844 220.863281 22.648438 C 220.863281 18.074219 217.046875 14.371094 212.335938 14.371094 Z M 143.25 36.976563 C 136.191406 36.976563 130.503906 42.492188 130.503906 49.339844 L 130.503906 129.65625 C 130.503906 136.511719 136.191406 142.023438 143.25 142.023438 L 282.4375 142.023438 C 289.496094 142.023438 295.183594 136.511719 295.183594 129.65625 L 295.183594 49.339844 C 295.183594 42.492188 289.496094 36.976563 282.4375 36.976563 Z M 62.996094 37.25 C 43.835938 37.25 28.402344 52.222656 28.402344 70.820313 L 28.402344 187.003906 C 24.316406 192.90625 21.109375 200.484375 18.953125 210.074219 C 18.949219 210.105469 18.941406 210.136719 18.933594 210.15625 L 8.058594 266.710938 C 6.609375 273.867188 6.058594 281.101563 8.589844 287.101563 C 11.121094 293.09375 17.308594 297.269531 26.699219 297.269531 L 336.902344 297.269531 C 342.265625 297.269531 346.53125 296.855469 350.039063 295.730469 C 353.546875 294.605469 356.355469 292.582031 358 289.765625 C 361.289063 284.132813 360.351563 276.691406 358.464844 266.09375 L 358.457031 266.078125 L 349.972656 216.007813 L 349.964844 215.980469 C 347.386719 199.785156 341.507813 187.589844 332.207031 179.5 C 322.917969 171.414063 310.390625 167.65625 295.320313 167.738281 L 97.578125 167.738281 L 97.578125 70.820313 C 97.578125 52.222656 82.152344 37.25 62.996094 37.25 Z M 97.578125 173.523438 L 295.320313 173.523438 C 295.324219 173.523438 295.332031 173.523438 295.339844 173.523438 C 309.398438 173.441406 320.222656 176.828125 328.234375 183.804688 C 336.257813 190.78125 341.65625 201.558594 344.089844 216.886719 C 344.089844 216.902344 344.089844 216.910156 344.089844 216.917969 L 352.59375 267.035156 C 352.59375 267.042969 352.59375 267.046875 352.59375 267.054688 C 354.4375 277.429688 354.582031 283.894531 352.816406 286.921875 C 351.9375 288.429688 350.683594 289.4375 348.167969 290.246094 C 345.652344 291.050781 341.925781 291.496094 336.902344 291.496094 L 26.699219 291.496094 C 18.894531 291.496094 15.832031 289.015625 14.09375 284.90625 C 12.367188 280.800781 12.546875 274.46875 13.894531 267.828125 C 13.902344 267.816406 13.902344 267.808594 13.902344 267.800781 L 24.773438 211.277344 C 25.789063 206.792969 27.007813 202.859375 28.402344 199.402344 L 28.402344 222.257813 C 28.402344 240.851563 43.835938 255.828125 62.996094 255.828125 C 82.152344 255.828125 97.578125 240.851563 97.578125 222.257813 Z M 150.933594 191.984375 C 147.410156 191.984375 144.558594 194.753906 144.558594 198.171875 C 144.558594 201.597656 147.410156 204.367188 150.933594 204.367188 L 279.105469 204.367188 C 282.625 204.367188 285.480469 201.597656 285.480469 198.171875 C 285.480469 194.753906 282.625 191.984375 279.105469 191.984375 Z M 168.84375 218.308594 C 165.324219 218.308594 162.46875 221.078125 162.46875 224.496094 C 162.46875 227.921875 165.324219 230.691406 168.84375 230.691406 L 181.824219 230.691406 C 185.34375 230.691406 188.199219 227.921875 188.199219 224.496094 C 188.199219 221.078125 185.34375 218.308594 181.824219 218.308594 Z M 207.71875 218.308594 C 204.195313 218.308594 201.335938 221.078125 201.335938 224.496094 C 201.335938 227.921875 204.195313 230.691406 207.71875 230.691406 L 220.695313 230.691406 C 224.21875 230.691406 227.074219 227.921875 227.074219 224.496094 C 227.074219 221.078125 224.21875 218.308594 220.695313 218.308594 Z M 246.449219 218.308594 C 242.925781 218.308594 240.074219 221.078125 240.074219 224.496094 C 240.074219 227.921875 242.925781 230.691406 246.449219 230.691406 L 259.425781 230.691406 C 262.949219 230.691406 265.804688 227.921875 265.804688 224.496094 C 265.804688 221.078125 262.949219 218.308594 259.425781 218.308594 Z M 164.535156 241.632813 C 161.011719 241.632813 158.15625 244.40625 158.15625 247.820313 C 158.15625 251.238281 161.011719 254.011719 164.535156 254.011719 L 177.503906 254.011719 C 181.027344 254.011719 183.878906 251.238281 183.878906 247.820313 C 183.878906 244.40625 181.027344 241.632813 177.503906 241.632813 Z M 207.71875 241.632813 C 204.195313 241.632813 201.34375 244.40625 201.34375 247.820313 C 201.34375 251.238281 204.195313 254.011719 207.71875 254.011719 L 220.695313 254.011719 C 224.210938 254.011719 227.066406 251.238281 227.066406 247.820313 C 227.066406 244.40625 224.210938 241.632813 220.695313 241.632813 Z M 251.242188 241.632813 C 247.726563 241.632813 244.871094 244.40625 244.871094 247.820313 C 244.871094 251.238281 247.726563 254.011719 251.242188 254.011719 L 264.21875 254.011719 C 267.742188 254.011719 270.59375 251.238281 270.59375 247.820313 C 270.59375 244.40625 267.742188 241.632813 264.21875 241.632813 Z M 159.734375 264.914063 C 156.210938 264.914063 153.359375 267.6875 153.359375 271.105469 C 153.359375 274.519531 156.210938 277.292969 159.734375 277.292969 L 172.714844 277.292969 C 176.234375 277.292969 179.097656 274.519531 179.097656 271.105469 C 179.097656 267.6875 176.234375 264.914063 172.714844 264.914063 Z M 207.800781 264.914063 C 204.269531 264.914063 201.417969 267.6875 201.417969 271.105469 C 201.417969 274.519531 204.269531 277.292969 207.800781 277.292969 L 220.777344 277.292969 C 224.300781 277.292969 227.15625 274.519531 227.15625 271.105469 C 227.15625 267.6875 224.300781 264.914063 220.777344 264.914063 Z M 255.941406 264.914063 C 252.417969 264.914063 249.566406 267.6875 249.566406 271.105469 C 249.566406 274.519531 252.417969 277.292969 255.941406 277.292969 L 268.917969 277.292969 C 272.441406 277.292969 275.304688 274.519531 275.304688 271.105469 C 275.304688 267.6875 272.441406 264.914063 268.917969 264.914063 Z M 0.878906 290.625 L 0.878906 303.886719 C 0.878906 311.539063 7.539063 315.984375 20.410156 315.984375 L 354.621094 316.0625 C 359.773438 314.714844 363.617188 310.203125 363.617188 304.570313 L 363.519531 291.742188 C 361.882813 296.648438 352.839844 303.820313 348.054688 303.820313 L 24.039063 304.710938 C 12.570313 304.710938 4.933594 298.390625 0.878906 290.625 Z M 0.878906 290.625 " fill="#000000" class="color000 svgShape"></path></g></g></defs><g clip-path="url(#d)" mask="url(#e)" fill="#000000" class="color000 svgShape"><use transform="translate(1 2)" xlink:href="#f"></use></g><g clip-path="url(#g)" fill="#000000" class="color000 svgShape"><g clip-path="url(#h)" fill="#000000" class="color000 svgShape"><path fill="url(#i)" d="M 0.375,0.375 V 315.80859 H 363.11328 V 0.375 Z m 0,0"></path></g></g></svg></g></svg>