<svg id="SvgjsSvg2288" width="288" height="288" xmlns="http://www.w3.org/2000/svg" version="1.1" xmlns:xlink="http://www.w3.org/1999/xlink" xmlns:svgjs="http://svgjs.com/svgjs"><defs id="SvgjsDefs2289"></defs><g id="SvgjsG2290"><svg xmlns="http://www.w3.org/2000/svg" xmlns:xlink="http://www.w3.org/1999/xlink" viewBox="0 0 564.96 244.08" width="288" height="288"><defs><path id="d" d="M 10.765625 0 L 0.65625 -38.140625 L 5.828125 -38.140625 L 11.625 -13.140625 C 12.25 -10.515625 12.789063 -7.910156 13.25 -5.328125 C 14.21875 -9.410156 14.785156 -11.765625 14.953125 -12.390625 L 22.21875 -38.140625 L 28.3125 -38.140625 L 33.765625 -18.828125 C 35.140625 -14.046875 36.128906 -9.546875 36.734375 -5.328125 C 37.222656 -7.742188 37.859375 -10.507813 38.640625 -13.625 L 44.625 -38.140625 L 49.6875 -38.140625 L 39.234375 0 L 34.375 0 L 26.328125 -29.0625 C 25.648438 -31.488281 25.25 -32.976563 25.125 -33.53125 C 24.726563 -31.78125 24.359375 -30.289063 24.015625 -29.0625 L 15.921875 0 Z M 10.765625 0 " fill="#000000" class="color000 svgShape"></path><path id="e" d="M 22.421875 -8.890625 L 27.265625 -8.296875 C 26.503906 -5.472656 25.085938 -3.28125 23.015625 -1.71875 C 20.953125 -0.15625 18.316406 0.625 15.109375 0.625 C 11.066406 0.625 7.863281 -0.617188 5.5 -3.109375 C 3.132813 -5.597656 1.953125 -9.085938 1.953125 -13.578125 C 1.953125 -18.222656 3.144531 -21.828125 5.53125 -24.390625 C 7.925781 -26.960938 11.035156 -28.25 14.859375 -28.25 C 18.546875 -28.25 21.5625 -26.988281 23.90625 -24.46875 C 26.25 -21.957031 27.421875 -18.421875 27.421875 -13.859375 C 27.421875 -13.585938 27.410156 -13.175781 27.390625 -12.625 L 6.796875 -12.625 C 6.960938 -9.582031 7.816406 -7.253906 9.359375 -5.640625 C 10.910156 -4.023438 12.835938 -3.21875 15.140625 -3.21875 C 16.859375 -3.21875 18.320313 -3.671875 19.53125 -4.578125 C 20.75 -5.484375 21.710938 -6.921875 22.421875 -8.890625 Z M 7.046875 -16.46875 L 22.484375 -16.46875 C 22.273438 -18.789063 21.679688 -20.535156 20.703125 -21.703125 C 19.210938 -23.503906 17.28125 -24.40625 14.90625 -24.40625 C 12.757813 -24.40625 10.953125 -23.679688 9.484375 -22.234375 C 8.015625 -20.796875 7.203125 -18.875 7.046875 -16.46875 Z M 7.046875 -16.46875 " fill="#000000" class="color000 svgShape"></path><path id="f" d="M 3.40625 0 L 3.40625 -38.140625 L 8.09375 -38.140625 L 8.09375 0 Z M 3.40625 0 " fill="#000000" class="color000 svgShape"></path><path id="g" d="M 21.546875 -10.125 L 26.140625 -9.515625 C 25.640625 -6.347656 24.351563 -3.863281 22.28125 -2.0625 C 20.207031 -0.269531 17.660156 0.625 14.640625 0.625 C 10.859375 0.625 7.816406 -0.609375 5.515625 -3.078125 C 3.222656 -5.554688 2.078125 -9.097656 2.078125 -13.703125 C 2.078125 -16.691406 2.570313 -19.300781 3.5625 -21.53125 C 4.550781 -23.769531 6.054688 -25.445313 8.078125 -26.5625 C 10.097656 -27.6875 12.296875 -28.25 14.671875 -28.25 C 17.671875 -28.25 20.125 -27.488281 22.03125 -25.96875 C 23.9375 -24.457031 25.160156 -22.304688 25.703125 -19.515625 L 21.15625 -18.8125 C 20.71875 -20.664063 19.945313 -22.0625 18.84375 -23 C 17.75 -23.9375 16.421875 -24.40625 14.859375 -24.40625 C 12.492188 -24.40625 10.570313 -23.554688 9.09375 -21.859375 C 7.625 -20.171875 6.890625 -17.5 6.890625 -13.84375 C 6.890625 -10.125 7.597656 -7.421875 9.015625 -5.734375 C 10.441406 -4.054688 12.300781 -3.21875 14.59375 -3.21875 C 16.4375 -3.21875 17.972656 -3.78125 19.203125 -4.90625 C 20.429688 -6.039063 21.210938 -7.78125 21.546875 -10.125 Z M 21.546875 -10.125 " fill="#000000" class="color000 svgShape"></path><path id="h" d="M 1.765625 -13.8125 C 1.765625 -18.925781 3.1875 -22.71875 6.03125 -25.1875 C 8.40625 -27.226563 11.300781 -28.25 14.71875 -28.25 C 18.519531 -28.25 21.625 -27.003906 24.03125 -24.515625 C 26.445313 -22.023438 27.65625 -18.585938 27.65625 -14.203125 C 27.65625 -10.648438 27.117188 -7.851563 26.046875 -5.8125 C 24.984375 -3.769531 23.429688 -2.1875 21.390625 -1.0625 C 19.359375 0.0625 17.132813 0.625 14.71875 0.625 C 10.851563 0.625 7.726563 -0.613281 5.34375 -3.09375 C 2.957031 -5.570313 1.765625 -9.144531 1.765625 -13.8125 Z M 6.578125 -13.8125 C 6.578125 -10.269531 7.347656 -7.617188 8.890625 -5.859375 C 10.441406 -4.097656 12.382813 -3.21875 14.71875 -3.21875 C 17.050781 -3.21875 18.988281 -4.101563 20.53125 -5.875 C 22.070313 -7.644531 22.84375 -10.34375 22.84375 -13.96875 C 22.84375 -17.382813 22.066406 -19.972656 20.515625 -21.734375 C 18.960938 -23.492188 17.03125 -24.375 14.71875 -24.375 C 12.382813 -24.375 10.441406 -23.5 8.890625 -21.75 C 7.347656 -20 6.578125 -17.351563 6.578125 -13.8125 Z M 6.578125 -13.8125 " fill="#000000" class="color000 svgShape"></path><path id="i" d="M 3.515625 0 L 3.515625 -27.625 L 7.703125 -27.625 L 7.703125 -23.75 C 8.566406 -25.101563 9.71875 -26.191406 11.15625 -27.015625 C 12.601563 -27.835938 14.242188 -28.25 16.078125 -28.25 C 18.117188 -28.25 19.796875 -27.820313 21.109375 -26.96875 C 22.421875 -26.125 23.347656 -24.941406 23.890625 -23.421875 C 26.066406 -26.640625 28.910156 -28.25 32.421875 -28.25 C 35.160156 -28.25 37.265625 -27.488281 38.734375 -25.96875 C 40.210938 -24.457031 40.953125 -22.125 40.953125 -18.96875 L 40.953125 0 L 36.296875 0 L 36.296875 -17.40625 C 36.296875 -19.28125 36.140625 -20.628906 35.828125 -21.453125 C 35.523438 -22.273438 34.972656 -22.9375 34.171875 -23.4375 C 33.378906 -23.9375 32.445313 -24.1875 31.375 -24.1875 C 29.4375 -24.1875 27.820313 -23.539063 26.53125 -22.25 C 25.25 -20.957031 24.609375 -18.890625 24.609375 -16.046875 L 24.609375 0 L 19.921875 0 L 19.921875 -17.953125 C 19.921875 -20.035156 19.539063 -21.59375 18.78125 -22.625 C 18.019531 -23.664063 16.769531 -24.1875 15.03125 -24.1875 C 13.71875 -24.1875 12.5 -23.835938 11.375 -23.140625 C 10.257813 -22.453125 9.445313 -21.441406 8.9375 -20.109375 C 8.4375 -18.773438 8.1875 -16.847656 8.1875 -14.328125 L 8.1875 0 Z M 3.515625 0 " fill="#000000" class="color000 svgShape"></path><path id="k" d="M 13.734375 -4.1875 L 14.40625 -0.046875 C 13.09375 0.222656 11.914063 0.359375 10.875 0.359375 C 9.175781 0.359375 7.859375 0.09375 6.921875 -0.4375 C 5.984375 -0.976563 5.320313 -1.6875 4.9375 -2.5625 C 4.5625 -3.4375 4.375 -5.28125 4.375 -8.09375 L 4.375 -23.984375 L 0.9375 -23.984375 L 0.9375 -27.625 L 4.375 -27.625 L 4.375 -34.46875 L 9.03125 -37.28125 L 9.03125 -27.625 L 13.734375 -27.625 L 13.734375 -23.984375 L 9.03125 -23.984375 L 9.03125 -7.828125 C 9.03125 -6.492188 9.109375 -5.632813 9.265625 -5.25 C 9.429688 -4.875 9.703125 -4.570313 10.078125 -4.34375 C 10.453125 -4.113281 10.988281 -4 11.6875 -4 C 12.207031 -4 12.890625 -4.0625 13.734375 -4.1875 Z M 13.734375 -4.1875 " fill="#000000" class="color000 svgShape"></path><path id="l" d="M 4.0625 0 L 4.0625 -38.140625 L 9.234375 -38.140625 L 29.265625 -8.1875 L 29.265625 -38.140625 L 34.109375 -38.140625 L 34.109375 0 L 28.9375 0 L 8.890625 -29.96875 L 8.890625 0 Z M 4.0625 0 " fill="#000000" class="color000 svgShape"></path><path id="m" d="M 4.265625 0 L 4.265625 -38.140625 L 9.3125 -38.140625 L 9.3125 -22.484375 L 29.140625 -22.484375 L 29.140625 -38.140625 L 34.1875 -38.140625 L 34.1875 0 L 29.140625 0 L 29.140625 -17.984375 L 9.3125 -17.984375 L 9.3125 0 Z M 4.265625 0 " fill="#000000" class="color000 svgShape"></path><path id="n" d="M -0.078125 0 L 14.5625 -38.140625 L 20 -38.140625 L 35.609375 0 L 29.859375 0 L 25.421875 -11.546875 L 9.46875 -11.546875 L 5.28125 0 Z M 10.921875 -15.65625 L 23.859375 -15.65625 L 19.875 -26.21875 C 18.664063 -29.425781 17.765625 -32.066406 17.171875 -34.140625 C 16.679688 -31.691406 15.992188 -29.257813 15.109375 -26.84375 Z M 10.921875 -15.65625 " fill="#000000" class="color000 svgShape"></path><path id="o" d="M 4.96875 0 L 4.96875 -38.140625 L 10.015625 -38.140625 L 10.015625 0 Z M 4.96875 0 " fill="#000000" class="color000 svgShape"></path><clipPath id="a"><path d="M 0.75 0.75 L 563.5 0.75 L 563.5 203.917969 L 0.75 203.917969 Z M 0.75 0.75 " fill="#000000" class="color000 svgShape"></path></clipPath><clipPath id="c"><path d="M 0 0 L 564.960938 0 L 564.960938 205 L 0 205 Z M 0 0 " fill="#000000" class="color000 svgShape"></path></clipPath><linearGradient id="b" x1="0" x2="0" y1="0" y2="1" gradientTransform="matrix(562.74902 0 0 203.16739 .75 .75)" gradientUnits="userSpaceOnUse"><stop offset="0" stop-color="#5c6970" class="stopColor0C6 svgShape"></stop><stop offset=".008" stop-color="#5c6970" class="stopColor0C6 svgShape"></stop><stop offset=".016" stop-color="#5b6970" class="stopColor00CB65 svgShape"></stop><stop offset=".023" stop-color="#5b686f" class="stopColor00CA65 svgShape"></stop><stop offset=".031" stop-color="#5a686f" class="stopColor00C965 svgShape"></stop><stop offset=".039" stop-color="#5a676e" class="stopColor00C864 svgShape"></stop><stop offset=".047" stop-color="#5a676e" class="stopColor00C864 svgShape"></stop><stop offset=".055" stop-color="#5a676d" class="stopColor00C763 svgShape"></stop><stop offset=".063" stop-color="#59666d" class="stopColor00C663 svgShape"></stop><stop offset=".07" stop-color="#59666c" class="stopColor00C563 svgShape"></stop><stop offset=".078" stop-color="#58656c" class="stopColor00C462 svgShape"></stop><stop offset=".086" stop-color="#58656c" class="stopColor00C462 svgShape"></stop><stop offset=".094" stop-color="#58656b" class="stopColor00C361 svgShape"></stop><stop offset=".102" stop-color="#57646b" class="stopColor00C261 svgShape"></stop><stop offset=".109" stop-color="#57646a" class="stopColor00C161 svgShape"></stop><stop offset=".117" stop-color="#56636a" class="stopColor00C060 svgShape"></stop><stop offset=".125" stop-color="#56636a" class="stopColor00C060 svgShape"></stop><stop offset=".133" stop-color="#566369" class="stopColor00BF5F svgShape"></stop><stop offset=".141" stop-color="#556268" class="stopColor00BE5F svgShape"></stop><stop offset=".148" stop-color="#556268" class="stopColor00BD5F svgShape"></stop><stop offset=".156" stop-color="#556167" class="stopColor00BC5E svgShape"></stop><stop offset=".164" stop-color="#556167" class="stopColor00BC5E svgShape"></stop><stop offset=".172" stop-color="#546167" class="stopColor00BB5D svgShape"></stop><stop offset=".18" stop-color="#546066" class="stopColor00BA5D svgShape"></stop><stop offset=".188" stop-color="#536066" class="stopColor00B95D svgShape"></stop><stop offset=".195" stop-color="#535f65" class="stopColor00B85C svgShape"></stop><stop offset=".203" stop-color="#535f65" class="stopColor00B85C svgShape"></stop><stop offset=".211" stop-color="#525f65" class="stopColor00B75B svgShape"></stop><stop offset=".219" stop-color="#525e64" class="stopColor00B65B svgShape"></stop><stop offset=".227" stop-color="#515e64" class="stopColor00B55B svgShape"></stop><stop offset=".234" stop-color="#515d63" class="stopColor00B45A svgShape"></stop><stop offset=".242" stop-color="#515d63" class="stopColor00B45A svgShape"></stop><stop offset=".25" stop-color="#515c62" class="stopColor00B359 svgShape"></stop><stop offset=".258" stop-color="#505c62" class="stopColor00B259 svgShape"></stop><stop offset=".266" stop-color="#505b61" class="stopColor00B159 svgShape"></stop><stop offset=".273" stop-color="#505b61" class="stopColor00B158 svgShape"></stop><stop offset=".281" stop-color="#4f5b61" class="stopColor00B058 svgShape"></stop><stop offset=".289" stop-color="#4f5a60" class="stopColor00AF57 svgShape"></stop><stop offset=".297" stop-color="#4e5a60" class="stopColor00AE57 svgShape"></stop><stop offset=".305" stop-color="#4e595f" class="stopColor00AD57 svgShape"></stop><stop offset=".313" stop-color="#4e595f" class="stopColor00AD56 svgShape"></stop><stop offset=".32" stop-color="#4d595f" class="stopColor00AC56 svgShape"></stop><stop offset=".328" stop-color="#4d585e" class="stopColor00AB55 svgShape"></stop><stop offset=".336" stop-color="#4c585d" class="stopColor0A5 svgShape"></stop><stop offset=".344" stop-color="#4c575d" class="stopColor00A955 svgShape"></stop><stop offset=".352" stop-color="#4c575d" class="stopColor00A954 svgShape"></stop><stop offset=".359" stop-color="#4c575c" class="stopColor00A854 svgShape"></stop><stop offset=".367" stop-color="#4b565c" class="stopColor00A753 svgShape"></stop><stop offset=".375" stop-color="#4b565b" class="stopColor00A653 svgShape"></stop><stop offset=".383" stop-color="#4a555b" class="stopColor00A553 svgShape"></stop><stop offset=".391" stop-color="#4a555b" class="stopColor00A552 svgShape"></stop><stop offset=".398" stop-color="#4a555a" class="stopColor00A452 svgShape"></stop><stop offset=".406" stop-color="#49545a" class="stopColor00A351 svgShape"></stop><stop offset=".414" stop-color="#495459" class="stopColor00A251 svgShape"></stop><stop offset=".422" stop-color="#485359" class="stopColor00A151 svgShape"></stop><stop offset=".43" stop-color="#485359" class="stopColor00A150 svgShape"></stop><stop offset=".438" stop-color="#485358" class="stopColor00A050 svgShape"></stop><stop offset=".445" stop-color="#485257" class="stopColor009F4F svgShape"></stop><stop offset=".453" stop-color="#475257" class="stopColor009E4F svgShape"></stop><stop offset=".461" stop-color="#475156" class="stopColor009D4F svgShape"></stop><stop offset=".469" stop-color="#475156" class="stopColor009D4E svgShape"></stop><stop offset=".477" stop-color="#465156" class="stopColor009C4E svgShape"></stop><stop offset=".484" stop-color="#465055" class="stopColor009B4D svgShape"></stop><stop offset=".492" stop-color="#455055" class="stopColor009A4D svgShape"></stop><stop offset=".5" stop-color="#454f54" class="stopColor00994D svgShape"></stop><stop offset=".508" stop-color="#454f54" class="stopColor00994C svgShape"></stop><stop offset=".516" stop-color="#444f54" class="stopColor00984C svgShape"></stop><stop offset=".523" stop-color="#444e53" class="stopColor00974C svgShape"></stop><stop offset=".531" stop-color="#434d52" class="stopColor00964B svgShape"></stop><stop offset=".539" stop-color="#434d52" class="stopColor00954B svgShape"></stop><stop offset=".547" stop-color="#434d52" class="stopColor00954A svgShape"></stop><stop offset=".555" stop-color="#434c51" class="stopColor00944A svgShape"></stop><stop offset=".563" stop-color="#424c51" class="stopColor00934A svgShape"></stop><stop offset=".57" stop-color="#424b50" class="stopColor009249 svgShape"></stop><stop offset=".578" stop-color="#414b50" class="stopColor009149 svgShape"></stop><stop offset=".586" stop-color="#414b50" class="stopColor009148 svgShape"></stop><stop offset=".594" stop-color="#414a4f" class="stopColor009048 svgShape"></stop><stop offset=".602" stop-color="#404a4f" class="stopColor008F48 svgShape"></stop><stop offset=".609" stop-color="#40494e" class="stopColor008E47 svgShape"></stop><stop offset=".617" stop-color="#3f494e" class="stopColor008D47 svgShape"></stop><stop offset=".625" stop-color="#3f494e" class="stopColor008D46 svgShape"></stop><stop offset=".633" stop-color="#3f484d" class="stopColor008C46 svgShape"></stop><stop offset=".641" stop-color="#3f484c" class="stopColor008B46 svgShape"></stop><stop offset=".648" stop-color="#3e474c" class="stopColor008A45 svgShape"></stop><stop offset=".656" stop-color="#3e474b" class="stopColor008945 svgShape"></stop><stop offset=".664" stop-color="#3e474b" class="stopColor008944 svgShape"></stop><stop offset=".672" stop-color="#3d464b" class="stopColor084 svgShape"></stop><stop offset=".68" stop-color="#3d464a" class="stopColor008744 svgShape"></stop><stop offset=".688" stop-color="#3c454a" class="stopColor008643 svgShape"></stop><stop offset=".695" stop-color="#3c4549" class="stopColor008543 svgShape"></stop><stop offset=".703" stop-color="#3c4549" class="stopColor008542 svgShape"></stop><stop offset=".711" stop-color="#3b4449" class="stopColor008442 svgShape"></stop><stop offset=".719" stop-color="#3b4448" class="stopColor008342 svgShape"></stop><stop offset=".727" stop-color="#3a4347" class="stopColor008241 svgShape"></stop><stop offset=".734" stop-color="#3a4347" class="stopColor008141 svgShape"></stop><stop offset=".742" stop-color="#3a4347" class="stopColor008140 svgShape"></stop><stop offset=".75" stop-color="#3a4246" class="stopColor008040 svgShape"></stop><stop offset=".758" stop-color="#394246" class="stopColor007F40 svgShape"></stop><stop offset=".766" stop-color="#394145" class="stopColor007E3F svgShape"></stop><stop offset=".773" stop-color="#394145" class="stopColor007E3F svgShape"></stop><stop offset=".781" stop-color="#384145" class="stopColor007D3E svgShape"></stop><stop offset=".789" stop-color="#384044" class="stopColor007C3E svgShape"></stop><stop offset=".797" stop-color="#374044" class="stopColor007B3E svgShape"></stop><stop offset=".805" stop-color="#373f43" class="stopColor007A3D svgShape"></stop><stop offset=".813" stop-color="#373f43" class="stopColor007A3D svgShape"></stop><stop offset=".82" stop-color="#363f43" class="stopColor00793C svgShape"></stop><stop offset=".828" stop-color="#363e42" class="stopColor00783C svgShape"></stop><stop offset=".836" stop-color="#363d41" class="stopColor00773C svgShape"></stop><stop offset=".844" stop-color="#353d41" class="stopColor00763B svgShape"></stop><stop offset=".852" stop-color="#353d41" class="stopColor00763B svgShape"></stop><stop offset=".859" stop-color="#353c40" class="stopColor00753A svgShape"></stop><stop offset=".867" stop-color="#343c40" class="stopColor00743A svgShape"></stop><stop offset=".875" stop-color="#343b3f" class="stopColor00733A svgShape"></stop><stop offset=".883" stop-color="#333b3f" class="stopColor007239 svgShape"></stop><stop offset=".891" stop-color="#333b3f" class="stopColor007239 svgShape"></stop><stop offset=".898" stop-color="#333a3e" class="stopColor007138 svgShape"></stop><stop offset=".906" stop-color="#323a3e" class="stopColor007038 svgShape"></stop><stop offset=".914" stop-color="#32393d" class="stopColor006F38 svgShape"></stop><stop offset=".922" stop-color="#31393c" class="stopColor006E37 svgShape"></stop><stop offset=".93" stop-color="#31393c" class="stopColor006E37 svgShape"></stop><stop offset=".938" stop-color="#31383c" class="stopColor006D36 svgShape"></stop><stop offset=".945" stop-color="#31383b" class="stopColor006C36 svgShape"></stop><stop offset=".953" stop-color="#30373b" class="stopColor006B36 svgShape"></stop><stop offset=".961" stop-color="#30373a" class="stopColor006A35 svgShape"></stop><stop offset=".969" stop-color="#30373a" class="stopColor006A35 svgShape"></stop><stop offset=".977" stop-color="#2f363a" class="stopColor006934 svgShape"></stop><stop offset=".984" stop-color="#2f3639" class="stopColor006834 svgShape"></stop><stop offset=".992" stop-color="#2e3539" class="stopColor006734 svgShape"></stop><stop offset="1" stop-color="#2e3538" class="stopColor063 svgShape"></stop></linearGradient></defs><g clip-path="url(#a)" fill="#000000" class="color000 svgShape"><path fill="url(#b)" d="M 0.75,0.75 V 203.91797 H 563.5 V 0.75 Z m 0,0"></path></g><g clip-path="url(#c)" fill="#000000" class="color000 svgShape"><path fill="none" stroke="#ffffff" stroke-width="2" d="M 0.999558,0.999558 H 751.00093 V 271.77034 H 0.999558 Z m 0,0" transform="scale(.75033)" class="colorStrokefff svgStroke"></path></g><path fill="none" stroke="#ffffff" stroke-miterlimit="10" stroke-width="2" d="M 376.000244 271.770336 L 376.000244 320.998546 M 301.002189 320.998546 L 450.998298 320.998546 " transform="scale(.75033)" class="colorStrokeFFF svgStroke"></path><use x="71.317" y="117.052" fill="#00331a" xlink:href="#d"></use><g fill="#171a1c" class="color00331a svgShape"><use x="120.636" y="117.052" xlink:href="#e"></use><use x="150.265" y="117.052" xlink:href="#f"></use><use x="162.1" y="117.052" xlink:href="#g"></use><use x="188.737" y="117.052" xlink:href="#h"></use><use x="218.365" y="117.052" xlink:href="#i"></use><use x="262.743" y="117.052" xlink:href="#e"></use><use x="292.371" y="117.052" xlink:href="#j"></use><use x="307.172" y="117.052" xlink:href="#k"></use><use x="321.973" y="117.052" xlink:href="#h"></use><use x="351.601" y="117.052" xlink:href="#j"></use><use x="366.402" y="117.052" xlink:href="#l"></use><use x="404.875" y="117.052" xlink:href="#m"></use><use x="443.347" y="117.052" xlink:href="#n"></use><use x="478.88" y="117.052" xlink:href="#o"></use></g></svg></g></svg>