<?xml version="1.0" standalone="no"?>
<!DOCTYPE svg PUBLIC "-//W3C//DTD SVG 20010904//EN"
 "http://www.w3.org/TR/2001/REC-SVG-20010904/DTD/svg10.dtd">
<svg version="1.0" xmlns="http://www.w3.org/2000/svg"
 width="36.000000pt" height="36.000000pt" viewBox="0 0 36.000000 36.000000"
 preserveAspectRatio="xMidYMid meet">
<metadata>
Created by potrace 1.16, written by Peter Selinger 2001-2019
</metadata>
<g transform="translate(0.000000,36.000000) scale(0.007031,-0.007031)"
fill="#000000" stroke="none">
<path d="M303 5052 c-86 -74 -272 -269 -286 -299 -33 -73 41 -14 241 191 78
80 142 151 142 156 0 23 -34 6 -97 -48z"/>
<path d="M503 5051 c-104 -90 -480 -475 -488 -500 -12 -37 2 -35 52 7 72 60
533 529 533 541 0 24 -33 8 -97 -48z"/>
<path d="M703 5051 c-112 -97 -680 -674 -687 -699 -23 -71 24 -29 442 391 188
189 342 349 342 356 0 24 -32 8 -97 -48z"/>
<path d="M903 5051 c-116 -100 -880 -875 -888 -899 -22 -72 19 -35 543 491
243 244 442 449 442 455 0 25 -32 10 -97 -47z"/>
<path d="M1103 5051 c-118 -102 -1080 -1075 -1088 -1099 -11 -38 2 -37 52 6
79 66 1133 1127 1133 1140 0 25 -32 10 -97 -47z"/>
<path d="M1303 5051 c-119 -104 -1280 -1275 -1288 -1299 -11 -38 2 -37 52 6
80 67 1333 1327 1333 1340 0 25 -32 10 -97 -47z"/>
<path d="M1503 5051 c-121 -105 -1480 -1475 -1488 -1499 -11 -38 2 -37 52 6
81 68 1533 1527 1533 1540 0 25 -32 10 -97 -47z"/>
<path d="M1703 5051 c-121 -105 -1680 -1675 -1688 -1699 -11 -38 2 -37 52 6
81 68 1733 1727 1733 1740 0 25 -32 10 -97 -47z"/>
<path d="M1903 5051 c-122 -106 -1881 -1875 -1888 -1899 -11 -38 2 -37 52 6
82 69 1933 1927 1933 1940 0 25 -32 10 -97 -47z"/>
<path d="M2103 5051 c-123 -107 -2081 -2075 -2088 -2099 -11 -38 2 -37 52 6
82 69 2133 2127 2133 2140 0 25 -32 10 -97 -47z"/>
<path d="M2303 5051 c-123 -107 -2281 -2276 -2288 -2299 -11 -38 2 -37 52 6
82 69 2333 2327 2333 2340 0 25 -32 10 -97 -47z"/>
<path d="M2503 5051 c-124 -107 -2481 -2476 -2488 -2499 -11 -38 2 -37 52 6
82 70 2533 2527 2533 2540 0 25 -32 10 -97 -47z"/>
<path d="M2703 5051 c-38 -33 -277 -269 -533 -525 -256 -256 -472 -466 -482
-466 -17 0 -58 -45 -58 -64 0 -14 -542 -556 -556 -556 -19 0 -64 -41 -64 -58
0 -10 -198 -215 -441 -457 -242 -242 -467 -470 -500 -508 -57 -65 -72 -97 -47
-97 6 0 235 223 507 495 l496 494 35 -21 c19 -12 37 -23 40 -25 2 -2 -228
-236 -511 -521 -284 -284 -530 -534 -547 -555 -33 -39 -41 -67 -20 -67 6 0
262 250 568 555 305 305 560 555 564 555 5 0 24 -10 43 -21 l35 -22 -579 -581
c-319 -320 -594 -598 -611 -619 -33 -39 -41 -67 -20 -67 6 0 292 279 634 621
l622 621 41 -24 40 -23 -639 -640 c-351 -352 -655 -660 -674 -683 -36 -44 -46
-72 -25 -72 7 0 181 168 388 374 352 350 377 374 395 360 11 -8 34 -14 50 -14
28 0 -4 -35 -375 -407 -223 -225 -420 -425 -437 -446 -33 -38 -41 -67 -20 -67
6 0 219 207 473 460 l461 460 64 0 65 0 -506 -507 c-278 -280 -520 -525 -537
-546 -33 -39 -41 -67 -20 -67 6 0 264 252 573 560 l561 560 47 0 c65 0 92 26
84 84 l-6 42 133 133 134 133 -20 -83 -19 -84 -718 -720 c-395 -396 -732 -737
-749 -758 -33 -39 -41 -67 -20 -67 7 0 342 329 745 732 l733 732 0 -64 0 -65
-686 -685 c-377 -377 -712 -715 -745 -753 -57 -65 -72 -97 -47 -97 7 0 342
329 745 732 l733 732 0 -64 0 -65 -686 -685 c-377 -377 -712 -715 -745 -753
-57 -65 -72 -97 -47 -97 7 0 342 329 745 732 l733 732 0 -64 0 -65 -686 -685
c-377 -377 -712 -715 -745 -753 -57 -65 -72 -97 -47 -97 7 0 342 329 745 732
l733 732 0 -64 0 -65 -686 -685 c-377 -377 -712 -715 -745 -753 -57 -65 -72
-97 -47 -97 7 0 342 329 745 732 l733 732 0 -64 0 -65 -686 -685 c-377 -377
-712 -715 -745 -753 -57 -65 -72 -97 -47 -97 6 0 292 280 635 622 l623 622 0
-64 0 -64 -605 -606 c-333 -334 -605 -612 -605 -618 0 -21 28 -13 67 20 21 17
287 279 591 582 l552 551 0 -65 0 -64 -505 -506 c-278 -279 -505 -512 -505
-518 0 -21 28 -13 67 20 21 17 242 234 491 482 l452 451 0 -40 c0 -22 5 -47
10 -55 7 -12 -81 -105 -405 -431 -228 -229 -415 -421 -415 -427 0 -25 32 -9
97 47 38 33 228 219 423 415 l355 356 64 0 65 0 -402 -403 c-221 -222 -402
-409 -402 -415 0 -25 32 -9 97 47 38 33 228 219 423 415 l355 356 64 0 65 0
-402 -403 c-221 -222 -402 -409 -402 -415 0 -25 32 -9 97 47 38 33 228 219
423 415 l355 356 64 0 65 0 -402 -403 c-221 -222 -402 -409 -402 -415 0 -25
32 -9 97 47 38 33 228 219 423 415 l355 356 64 0 65 0 -402 -403 c-221 -222
-402 -409 -402 -415 0 -25 32 -9 97 47 38 33 228 219 423 415 l355 356 64 0
65 0 -402 -403 c-221 -222 -402 -409 -402 -415 0 -25 32 -9 97 47 38 33 228
219 423 415 l355 356 64 0 65 0 -402 -403 c-221 -222 -402 -409 -402 -415 0
-25 32 -9 97 47 38 33 228 219 423 415 l355 356 64 0 65 0 -402 -403 c-221
-222 -402 -409 -402 -415 0 -25 32 -9 97 47 38 33 228 219 423 415 l355 356
64 0 65 0 -402 -403 c-221 -222 -402 -409 -402 -415 0 -25 32 -9 97 47 38 33
228 219 423 415 l355 356 64 0 65 0 -402 -403 c-221 -222 -402 -409 -402 -415
0 -25 32 -9 97 47 38 33 228 219 423 415 l355 356 64 0 65 0 -402 -403 c-221
-222 -402 -409 -402 -415 0 -25 32 -9 97 47 38 33 228 219 423 415 l355 356
64 0 65 0 -402 -403 c-221 -222 -402 -409 -402 -415 0 -25 32 -9 97 47 38 33
228 219 423 415 l355 356 64 0 65 0 -402 -403 c-221 -222 -402 -409 -402 -415
0 -25 32 -9 97 47 38 33 228 219 423 415 290 291 360 356 382 356 30 0 68 41
68 74 0 15 178 199 581 601 319 319 607 610 640 648 57 65 72 97 47 97 -6 0
-294 -282 -640 -627 l-628 -627 0 64 0 65 581 580 c319 319 607 610 640 648
57 65 72 97 47 97 -6 0 -294 -282 -640 -627 l-628 -627 0 64 0 65 581 580
c319 319 607 610 640 648 57 65 72 97 47 97 -6 0 -296 -284 -645 -632 -605
-604 -633 -631 -651 -615 -10 9 -32 17 -48 17 -26 0 46 75 632 663 363 364
675 679 692 700 33 39 41 67 20 67 -6 0 -334 -322 -728 -715 -518 -517 -722
-715 -738 -715 -19 0 -22 5 -22 43 l0 42 691 690 c380 380 717 720 750 758 57
65 72 97 47 97 -7 0 -344 -332 -750 -737 l-738 -737 0 64 0 65 691 690 c380
380 717 720 750 758 56 65 72 97 48 97 -7 0 -182 -170 -390 -377 -268 -266
-379 -371 -379 -356 0 11 -9 31 -19 45 l-20 24 351 350 c192 192 376 379 409
417 57 65 72 97 47 97 -6 0 -205 -193 -443 -430 l-431 -430 -64 0 -65 0 476
478 c261 262 490 494 507 515 33 39 41 67 20 67 -6 0 -251 -238 -543 -530
l-531 -530 -64 0 -65 0 576 578 c316 317 590 594 607 615 33 39 41 67 20 67
-7 0 -344 -332 -750 -737 l-738 -737 0 64 0 65 691 690 c380 380 717 720 750
758 57 65 72 97 47 97 -7 0 -343 -331 -749 -736 -558 -558 -738 -732 -743
-719 -3 9 -6 35 -6 58 l0 42 696 695 c383 382 722 725 755 763 57 65 72 97 47
97 -7 0 -350 -338 -764 -751 l-752 -751 -12 52 -13 52 179 180 c144 143 194
187 253 220 93 52 111 70 111 111 0 29 41 73 446 477 245 245 472 475 505 513
57 65 72 97 47 97 -6 0 -241 -229 -522 -509 -467 -466 -513 -509 -538 -504
-20 4 -47 -5 -95 -32 -64 -35 -32 0 543 577 336 337 615 623 619 636 10 35 -1
37 -37 7 -18 -15 -385 -378 -815 -808 -431 -429 -784 -779 -786 -776 -2 2 -13
20 -25 39 l-21 36 785 784 c432 432 812 815 845 853 57 65 72 97 47 97 -7 0
-393 -381 -859 -846 l-847 -847 -31 34 -30 34 858 860 c472 473 872 877 889
898 33 39 41 67 20 67 -7 0 -413 -400 -903 -890 -490 -490 -895 -890 -900
-890 -5 0 -22 12 -37 27 l-28 27 880 881 c484 485 880 886 880 893 0 21 -28
13 -67 -20 -21 -17 -419 -411 -884 -876 -912 -910 -847 -851 -904 -807 -18 15
21 55 818 853 460 461 837 843 837 850 0 21 -28 13 -67 -20 -21 -17 -346 -338
-722 -712 -376 -375 -677 -670 -669 -656 8 14 46 79 83 145 l68 120 554 556
c304 305 553 561 553 567 0 21 -28 13 -67 -20 -21 -17 -268 -260 -549 -540
-444 -443 -512 -507 -523 -494 -8 9 -29 16 -49 16 -35 0 -23 13 476 513 282
283 512 519 512 525 0 21 -28 13 -67 -20 -21 -17 -376 -369 -789 -781 l-751
-749 -57 7 -58 8 761 761 c419 419 761 767 761 774 0 25 -32 10 -97 -47 -38
-33 -387 -379 -778 -770 l-710 -711 -65 0 -64 0 757 758 c416 417 757 763 757
770 0 21 -28 13 -67 -20 -21 -17 -373 -366 -783 -774 l-745 -743 -74 -16 c-40
-8 -78 -18 -85 -21 -6 -4 49 54 123 129 l135 136 41 -5 c60 -9 86 16 92 87 l5
54 579 581 c319 319 579 586 579 592 0 21 -28 13 -67 -20 -21 -17 -275 -268
-565 -557 l-528 -526 0 65 0 64 480 481 c264 265 480 487 480 493 0 21 -28 13
-67 -20 -21 -17 -230 -223 -464 -456 -421 -419 -427 -424 -434 -394 -3 17 -13
36 -21 43 -13 10 48 76 386 414 220 221 400 407 400 413 0 25 -32 9 -97 -47
-38 -33 -356 -347 -708 -699 l-639 -641 -23 41 -24 42 646 646 c355 355 645
652 645 658 0 21 -28 13 -67 -20 -21 -17 -311 -304 -645 -636 l-606 -605 -22
43 -22 43 581 581 c320 321 581 588 581 594 0 21 -28 13 -67 -20 -21 -17 -283
-275 -582 -572 -299 -298 -545 -536 -547 -531 -2 6 -13 24 -23 40 l-19 30 519
521 c286 286 519 526 519 532 0 25 -32 10 -97 -47z m-945 -1738 l-723 -723
-65 0 -65 0 785 785 785 785 3 -62 3 -62 -723 -723z m1562 670 c-12 -21 -51
-87 -86 -148 -53 -92 -82 -129 -176 -223 l-114 -112 -48 16 -48 17 243 243
c134 134 245 244 247 244 2 0 -6 -17 -18 -37z m-1017 -325 c-145 -145 -192
-186 -251 -218 -176 -95 -345 -267 -429 -435 -17 -34 -82 -108 -206 -232
l-182 -183 -65 0 -65 0 685 685 685 685 3 -62 3 -62 -178 -178z m-623 221 l13
-31 -234 -234 c-129 -129 -237 -234 -241 -234 -4 0 -23 10 -43 22 l-37 21 253
253 c182 182 256 250 265 243 6 -5 18 -23 24 -40z m68 -117 l21 -38 -212 -212
-212 -211 -35 21 c-19 12 -37 23 -40 25 -5 4 442 453 451 453 3 0 15 -17 27
-38z m-91 -349 l-191 -192 -29 25 c-15 13 -34 24 -40 24 -7 0 80 92 192 204
l204 204 28 -36 27 -37 -191 -192z m1523 210 c11 -10 29 -20 40 -23 18 -4 9
-17 -59 -84 l-80 -80 -40 19 c-23 10 -41 21 -41 24 0 5 152 161 157 161 2 0
12 -8 23 -17z m496 -498 c9 -8 30 -15 47 -15 31 0 29 -3 -73 -105 l-104 -104
-20 45 -19 45 74 75 c40 41 75 74 77 74 2 0 10 -7 18 -15z m185 -675 c18 -15
13 -21 -111 -145 l-130 -130 0 65 0 65 102 102 c95 96 103 101 111 80 4 -12
17 -29 28 -37z m-6 -240 l-230 -230 -3 62 -3 62 168 168 168 168 65 0 65 0
-230 -230z m100 -100 l-330 -330 -3 62 -3 62 268 268 268 268 65 0 65 0 -330
-330z"/>
<path d="M4122 1078 c-535 -535 -992 -995 -1014 -1021 -43 -50 -44 -63 -6 -52
24 7 1853 1826 1959 1948 57 65 72 97 47 97 -7 0 -450 -438 -986 -972z"/>
<path d="M4222 978 c-480 -480 -892 -895 -914 -921 -43 -50 -44 -63 -6 -52 24
8 1653 1626 1759 1748 57 65 72 97 47 97 -7 0 -405 -393 -886 -872z"/>
<path d="M4322 878 c-754 -754 -860 -863 -849 -874 3 -3 16 -3 29 1 24 8 1454
1427 1559 1548 57 65 72 97 47 97 -7 0 -360 -348 -786 -772z"/>
<path d="M4422 778 c-658 -658 -760 -763 -749 -774 3 -3 16 -3 29 1 24 8 1255
1228 1359 1348 57 65 72 97 47 97 -6 0 -315 -303 -686 -672z"/>
<path d="M4522 678 c-664 -663 -694 -695 -620 -673 24 8 1056 1030 1159 1148
57 65 72 97 47 97 -6 0 -270 -258 -586 -572z"/>
<path d="M4623 578 c-558 -557 -594 -595 -521 -573 24 8 858 832 959 948 57
65 72 97 47 97 -6 0 -225 -213 -485 -472z"/>
<path d="M4723 478 c-452 -450 -492 -495 -421 -472 25 7 661 634 759 747 56
65 72 97 48 97 -7 0 -180 -168 -386 -372z"/>
<path d="M4823 378 c-345 -342 -390 -394 -322 -373 25 8 468 441 560 548 56
64 72 97 48 97 -6 0 -135 -123 -286 -272z"/>
<path d="M4924 278 c-185 -182 -261 -265 -250 -275 14 -14 62 23 192 149 203
197 286 298 244 298 -6 0 -90 -78 -186 -172z"/>
</g>
</svg>
