<?xml version="1.0" standalone="no"?>
<!DOCTYPE svg PUBLIC "-//W3C//DTD SVG 20010904//EN"
 "http://www.w3.org/TR/2001/REC-SVG-20010904/DTD/svg10.dtd">
<svg version="1.0" xmlns="http://www.w3.org/2000/svg"
 width="36.000000pt" height="36.000000pt" viewBox="0 0 36.000000 36.000000"
 preserveAspectRatio="xMidYMid meet">
<metadata>
Created by potrace 1.16, written by Peter Selinger 2001-2019
</metadata>
<g transform="translate(0.000000,36.000000) scale(0.003750,-0.003750)"
fill="#0aa93b" stroke="none">
<path d="M6200 6584 c-272 -158 -862 -498 -1310 -757 -448 -259 -927 -536
-1065 -616 l-250 -146 -320 -5 -320 -5 -47 -28 c-26 -15 -57 -41 -69 -58 -49
-70 -49 -61 -49 -1001 l0 -878 -64 -63 c-73 -72 -96 -127 -96 -234 l0 -63 686
0 687 0 -5 78 c-7 99 -37 169 -94 222 l-44 40 0 740 0 740 38 24 c20 13 273
160 562 327 289 166 797 460 1130 652 333 192 788 455 1013 584 351 203 407
238 407 258 0 24 -243 454 -263 467 -7 4 -16 8 -22 8 -5 0 -233 -129 -505
-286z m440 -81 l0 -228 -111 -64 c-60 -35 -112 -62 -113 -60 -2 2 -6 101 -10
220 -5 168 -3 219 6 227 12 9 220 131 226 132 1 0 2 -102 2 -227z m182 23 c49
-87 58 -110 47 -117 -8 -5 -42 -25 -76 -44 l-63 -36 0 173 c1 200 -6 198 92
24z m-508 -212 l7 -221 -113 -66 -113 -66 -6 127 c-4 70 -7 170 -8 224 l-1 96
112 66 c62 36 113 64 114 63 1 -1 5 -102 8 -223z m-321 -181 c5 -164 3 -221
-6 -230 -19 -18 -208 -125 -213 -120 -3 2 -7 103 -10 223 l-6 219 108 62 c60
34 112 63 115 63 3 0 9 -98 12 -217z m-320 -196 l3 -217 -75 -44 c-42 -24 -93
-54 -113 -66 l-38 -22 0 229 0 229 108 61 c59 34 108 59 109 55 1 -4 3 -105 6
-225z m-322 -177 l1 -225 -104 -62 c-56 -34 -107 -63 -113 -63 -6 0 -9 80 -8
222 l1 223 109 66 c59 36 109 65 110 65 1 -1 3 -103 4 -226z m-321 -187 l0
-228 -110 -62 c-60 -35 -112 -63 -115 -63 -3 0 -4 102 -3 226 l3 226 110 64
c61 35 111 64 113 64 1 0 2 -102 2 -227z m-320 -182 l0 -229 -105 -61 c-57
-34 -109 -61 -115 -61 -6 0 -10 76 -10 219 0 186 2 220 16 232 12 9 198 122
212 128 1 1 2 -102 2 -228z m-320 -188 l0 -228 -110 -62 c-60 -35 -112 -63
-115 -63 -3 0 -4 102 -3 226 l3 226 110 64 c60 35 111 64 112 64 2 0 3 -102 3
-227z m-320 -182 l0 -229 -106 -61 c-58 -34 -110 -61 -115 -61 -5 0 -9 97 -9
223 l0 222 113 67 c61 36 113 66 115 67 1 1 2 -102 2 -228z m-320 -188 l-1
-228 -105 -60 c-58 -33 -109 -61 -115 -63 -5 -2 -9 84 -9 222 l0 225 108 65
c59 35 110 65 115 65 4 1 7 -101 7 -226z m-370 127 c0 -3 -35 -26 -77 -50
-114 -63 -133 -79 -132 -103 0 -12 58 -121 128 -242 91 -156 134 -221 148
-223 11 -2 75 29 144 68 68 40 132 76 142 81 16 9 17 -27 17 -696 l0 -705
-440 0 -440 0 0 28 c0 15 0 415 0 890 0 934 -1 903 53 934 15 9 87 15 227 18
113 3 211 5 218 6 6 0 12 -2 12 -6z m50 -262 l0 -173 -55 93 c-84 143 -99 171
-94 175 11 10 135 77 142 77 4 0 7 -78 7 -172z m386 -1730 c40 -35 64 -82 64
-123 l0 -25 -591 0 -591 0 7 33 c11 49 30 81 70 116 l36 31 484 0 484 0 37
-32z"/>
</g>
</svg>
