<?xml version="1.0" standalone="no"?>
<!DOCTYPE svg PUBLIC "-//W3C//DTD SVG 20010904//EN"
 "http://www.w3.org/TR/2001/REC-SVG-20010904/DTD/svg10.dtd">
<svg version="1.0" xmlns="http://www.w3.org/2000/svg"
 width="36.000000pt" height="36.000000pt" viewBox="0 0 36.000000 36.000000"
 preserveAspectRatio="xMidYMid meet">
<metadata>
Created by potrace 1.16, written by Peter Selinger 2001-2019
</metadata>
<g transform="translate(0.000000,36.000000) scale(0.016438,-0.015652)"
fill="#000000" stroke="none">
<path d="M1113 2172 c-66 -23 -117 -62 -133 -101 -11 -28 -17 -31 -56 -31 -24
0 -43 -3 -43 -7 4 -23 -3 -33 -24 -33 -29 0 -47 -18 -47 -45 0 -11 -8 -25 -19
-30 -10 -6 -33 -18 -51 -28 -18 -11 -35 -15 -39 -10 -3 4 -17 9 -31 10 -14 1
-45 4 -70 6 -25 3 -63 5 -85 6 -30 1 -36 4 -25 11 11 7 6 8 -16 4 -17 -3 -41
-1 -52 5 -15 8 -22 8 -25 -2 -4 -9 -6 -9 -6 0 -1 7 -8 10 -16 7 -11 -5 -15
-22 -15 -68 0 -83 31 -131 144 -225 94 -78 110 -99 121 -148 l7 -33 89 0 c87
0 89 -1 89 -24 0 -28 15 -42 50 -49 l25 -4 -26 -2 c-32 -1 -49 -18 -49 -48 l0
-23 -225 0 -225 0 0 -67 c0 -85 13 -108 116 -199 126 -112 133 -120 146 -168
l12 -46 88 0 c79 0 88 -2 88 -19 0 -20 23 -44 47 -47 26 -4 27 -14 2 -14 -29
0 -49 -17 -49 -42 0 -17 -15 -18 -225 -18 l-225 0 0 -67 c0 -91 22 -125 147
-233 84 -73 100 -93 112 -133 l15 -47 88 0 c85 0 88 -1 88 -23 0 -29 18 -47
46 -47 13 0 24 -8 27 -19 4 -15 12 -19 33 -16 16 2 172 4 346 4 l317 1 0 956
c1 525 3 960 6 965 4 5 -10 9 -29 9 -25 0 -36 5 -36 15 0 26 -59 82 -112 106
-73 32 -221 37 -295 11z m237 -263 c82 -41 130 -121 130 -216 -1 -211 -251
-317 -391 -166 -48 51 -63 92 -63 168 0 76 15 117 63 168 67 72 173 91 261 46z
m-2 -613 c122 -63 168 -226 96 -343 -97 -157 -323 -145 -400 21 -77 166 43
355 217 342 31 -2 70 -11 87 -20z m-1 -625 c170 -87 173 -333 5 -424 -177 -96
-388 81 -328 276 44 146 194 215 323 148z"/>
<path d="M1608 1695 l-3 -305 25 0 c32 0 50 17 50 47 0 22 3 23 89 23 l89 0 7
33 c11 49 27 70 121 148 100 83 144 145 144 201 0 25 -5 41 -15 44 -8 4 -15
14 -15 23 0 12 -2 13 -9 3 -8 -14 -56 -15 -164 -5 -39 4 -54 9 -45 15 8 5 -15
6 -54 2 -51 -5 -68 -4 -68 5 0 9 -11 11 -40 6 -37 -6 -40 -5 -40 17 0 30 -17
48 -47 48 l-22 0 -3 -305z"/>
<path d="M1610 1070 c0 -289 1 -310 18 -310 26 1 52 25 52 49 0 20 5 21 89 21
l89 0 12 48 c9 36 22 56 58 87 100 87 175 161 188 187 19 36 19 108 0 108 -8
0 -17 8 -19 18 -3 12 -5 13 -6 2 -1 -12 -14 -15 -62 -13 -37 1 -65 6 -69 14
-5 7 -17 9 -30 6 -26 -7 -52 1 -44 14 3 5 -41 9 -100 9 -104 0 -106 0 -106 23
0 13 -5 28 -12 35 -7 7 -22 12 -35 12 l-23 0 0 -310z"/>
<path d="M1610 445 l0 -305 23 0 c29 0 47 18 47 47 0 22 3 23 88 23 l88 0 15
47 c12 40 28 60 112 133 109 94 147 146 147 201 0 43 -5 46 -98 55 -37 4 -73
11 -80 17 -8 6 -53 11 -103 10 -54 -1 -89 3 -89 9 0 6 -15 7 -40 3 -37 -6 -40
-5 -40 17 0 30 -17 48 -47 48 l-23 0 0 -305z"/>
</g>
</svg>
