<svg id="Layer_1" data-name="Layer 1" xmlns="http://www.w3.org/2000/svg" xmlns:xlink="http://www.w3.org/1999/xlink" viewBox="0 0 27.4 28.9"><defs><symbol id="New_Symbol" data-name="New Symbol" viewBox="0 0 473.7 242.5"><path d="M448.9,34.6H147.3V7.5A7.6,7.6,0,0,0,139.8,0H30.2a7.6,7.6,0,0,0-7.5,7.5v220H7.5a7.5,7.5,0,0,0,0,15h155a7.5,7.5,0,0,0,0-15H147.3V84.1H448.9a24.8,24.8,0,1,0,0-49.5Zm-327.8,15h54.4L156,69.1H121.1a40.2,40.2,0,0,0,0-19.5Zm75.6,0h21.1L198.3,69.1H177.2Zm42.3,0h44.4L263.8,69.1H219.5Zm65.6,0h21.1L306.1,69.1H285Zm42.3,0h44.3L371.7,69.1H327.3Zm65.5,0h21.1L414,69.1H392.9ZM132.3,227.5H37.7V15h94.6V34.6H113.6a39.7,39.7,0,1,0,0,49.5h18.7V227.5Zm-25-168.2A24.7,24.7,0,1,1,82.6,34.7,24.8,24.8,0,0,1,107.3,59.3Zm341.6,9.8H435.2l18.3-18.4a9.8,9.8,0,0,1-4.6,18.4Z" style="fill:#c41f3e"/><path d="M105.5,109.3h-41a7.5,7.5,0,0,0,0,15h41a7.5,7.5,0,0,0,0-15Z" style="fill:#c41f3e"/></symbol></defs><title>barrier</title><use width="473.7" height="242.54" transform="translate(0 0) scale(0.06 0.12)" xlink:href="#New_Symbol"/></svg>